<svg width="451" height="438" viewBox="0 0 451 438" fill="none" xmlns="http://www.w3.org/2000/svg">
<path opacity="0.04" d="M243.112 354.206C205.54 358.424 140.815 348.79 87.4258 310.663C34.0366 272.536 80.9523 196.863 117.926 197.163C129.414 197.286 73.0212 179.522 106.747 166.075C147.701 149.747 131.201 93.002 181.62 79.6212C232.04 66.2403 249.641 88.5869 271.266 94.3187C312.027 105.324 307.267 69.5195 355.418 105.505C386.147 128.47 406.652 178.17 383.27 234.551C359.888 290.933 333.477 344.059 243.112 354.206Z" fill="#276ED8"/>
<path d="M113.89 318C102.903 318 94 326.903 94 337.89C94 348.876 102.903 357.779 113.89 357.779C124.876 357.779 133.779 348.876 133.779 337.89C133.779 326.903 124.876 318 113.89 318ZM113.89 352.823C105.633 352.823 98.9462 346.136 98.9462 337.88C98.9462 329.624 105.633 322.937 113.89 322.937C122.146 322.937 128.833 329.624 128.833 337.88C128.833 346.136 122.146 352.823 113.89 352.823Z" fill="#66D6A0"/>
<path d="M277.047 300.978H249.262C248.169 300.978 247.274 300.094 247.274 298.99C247.274 297.897 248.159 297.002 249.262 297.002H277.047C278.141 297.002 279.035 297.887 279.035 298.99C279.035 300.084 278.141 300.978 277.047 300.978Z" fill="#66D6A0"/>
<path d="M277.047 310.9H249.262C248.169 310.9 247.274 310.015 247.274 308.912C247.274 307.818 248.159 306.924 249.262 306.924H277.047C278.141 306.924 279.035 307.808 279.035 308.912C279.035 310.006 278.141 310.9 277.047 310.9Z" fill="#66D6A0"/>
<path opacity="0.2" d="M117.951 218.795L135 215.565V200.166L117.951 197.205C116.642 190.879 114.157 184.956 110.736 179.707L120.517 165.251L109.694 154.348L95.5582 164.416C90.3474 160.971 84.4952 158.494 78.1888 157.175L74.9821 140H59.6971L56.7577 157.175C50.478 158.494 44.5992 160.998 39.3884 164.443L25.0653 154.591L14.2429 165.493L24.2369 179.734C20.8165 184.983 18.358 190.906 17.0487 197.232L0 200.462V215.861L17.0487 218.822C18.358 225.175 20.8432 231.07 24.2637 236.32L14.4834 250.749L25.3058 261.652L39.4685 251.584C44.6793 255.029 50.5582 257.533 56.8379 258.825L60.0445 276H75.3295L78.269 258.825C84.5754 257.506 90.4275 255.002 95.6383 251.557L109.961 261.409L120.784 250.507L110.79 236.266C114.184 231.044 116.642 225.148 117.951 218.795ZM67.5 239.9C50.0237 239.9 35.861 225.606 35.861 208.027C35.861 190.448 50.0237 176.154 67.5 176.154C84.9762 176.154 99.1389 190.421 99.1389 208.027C99.1389 225.633 84.9762 239.9 67.5 239.9Z" fill="#84B5FF"/>
<path d="M221 99.1218V255.878C221 260.694 224.477 265 228.759 265H335.241C339.523 265 343 260.694 343 255.878V99.1218C343 94.3062 339.523 90 335.241 90H228.751C224.468 90.0094 221 94.3062 221 99.1218ZM335.35 260.127H282H228.65C227.063 260.127 225.778 258.683 225.778 256.898V98.1021C225.778 96.3174 227.063 94.8728 228.65 94.8728H335.35C336.937 94.8728 338.222 96.3174 338.222 98.1021V256.898C338.222 258.683 336.937 260.127 335.35 260.127Z" fill="#66D6A0"/>
<path d="M266.593 136.383C266.593 137.362 265.804 138.152 264.824 138.152C263.844 138.152 263.055 137.362 263.055 136.383C263.055 135.403 263.844 134.613 264.824 134.613C265.794 134.613 266.593 135.403 266.593 136.383Z" fill="#84B5FF"/>
<path d="M262 135.5C262 136.331 261.331 137 260.5 137C259.669 137 259 136.331 259 135.5C259 134.669 259.669 134 260.5 134C261.331 134 262 134.669 262 135.5Z" fill="#84B5FF"/>
<path d="M299 147.28V289.386C299 293.04 296.026 296 292.355 296H74.6451C70.9737 296 68 293.04 68 289.386V147.28C68 138.849 74.8705 132 83.3513 132H283.649C292.129 132 299 138.849 299 147.28Z" fill="white" stroke="#84B5FF" stroke-miterlimit="10"/>
<path d="M299 146.396V147H68V146.396C68 138.453 74.8705 132 83.3513 132H283.649C292.129 132 299 138.453 299 146.396Z" fill="#84B5FF"/>
<path d="M299.001 266V289.518C299.001 293.099 296.027 296 292.356 296H74.6461C70.9746 296 68.001 293.099 68.001 289.518V266H299.001Z" fill="#EDF1FF"/>
<path d="M299 147.28V289.386C299 293.04 296.026 296 292.355 296H74.6451C70.9737 296 68 293.04 68 289.386V147.28C68 138.849 74.8705 132 83.3513 132H283.649C292.129 132 299 138.849 299 147.28Z" stroke="#84B5FF" stroke-miterlimit="10"/>
<g filter="url(#filter0_d_93_2040)">
<rect x="201" y="208" width="110" height="110" rx="6" fill="#06B25F"/>
</g>
<path d="M246.593 294.7C236.964 294.644 229 274.989 229 264.979C229 248.629 241.266 245.049 245.993 245.049C248.124 245.049 250.398 245.885 252.405 246.626C253.808 247.142 255.259 247.675 256.066 247.675C256.549 247.675 257.687 247.222 258.692 246.824C260.836 245.971 263.503 244.91 266.609 244.91C266.614 244.91 266.622 244.91 266.627 244.91C268.946 244.91 275.978 245.419 280.205 251.768L281.196 253.256L279.77 254.331C277.734 255.867 274.02 258.67 274.02 264.221C274.02 270.795 278.227 273.323 280.248 274.54C281.14 275.076 282.064 275.63 282.064 276.84C282.064 277.631 275.756 294.601 266.596 294.601C264.354 294.601 262.77 293.928 261.372 293.334C259.958 292.732 258.738 292.214 256.723 292.214C255.701 292.214 254.409 292.697 253.041 293.21C251.172 293.907 249.056 294.7 246.656 294.7H246.593Z" fill="white"/>
<path d="M267.58 230C267.818 238.602 261.667 244.569 255.522 244.195C254.51 237.331 261.666 230 267.58 230Z" fill="white"/>
<g filter="url(#filter1_d_93_2040)">
<rect x="88" y="165" width="65.6797" height="64.5473" rx="6" fill="#276ED8"/>
</g>
<path d="M110.357 207.948L95.3227 199.817C94.3511 199.254 93.8652 198.385 93.8652 197.208C93.8652 195.981 94.3766 195.112 95.3994 194.6L110.357 186.393V189.384C110.357 189.589 110.281 189.87 110.127 190.228C109.974 190.535 109.744 190.765 109.437 190.918L98.7745 196.748C98.3654 197.055 98.3654 197.362 98.7745 197.669L110.357 203.882V207.948Z" fill="white"/>
<path d="M123.164 183.938H126.155L118.715 209.405C118.51 210.07 118.05 210.402 117.334 210.402H115.416L123.164 183.938Z" fill="white"/>
<path d="M130.984 186.393L145.942 194.6C147.016 195.163 147.553 196.032 147.553 197.208C147.553 198.385 147.016 199.228 145.942 199.74L130.984 207.948V204.956C130.984 204.803 131.035 204.547 131.138 204.189C131.291 203.831 131.521 203.575 131.828 203.422L142.567 197.669C142.976 197.362 142.976 197.055 142.567 196.748L130.984 190.458V186.393Z" fill="white"/>
<path d="M381.772 265.976H353.988C352.894 265.976 352 265.091 352 263.988C352 262.894 352.885 262 353.988 262H381.772C382.866 262 383.76 262.885 383.76 263.988C383.76 265.082 382.866 265.976 381.772 265.976Z" fill="#66D6A0"/>
<path d="M381.772 275.897H353.988C352.894 275.897 352 275.012 352 273.909C352 272.815 352.885 271.921 353.988 271.921H381.772C382.866 271.921 383.76 272.806 383.76 273.909C383.76 275.003 382.866 275.897 381.772 275.897Z" fill="#66D6A0"/>
<g filter="url(#filter2_d_93_2040)">
<path d="M187.918 84.08L196 82.5598V75.3135L187.918 73.92C187.297 70.943 186.119 68.156 184.497 65.6857L189.134 58.8828L184.003 53.7522L177.302 58.4901C174.831 56.8686 172.057 55.7031 169.067 55.0823L167.547 47H160.301L158.907 55.0823C155.93 55.7031 153.143 56.8812 150.673 58.5028L143.883 53.8662L138.752 58.9968L143.49 65.6983C141.869 68.1686 140.703 70.9557 140.082 73.9327L132 75.4529V82.6991L140.082 84.0926C140.703 87.0823 141.881 89.8567 143.503 92.327L138.866 99.1172L143.997 104.248L150.711 99.5099C153.181 101.131 155.968 102.31 158.945 102.918L160.466 111H167.712L169.105 102.918C172.095 102.297 174.869 101.119 177.34 99.4972L184.13 104.134L189.26 99.0032L184.523 92.3017C186.131 89.844 187.297 87.0697 187.918 84.08ZM164 94.0119C155.715 94.0119 149.001 87.285 149.001 79.0127C149.001 70.7403 155.715 64.0135 164 64.0135C172.285 64.0135 178.999 70.7276 178.999 79.0127C178.999 87.2977 172.285 94.0119 164 94.0119Z" fill="#276ED8"/>
</g>
<g filter="url(#filter3_d_93_2040)">
<path d="M405.687 207.322L411.544 209.375L414.281 204.649L409.523 200.688C410.239 198.508 410.525 196.233 410.398 194.022L416 191.333L414.584 186.051L408.424 186.623C407.422 184.635 406.037 182.821 404.334 181.294L406.387 175.439L401.66 172.702L397.698 177.459C395.517 176.743 393.241 176.457 391.029 176.584L388.34 171L383.056 172.416L383.629 178.589C381.639 179.591 379.825 180.975 378.297 182.678L372.44 180.625L369.703 185.351L374.462 189.312C373.745 191.508 373.459 193.751 373.586 195.978L368 198.667L369.416 203.949L375.591 203.377C376.594 205.365 377.963 207.179 379.682 208.706L377.629 214.561L382.355 217.298L386.318 212.541C388.515 213.257 390.759 213.543 392.987 213.416L395.676 219L400.96 217.584L400.387 211.411C402.345 210.425 404.159 209.056 405.687 207.322ZM386.318 204.793C380.907 201.674 379.061 194.753 382.18 189.344C385.3 183.935 392.223 182.089 397.634 185.207C403.045 188.326 404.891 195.247 401.772 200.656C398.653 206.065 391.729 207.911 386.318 204.793Z" fill="#84B5FF"/>
</g>
<defs>
<filter id="filter0_d_93_2040" x="195" y="202" width="132" height="132" filterUnits="userSpaceOnUse" color-interpolation-filters="sRGB">
<feFlood flood-opacity="0" result="BackgroundImageFix"/>
<feColorMatrix in="SourceAlpha" type="matrix" values="0 0 0 0 0 0 0 0 0 0 0 0 0 0 0 0 0 0 127 0" result="hardAlpha"/>
<feMorphology radius="3" operator="dilate" in="SourceAlpha" result="effect1_dropShadow_93_2040"/>
<feOffset dx="5" dy="5"/>
<feGaussianBlur stdDeviation="4"/>
<feColorMatrix type="matrix" values="0 0 0 0 0 0 0 0 0 0 0 0 0 0 0 0 0 0 0.2 0"/>
<feBlend mode="normal" in2="BackgroundImageFix" result="effect1_dropShadow_93_2040"/>
<feBlend mode="normal" in="SourceGraphic" in2="effect1_dropShadow_93_2040" result="shape"/>
</filter>
<filter id="filter1_d_93_2040" x="82" y="159" width="87.6797" height="86.5474" filterUnits="userSpaceOnUse" color-interpolation-filters="sRGB">
<feFlood flood-opacity="0" result="BackgroundImageFix"/>
<feColorMatrix in="SourceAlpha" type="matrix" values="0 0 0 0 0 0 0 0 0 0 0 0 0 0 0 0 0 0 127 0" result="hardAlpha"/>
<feMorphology radius="3" operator="dilate" in="SourceAlpha" result="effect1_dropShadow_93_2040"/>
<feOffset dx="5" dy="5"/>
<feGaussianBlur stdDeviation="4"/>
<feColorMatrix type="matrix" values="0 0 0 0 0 0 0 0 0 0 0 0 0 0 0 0 0 0 0.2 0"/>
<feBlend mode="normal" in2="BackgroundImageFix" result="effect1_dropShadow_93_2040"/>
<feBlend mode="normal" in="SourceGraphic" in2="effect1_dropShadow_93_2040" result="shape"/>
</filter>
<filter id="filter2_d_93_2040" x="122" y="41" width="84" height="84" filterUnits="userSpaceOnUse" color-interpolation-filters="sRGB">
<feFlood flood-opacity="0" result="BackgroundImageFix"/>
<feColorMatrix in="SourceAlpha" type="matrix" values="0 0 0 0 0 0 0 0 0 0 0 0 0 0 0 0 0 0 127 0" result="hardAlpha"/>
<feOffset dy="4"/>
<feGaussianBlur stdDeviation="5"/>
<feColorMatrix type="matrix" values="0 0 0 0 0.0885677 0 0 0 0 0.0395834 0 0 0 0 0.395833 0 0 0 0.25 0"/>
<feBlend mode="normal" in2="BackgroundImageFix" result="effect1_dropShadow_93_2040"/>
<feBlend mode="normal" in="SourceGraphic" in2="effect1_dropShadow_93_2040" result="shape"/>
</filter>
<filter id="filter3_d_93_2040" x="358" y="165" width="68" height="68" filterUnits="userSpaceOnUse" color-interpolation-filters="sRGB">
<feFlood flood-opacity="0" result="BackgroundImageFix"/>
<feColorMatrix in="SourceAlpha" type="matrix" values="0 0 0 0 0 0 0 0 0 0 0 0 0 0 0 0 0 0 127 0" result="hardAlpha"/>
<feOffset dy="4"/>
<feGaussianBlur stdDeviation="5"/>
<feColorMatrix type="matrix" values="0 0 0 0 0.0885677 0 0 0 0 0.0395834 0 0 0 0 0.395833 0 0 0 0.25 0"/>
<feBlend mode="normal" in2="BackgroundImageFix" result="effect1_dropShadow_93_2040"/>
<feBlend mode="normal" in="SourceGraphic" in2="effect1_dropShadow_93_2040" result="shape"/>
</filter>
</defs>
</svg>
