<svg width="535" height="409" viewBox="0 0 535 409" fill="none" xmlns="http://www.w3.org/2000/svg">
<path opacity="0.04" d="M201.456 351.865C293.017 373.366 443.374 344.008 494.967 294.094C546.559 244.18 495.373 188.126 459.534 167.484C448.382 161.1 435.809 156.518 426.843 147.631C407.268 128.169 401.146 96.4403 376.433 82.9698C355.058 71.3024 329.116 83.1525 305.215 76.564C294.782 73.7508 277.932 61.0741 260.212 58.7817C221.021 53.7115 124.631 89.4508 112.734 123.452C100.836 157.453 76.0769 322.423 201.456 351.865Z" fill="#276ED8"/>
<path opacity="0.2" d="M356.75 196.692L369 194.387V183.405L356.75 181.293C355.809 176.781 354.024 172.557 351.566 168.813L358.593 158.502L350.817 150.726L340.66 157.907C336.916 155.449 332.711 153.683 328.18 152.742L325.876 140.492H314.893L312.781 152.742C308.269 153.683 304.045 155.468 300.301 157.926L290.01 150.899L282.234 158.675L289.415 168.832C286.957 172.576 285.191 176.8 284.25 181.312L272 183.616V194.599L284.25 196.711C285.191 201.242 286.976 205.447 289.434 209.191L282.407 219.482L290.183 227.258L300.359 220.077C304.103 222.535 308.327 224.321 312.839 225.242L315.143 237.492H326.126L328.238 225.242C332.769 224.302 336.974 222.516 340.718 220.058L351.009 227.086L358.785 219.309L351.605 209.153C354.043 205.428 355.809 201.223 356.75 196.692ZM320.5 211.745C307.943 211.745 297.767 201.549 297.767 189.011C297.767 176.474 307.943 166.278 320.5 166.278C333.057 166.278 343.233 176.454 343.233 189.011C343.233 201.568 333.057 211.745 320.5 211.745Z" fill="#84B5FF"/>
<path d="M81.5596 148.812V251.282C81.5596 256.382 85.6996 260.522 90.7996 260.522H228.6C233.7 260.522 237.84 256.382 237.84 251.282V148.812C237.84 143.712 233.7 139.572 228.6 139.572H90.7896C85.6896 139.582 81.5596 143.712 81.5596 148.812ZM228.73 255.782H165.2L90.9996 255.492C89.1096 255.492 87.2496 254.252 87.2496 252.362V147.732C87.2496 145.842 88.7796 144.312 90.6696 144.312H228.73C230.62 144.312 232.15 145.842 232.15 147.732V252.362C232.15 254.252 230.62 255.782 228.73 255.782Z" fill="#66D6A0"/>
<path d="M370.91 258.492C359.36 258.492 350 267.852 350 279.402C350 290.952 359.36 300.312 370.91 300.312C382.46 300.312 391.82 290.952 391.82 279.402C391.82 267.852 382.46 258.492 370.91 258.492ZM370.91 295.102C362.23 295.102 355.2 288.072 355.2 279.392C355.2 270.712 362.23 263.682 370.91 263.682C379.59 263.682 386.62 270.712 386.62 279.392C386.62 288.072 379.59 295.102 370.91 295.102Z" fill="#66D6A0"/>
<path d="M325.669 197.302V330.292C325.669 333.712 322.899 336.482 319.479 336.482H116.679C113.259 336.482 110.489 333.712 110.489 330.292V197.302C110.489 189.412 116.889 183.002 124.789 183.002H311.369C319.269 183.002 325.669 189.412 325.669 197.302Z" fill="white" stroke="#84B5FF" stroke-miterlimit="10"/>
<path d="M325.669 197.302V197.902H110.489V197.302C110.489 189.412 116.889 183.002 124.789 183.002H311.369C319.269 183.002 325.669 189.412 325.669 197.302Z" fill="#84B5FF"/>
<path opacity="0.1" d="M325.669 307.832V330.292C325.669 333.712 322.899 336.482 319.479 336.482H116.679C113.259 336.482 110.489 333.712 110.489 330.292V307.832H325.669Z" fill="#84B5FF"/>
<path d="M292.99 191.142C292.99 192.172 292.16 193.002 291.13 193.002C290.1 193.002 289.27 192.172 289.27 191.142C289.27 190.112 290.1 189.282 291.13 189.282C292.15 189.282 292.99 190.112 292.99 191.142Z" fill="#84B5FF"/>
<path d="M303.169 191.142C303.169 192.172 302.339 193.002 301.309 193.002C300.279 193.002 299.449 192.172 299.449 191.142C299.449 190.112 300.279 189.282 301.309 189.282C302.329 189.282 303.169 190.112 303.169 191.142Z" fill="#84B5FF"/>
<path d="M312.9 191.142C312.9 192.172 312.07 193.002 311.04 193.002C310.01 193.002 309.18 192.172 309.18 191.142C309.18 190.112 310.01 189.282 311.04 189.282C312.07 189.282 312.9 190.112 312.9 191.142Z" fill="#84B5FF"/>
<path opacity="0.1" d="M325.999 197.747V330.322C325.999 333.731 323.231 336.492 319.814 336.492H117.184C113.767 336.492 110.999 333.731 110.999 330.322V197.747C110.999 189.882 117.394 183.492 125.287 183.492H311.711C319.604 183.492 325.999 189.882 325.999 197.747Z" stroke="#276ED8" stroke-miterlimit="10"/>
<g filter="url(#filter0_d_93_1932)">
<path d="M134.918 341.08L143 339.56V332.314L134.918 330.92C134.297 327.943 133.119 325.156 131.497 322.686L136.134 315.883L131.003 310.752L124.302 315.49C121.831 313.869 119.057 312.703 116.067 312.082L114.547 304H107.301L105.907 312.082C102.93 312.703 100.143 313.881 97.673 315.503L90.8828 310.866L85.7522 315.997L90.4901 322.698C88.8686 325.169 87.7031 327.956 87.0823 330.933L79 332.453V339.699L87.0823 341.093C87.7031 344.082 88.8812 346.857 90.5028 349.327L85.8662 356.117L90.9968 361.248L97.711 356.51C100.181 358.131 102.968 359.31 105.945 359.918L107.466 368H114.712L116.105 359.918C119.095 359.297 121.869 358.119 124.34 356.497L131.13 361.134L136.26 356.003L131.523 349.302C133.131 346.844 134.297 344.07 134.918 341.08ZM111 351.012C102.715 351.012 96.0008 344.285 96.0008 336.013C96.0008 327.74 102.715 321.013 111 321.013C119.285 321.013 125.999 327.728 125.999 336.013C125.999 344.298 119.285 351.012 111 351.012Z" fill="#84B5FF"/>
</g>
<g filter="url(#filter1_d_93_1932)">
<path d="M47.687 280.322L53.5437 282.375L56.2811 277.649L51.5225 273.688C52.2387 271.508 52.5252 269.233 52.3978 267.022L58 264.333L56.5835 259.051L50.4244 259.623C49.4217 257.635 48.0371 255.821 46.3342 254.294L48.3873 248.439L43.6605 245.702L39.6976 250.459C37.5172 249.743 35.2414 249.457 33.0292 249.584L30.3395 244L25.0557 245.416L25.6287 251.589C23.6393 252.591 21.8249 253.975 20.2971 255.678L14.4403 253.625L11.7029 258.351L16.4615 262.312C15.7454 264.508 15.4589 266.751 15.5862 268.978L10 271.667L11.4164 276.949L17.5915 276.377C18.5941 278.365 19.9629 280.179 21.6817 281.706L19.6286 287.561L24.3554 290.298L28.3183 285.541C30.5146 286.257 32.7586 286.543 34.9868 286.416L37.6764 292L42.9602 290.584L42.3873 284.411C44.3448 283.425 46.1591 282.056 47.687 280.322ZM28.3183 277.793C22.9072 274.674 21.061 267.753 24.1804 262.344C27.2997 256.935 34.2228 255.089 39.6339 258.207C45.0451 261.326 46.8912 268.247 43.7719 273.656C40.6525 279.065 33.7295 280.911 28.3183 277.793Z" fill="#276ED8"/>
</g>
<rect x="109" y="255.492" width="21" height="5" fill="#66D6A0"/>
<g filter="url(#filter2_d_93_1932)">
<rect x="129" y="224" width="138" height="61.64" rx="6" fill="#06B25F"/>
</g>
<path d="M176.396 266.739L169.34 254.802L176.396 242.865L179.798 254.802L176.396 266.739ZM160.691 265.574L151.825 256.731H165.938L172.995 268.668L160.691 265.574ZM160.691 243.993L172.959 240.899L165.902 252.837H151.789L160.691 243.993ZM178.712 235.04L162.681 239.225L160.293 243.338L155.481 243.301L143.72 254.802L155.481 266.302L160.293 266.266L162.681 270.378L178.712 274.6L183.018 258.914L180.594 254.838L183.018 250.762L178.712 235.04ZM215.116 246.65C212.981 246.65 211.533 247.559 210.448 249.234H210.376V247.086H206.612V262.881H210.448V253.928C210.448 251.781 211.787 250.289 213.632 250.289C215.369 250.289 216.672 251.345 216.672 253.201V262.918H220.508V252.582C220.544 249.124 218.373 246.65 215.116 246.65ZM200.786 256.221C200.786 258.332 199.592 259.788 197.638 259.788C195.865 259.788 194.743 258.769 194.743 256.913V247.086H190.907V257.64C190.907 261.098 192.861 263.354 196.371 263.354C198.579 263.354 199.809 262.517 200.859 261.062H200.967V262.918H204.658V247.086H200.822V256.221H200.786ZM222.571 247.086H226.406V262.881H222.571V247.086ZM222.571 242.173H226.406V245.34H222.571V242.173ZM248.154 247.086L245.875 254.219C245.368 255.675 244.97 257.677 244.97 257.677H244.861C244.861 257.677 244.355 255.675 243.848 254.219L241.279 247.086H237.154L241.387 258.332C242.292 260.734 242.582 261.753 242.582 262.626C242.582 263.936 241.894 264.774 240.266 264.774H238.782V268.085H241.243C244.427 268.085 245.549 266.812 246.743 263.318L252.28 247.123H248.154V247.086ZM233.571 258.259V249.889H236.032V247.123H233.571V242.173H229.736V247.086H227.564V249.852H229.736V259.132C229.736 262.117 231.979 262.918 234.005 262.918C235.67 262.918 236.104 262.845 236.104 262.845V259.788H235.127C234.222 259.824 233.571 259.424 233.571 258.259Z" fill="white"/>
<defs>
<filter id="filter0_d_93_1932" x="69" y="298" width="84" height="84" filterUnits="userSpaceOnUse" color-interpolation-filters="sRGB">
<feFlood flood-opacity="0" result="BackgroundImageFix"/>
<feColorMatrix in="SourceAlpha" type="matrix" values="0 0 0 0 0 0 0 0 0 0 0 0 0 0 0 0 0 0 127 0" result="hardAlpha"/>
<feOffset dy="4"/>
<feGaussianBlur stdDeviation="5"/>
<feColorMatrix type="matrix" values="0 0 0 0 0.0885677 0 0 0 0 0.0395834 0 0 0 0 0.395833 0 0 0 0.25 0"/>
<feBlend mode="normal" in2="BackgroundImageFix" result="effect1_dropShadow_93_1932"/>
<feBlend mode="normal" in="SourceGraphic" in2="effect1_dropShadow_93_1932" result="shape"/>
</filter>
<filter id="filter1_d_93_1932" x="0" y="238" width="68" height="68" filterUnits="userSpaceOnUse" color-interpolation-filters="sRGB">
<feFlood flood-opacity="0" result="BackgroundImageFix"/>
<feColorMatrix in="SourceAlpha" type="matrix" values="0 0 0 0 0 0 0 0 0 0 0 0 0 0 0 0 0 0 127 0" result="hardAlpha"/>
<feOffset dy="4"/>
<feGaussianBlur stdDeviation="5"/>
<feColorMatrix type="matrix" values="0 0 0 0 0.0885677 0 0 0 0 0.0395834 0 0 0 0 0.395833 0 0 0 0.25 0"/>
<feBlend mode="normal" in2="BackgroundImageFix" result="effect1_dropShadow_93_1932"/>
<feBlend mode="normal" in="SourceGraphic" in2="effect1_dropShadow_93_1932" result="shape"/>
</filter>
<filter id="filter2_d_93_1932" x="125" y="220" width="152" height="75.6399" filterUnits="userSpaceOnUse" color-interpolation-filters="sRGB">
<feFlood flood-opacity="0" result="BackgroundImageFix"/>
<feColorMatrix in="SourceAlpha" type="matrix" values="0 0 0 0 0 0 0 0 0 0 0 0 0 0 0 0 0 0 127 0" result="hardAlpha"/>
<feMorphology radius="1" operator="dilate" in="SourceAlpha" result="effect1_dropShadow_93_1932"/>
<feOffset dx="3" dy="3"/>
<feGaussianBlur stdDeviation="3"/>
<feColorMatrix type="matrix" values="0 0 0 0 0 0 0 0 0 0 0 0 0 0 0 0 0 0 0.2 0"/>
<feBlend mode="normal" in2="BackgroundImageFix" result="effect1_dropShadow_93_1932"/>
<feBlend mode="normal" in="SourceGraphic" in2="effect1_dropShadow_93_1932" result="shape"/>
</filter>
</defs>
</svg>
