<svg width="481" height="428" viewBox="0 0 481 428" fill="none" xmlns="http://www.w3.org/2000/svg">
<path opacity="0.04" d="M99.5866 343.146C165.874 400.505 249.105 409.236 310.009 381.181C370.913 353.125 363.827 312.389 342.523 278.036C335.879 267.386 451.108 270.622 455.509 229C459.91 187.378 426.121 174.603 426.121 174.603C426.121 174.603 303.951 138.832 287.018 122.909C279.603 116.02 254.568 49.3408 180.178 21.5306C116.607 -2.23494 63.9495 42.4952 45.8273 91.4057C27.7052 140.316 8.81609 264.602 99.5866 343.146Z" fill="#276ED8"/>
<path opacity="0.2" d="M450.152 146.487L461.593 144.335V134.078L450.152 132.106C449.273 127.892 447.606 123.947 445.31 120.45L451.874 110.82L444.611 103.558L435.125 110.264C431.628 107.969 427.701 106.319 423.469 105.441L421.317 94H411.06L409.088 105.441C404.874 106.319 400.929 107.987 397.432 110.282L387.82 103.719L380.558 110.982L387.264 120.468C384.969 123.964 383.319 127.91 382.441 132.124L371 134.275V144.533L382.441 146.505C383.319 150.737 384.987 154.664 387.282 158.161L380.719 167.772L387.982 175.035L397.486 168.328C400.982 170.624 404.927 172.291 409.141 173.152L411.293 184.593H421.55L423.523 173.152C427.755 172.273 431.682 170.606 435.179 168.31L444.79 174.874L452.053 167.611L445.346 158.125C447.624 154.646 449.273 150.719 450.152 146.487ZM416.296 160.546C404.569 160.546 395.065 151.024 395.065 139.314C395.065 127.605 404.569 118.083 416.296 118.083C428.024 118.083 437.528 127.587 437.528 139.314C437.528 151.042 428.024 160.546 416.296 160.546Z" fill="#84B5FF"/>
<path d="M262.845 210.602V309.419C262.845 314.337 266.846 318.329 271.776 318.329H394.333C399.262 318.329 403.264 314.337 403.264 309.419V210.602C403.264 205.683 399.262 201.691 394.333 201.691H271.766C266.837 201.701 262.845 205.683 262.845 210.602ZM394.458 313.758H333.054H271.65C269.823 313.758 268.344 312.283 268.344 310.46V209.56C268.344 207.737 269.823 206.262 271.65 206.262H394.458C396.285 206.262 397.764 207.737 397.764 209.56V310.46C397.764 312.283 396.285 313.758 394.458 313.758Z" fill="#66D6A0"/>
<path d="M326.033 36.7075C312.954 36.7075 302.354 47.3069 302.354 60.3862C302.354 73.4655 312.954 84.0649 326.033 84.0649C339.113 84.0649 349.712 73.4655 349.712 60.3862C349.712 47.3069 339.113 36.7075 326.033 36.7075ZM326.033 78.165C316.204 78.165 308.243 70.2042 308.243 60.3749C308.243 50.5456 316.204 42.5847 326.033 42.5847C335.862 42.5847 343.823 50.5456 343.823 60.3749C343.823 70.2042 335.862 78.165 326.033 78.165Z" fill="#66D6A0"/>
<path d="M355.328 129.001V279.6C355.328 283.473 352.191 286.61 348.319 286.61H118.666C114.793 286.61 111.656 283.473 111.656 279.6V129.001C111.656 120.066 118.904 112.808 127.85 112.808H339.135C348.081 112.808 355.328 120.066 355.328 129.001Z" fill="white" stroke="#84B5FF" stroke-miterlimit="10"/>
<path d="M224.501 148.832H197.169V151.128H224.501V148.832Z" fill="#84B5FF"/>
<path d="M256.56 148.832H229.228V151.128H256.56V148.832Z" fill="#06B25F"/>
<path d="M247.997 161.227H205.613V163.524H247.997V161.227Z" fill="#276ED8"/>
<path d="M276.536 161.227H254.998V163.524H276.536V161.227Z" fill="#84B5FF"/>
<path d="M238.918 173.607H220.308V175.904H238.918V173.607Z" fill="#06B25F"/>
<path d="M311.423 173.607H249.678V175.904H311.423V173.607Z" fill="#06B25F"/>
<path d="M305.331 185.997H234.765V188.294H305.331V185.997Z" fill="#276ED8"/>
<path d="M238.84 198.376H217.124V200.673H238.84V198.376Z" fill="#84B5FF"/>
<path d="M269.85 198.376H248.134V200.673H269.85V198.376Z" fill="#276ED8"/>
<path d="M228.753 262.651H197.168V264.948H228.753V262.651Z" fill="#84B5FF"/>
<path d="M271.392 262.651H239.808V264.948H271.392V262.651Z" fill="#06B25F"/>
<path d="M312.906 262.651H281.321V264.948H312.906V262.651Z" fill="#84B5FF"/>
<path d="M267.359 250.252H205.613V252.549H267.359V250.252Z" fill="#276ED8"/>
<path d="M338.715 250.252H276.97V252.549H338.715V250.252Z" fill="#84B5FF"/>
<path d="M281.579 237.875H220.309V240.172H281.579V237.875Z" fill="#84B5FF"/>
<path d="M303.966 237.875H286.918V240.172H303.966V237.875Z" fill="#06B25F"/>
<path d="M239.373 225.481H216.312V227.778H239.373V225.481Z" fill="#06B25F"/>
<path d="M274.676 225.481H251.615V227.778H274.676V225.481Z" fill="#276ED8"/>
<path d="M312.59 225.481H289.529V227.778H312.59V225.481Z" fill="#84B5FF"/>
<path d="M275.388 213.107H243.052V215.404H275.388V213.107Z" fill="#06B25F"/>
<path d="M230.849 213.107H198.513V215.404H230.849V213.107Z" fill="#276ED8"/>
<path d="M189.553 146.635H186.606V149.586H189.553V146.635Z" fill="#84B5FF"/>
<path d="M189.553 254.631H186.606V248.631H189.553V254.631ZM189.553 239.621H186.606V233.622H189.553V239.621ZM189.553 224.612H186.606V218.612H189.553V224.612ZM189.553 209.603H186.606V203.603H189.553V209.603ZM189.553 194.593H186.606V188.594H189.553V194.593ZM189.553 179.584H186.606V173.584H189.553V179.584ZM189.553 164.575H186.606V158.575H189.553V164.575Z" fill="#84B5FF"/>
<path d="M189.554 263.639H186.607V266.589H189.554V263.639Z" fill="#84B5FF"/>
<path opacity="0.7" d="M111.102 130.687C111.102 127.373 113.788 124.687 117.102 124.687H174.516V286.622H117.102C113.788 286.622 111.102 283.935 111.102 280.622V130.687Z" fill="#84B5FF"/>
<path d="M143.505 151.099H116.173V153.396H143.505V151.099Z" fill="#06B25F"/>
<path d="M164.426 165.134H122.043V167.431H164.426V165.134Z" fill="#84B5FF"/>
<path d="M164.426 179.172H122.043V181.469H164.426V179.172Z" fill="#84B5FF"/>
<path d="M164.426 193.209H122.043V195.506H164.426V193.209Z" fill="#84B5FF"/>
<path d="M164.426 207.243H122.043V209.54H164.426V207.243Z" fill="#84B5FF"/>
<path d="M166.626 235.314H124.243V237.611H166.626V235.314Z" fill="#84B5FF"/>
<path d="M166.626 249.353H124.243V251.65H166.626V249.353Z" fill="#84B5FF"/>
<path d="M166.626 263.385H124.243V265.682H166.626V263.385Z" fill="#84B5FF"/>
<path d="M143.505 221.278H116.173V223.575H143.505V221.278Z" fill="#06B25F"/>
<path d="M355.328 129.001V129.681H111.656V129.001C111.656 120.066 118.904 112.808 127.85 112.808H339.135C348.081 112.808 355.328 120.066 355.328 129.001Z" fill="#84B5FF"/>
<path opacity="0.3" d="M318.322 122.026C318.322 123.193 317.382 124.132 316.216 124.132C315.049 124.132 314.109 123.193 314.109 122.026C314.109 120.86 315.049 119.92 316.216 119.92C317.371 119.92 318.322 120.86 318.322 122.026Z" fill="white"/>
<path opacity="0.3" d="M329.849 122.026C329.849 123.192 328.909 124.132 327.743 124.132C326.577 124.132 325.637 123.192 325.637 122.026C325.637 120.859 326.577 119.919 327.743 119.919C328.898 119.919 329.849 120.859 329.849 122.026Z" fill="white"/>
<path opacity="0.3" d="M340.869 122.026C340.869 123.192 339.929 124.132 338.763 124.132C337.596 124.132 336.656 123.192 336.656 122.026C336.656 120.859 337.596 119.919 338.763 119.919C339.929 119.919 340.869 120.859 340.869 122.026Z" fill="white"/>
<path d="M355.328 129.001V279.6C355.328 283.473 352.191 286.61 348.319 286.61H118.666C114.793 286.61 111.656 283.473 111.656 279.6V129.001C111.656 120.066 118.904 112.808 127.85 112.808H339.135C348.081 112.808 355.328 120.066 355.328 129.001Z" stroke="#84B5FF" stroke-miterlimit="10"/>
<g filter="url(#filter0_d_88_1570)">
<path d="M211.615 296.32L224.343 293.926V282.515L211.615 280.321C210.638 275.633 208.782 271.244 206.229 267.354L213.53 256.641L205.451 248.561L194.898 256.022C191.008 253.469 186.639 251.633 181.931 250.656L179.537 237.928H168.126L165.931 250.656C161.243 251.633 156.854 253.489 152.964 256.042L142.271 248.741L134.192 256.82L141.653 267.374C139.099 271.264 137.264 275.653 136.286 280.341L123.559 282.735V294.146L136.286 296.34C137.264 301.048 139.119 305.417 141.673 309.307L134.371 320L142.451 328.08L153.024 320.619C156.914 323.172 161.303 325.027 165.991 325.985L168.385 338.713H179.796L181.99 325.985C186.698 325.007 191.067 323.152 194.958 320.599L205.65 327.9L213.73 319.821L206.269 309.267C208.802 305.397 210.638 301.028 211.615 296.32ZM173.951 311.961C160.904 311.961 150.331 301.367 150.331 288.34C150.331 275.313 160.904 264.72 173.951 264.72C186.998 264.72 197.571 275.293 197.571 288.34C197.571 301.387 186.998 311.961 173.951 311.961Z" fill="#276ED8"/>
</g>
<g filter="url(#filter1_d_88_1570)">
<path d="M265.887 365.123L272.519 367.447L275.619 362.096L270.23 357.61C271.041 355.142 271.366 352.565 271.222 350.061L277.566 347.016L275.962 341.035L268.987 341.683C267.852 339.431 266.284 337.377 264.355 335.648L266.68 329.018L261.327 325.919L256.84 331.306C254.371 330.495 251.794 330.171 249.288 330.315L246.243 323.991L240.259 325.595L240.908 332.585C238.655 333.72 236.601 335.288 234.87 337.215L228.238 334.891L225.138 340.242L230.527 344.728C229.716 347.214 229.392 349.755 229.536 352.277L223.21 355.322L224.814 361.303L231.807 360.655C232.942 362.907 234.492 364.961 236.438 366.69L234.114 373.32L239.466 376.419L243.954 371.032C246.441 371.843 248.982 372.167 251.505 372.023L254.551 378.347L260.534 376.743L259.886 369.753C262.102 368.636 264.157 367.087 265.887 365.123ZM243.954 362.258C237.826 358.727 235.736 350.89 239.268 344.764C242.8 338.639 250.64 336.549 256.768 340.08C262.895 343.611 264.986 351.448 261.454 357.574C257.921 363.699 250.081 365.789 243.954 362.258Z" fill="#84B5FF"/>
</g>
<g filter="url(#filter2_d_88_1570)">
<rect x="87.3213" y="94.1118" width="65.6797" height="64.5473" rx="6" fill="#06B25F"/>
</g>
<path d="M109.679 137.059L94.644 128.928C93.6723 128.366 93.1865 127.496 93.1865 126.32C93.1865 125.093 93.6979 124.224 94.7207 123.712L109.679 115.504V118.496C109.679 118.701 109.602 118.982 109.449 119.34C109.295 119.647 109.065 119.877 108.758 120.03L98.0958 125.86C97.6867 126.167 97.6867 126.474 98.0958 126.781L109.679 132.994V137.059Z" fill="white"/>
<path d="M122.485 113.05H125.477L118.036 138.517C117.831 139.182 117.371 139.514 116.655 139.514H114.738L122.485 113.05Z" fill="white"/>
<path d="M130.305 115.504L145.263 123.712C146.337 124.275 146.874 125.144 146.874 126.32C146.874 127.496 146.337 128.34 145.263 128.852L130.305 137.059V134.068C130.305 133.914 130.357 133.659 130.459 133.301C130.612 132.943 130.842 132.687 131.149 132.534L141.888 126.781C142.297 126.474 142.297 126.167 141.888 125.86L130.305 119.57V115.504Z" fill="white"/>
<g filter="url(#filter3_d_88_1570)">
<rect x="308" y="135" width="113.241" height="113.241" rx="6" fill="white"/>
</g>
<path d="M343.558 177.13L343.561 210.822C343.561 213.893 346.004 216.373 349.027 216.373H350.578V229.009C350.578 231.877 353.06 234.211 355.879 234.211C358.709 234.211 361.11 231.877 361.11 229.006V216.373H368.131V229.009C368.131 231.877 370.613 234.211 373.435 234.211C376.265 234.211 378.662 231.877 378.662 229.006V216.373L380.221 216.369C383.233 216.369 385.683 213.886 385.683 210.815V177.13H343.558ZM399.725 182.378C399.725 179.506 397.285 177.13 394.459 177.13C391.633 177.126 389.194 179.509 389.194 182.381V204.165C389.194 207.04 391.63 209.238 394.459 209.238C397.285 209.238 399.725 207.044 399.725 204.165V182.378ZM340.047 182.378C340.047 179.506 337.607 177.13 334.781 177.13C331.955 177.126 329.516 179.509 329.516 182.381V204.165C329.516 207.04 331.952 209.238 334.781 209.238C337.607 209.238 340.047 207.044 340.047 204.165V182.378ZM374.98 156.292L378.28 149.66C378.518 149.189 378.213 148.589 377.707 148.589C377.476 148.589 377.251 148.725 377.132 148.964L373.8 155.664C368.426 153.035 361.359 152.767 355.444 155.664L352.109 148.964C351.993 148.725 351.768 148.589 351.533 148.589C351.028 148.589 350.722 149.189 350.961 149.66L354.261 156.292C347.784 159.981 343.558 165.51 343.558 173.559H385.683C385.683 165.51 381.457 159.981 374.98 156.292ZM355.848 166.427C354.879 166.427 354.089 165.628 354.089 164.643C354.089 163.666 354.879 162.86 355.848 162.86C356.817 162.86 357.599 163.666 357.599 164.643C357.599 165.628 356.817 166.427 355.848 166.427ZM373.393 166.427C372.424 166.427 371.641 165.628 371.641 164.643C371.641 163.666 372.424 162.86 373.393 162.86C374.362 162.86 375.152 163.666 375.152 164.643C375.152 165.628 374.362 166.427 373.393 166.427Z" fill="#06B25F"/>
<defs>
<filter id="filter0_d_88_1570" x="113.559" y="231.928" width="120.784" height="120.785" filterUnits="userSpaceOnUse" color-interpolation-filters="sRGB">
<feFlood flood-opacity="0" result="BackgroundImageFix"/>
<feColorMatrix in="SourceAlpha" type="matrix" values="0 0 0 0 0 0 0 0 0 0 0 0 0 0 0 0 0 0 127 0" result="hardAlpha"/>
<feOffset dy="4"/>
<feGaussianBlur stdDeviation="5"/>
<feColorMatrix type="matrix" values="0 0 0 0 0.0885677 0 0 0 0 0.0395834 0 0 0 0 0.395833 0 0 0 0.25 0"/>
<feBlend mode="normal" in2="BackgroundImageFix" result="effect1_dropShadow_88_1570"/>
<feBlend mode="normal" in="SourceGraphic" in2="effect1_dropShadow_88_1570" result="shape"/>
</filter>
<filter id="filter1_d_88_1570" x="213.21" y="317.991" width="74.3555" height="74.3555" filterUnits="userSpaceOnUse" color-interpolation-filters="sRGB">
<feFlood flood-opacity="0" result="BackgroundImageFix"/>
<feColorMatrix in="SourceAlpha" type="matrix" values="0 0 0 0 0 0 0 0 0 0 0 0 0 0 0 0 0 0 127 0" result="hardAlpha"/>
<feOffset dy="4"/>
<feGaussianBlur stdDeviation="5"/>
<feColorMatrix type="matrix" values="0 0 0 0 0.0885677 0 0 0 0 0.0395834 0 0 0 0 0.395833 0 0 0 0.25 0"/>
<feBlend mode="normal" in2="BackgroundImageFix" result="effect1_dropShadow_88_1570"/>
<feBlend mode="normal" in="SourceGraphic" in2="effect1_dropShadow_88_1570" result="shape"/>
</filter>
<filter id="filter2_d_88_1570" x="81.3213" y="88.1118" width="87.6797" height="86.5474" filterUnits="userSpaceOnUse" color-interpolation-filters="sRGB">
<feFlood flood-opacity="0" result="BackgroundImageFix"/>
<feColorMatrix in="SourceAlpha" type="matrix" values="0 0 0 0 0 0 0 0 0 0 0 0 0 0 0 0 0 0 127 0" result="hardAlpha"/>
<feMorphology radius="3" operator="dilate" in="SourceAlpha" result="effect1_dropShadow_88_1570"/>
<feOffset dx="5" dy="5"/>
<feGaussianBlur stdDeviation="4"/>
<feColorMatrix type="matrix" values="0 0 0 0 0 0 0 0 0 0 0 0 0 0 0 0 0 0 0.2 0"/>
<feBlend mode="normal" in2="BackgroundImageFix" result="effect1_dropShadow_88_1570"/>
<feBlend mode="normal" in="SourceGraphic" in2="effect1_dropShadow_88_1570" result="shape"/>
</filter>
<filter id="filter3_d_88_1570" x="302" y="129" width="135.241" height="135.241" filterUnits="userSpaceOnUse" color-interpolation-filters="sRGB">
<feFlood flood-opacity="0" result="BackgroundImageFix"/>
<feColorMatrix in="SourceAlpha" type="matrix" values="0 0 0 0 0 0 0 0 0 0 0 0 0 0 0 0 0 0 127 0" result="hardAlpha"/>
<feMorphology radius="3" operator="dilate" in="SourceAlpha" result="effect1_dropShadow_88_1570"/>
<feOffset dx="5" dy="5"/>
<feGaussianBlur stdDeviation="4"/>
<feColorMatrix type="matrix" values="0 0 0 0 0 0 0 0 0 0 0 0 0 0 0 0 0 0 0.2 0"/>
<feBlend mode="normal" in2="BackgroundImageFix" result="effect1_dropShadow_88_1570"/>
<feBlend mode="normal" in="SourceGraphic" in2="effect1_dropShadow_88_1570" result="shape"/>
</filter>
</defs>
</svg>
