<svg width="646" height="505" viewBox="0 0 646 505" fill="none" xmlns="http://www.w3.org/2000/svg">
<path opacity="0.12" d="M75.5753 16.8483C37.6846 26.1357 14.4686 64.6807 22.3461 96.8194C25.4707 109.567 36.3601 124.272 36.3601 124.272L31.9005 165.52L69.5618 140.845C81.9244 144.286 96.7369 144.27 110.713 140.845C148.604 131.557 167.663 95.2626 159.787 63.1312C151.911 30.9999 113.466 7.56089 75.5753 16.8483Z" fill="#276ED8"/>
<path opacity="0.12" d="M142.5 310H34.5C27.075 310 21.0675 316.075 21.0675 323.5L21 404.5C21 411.925 27.075 418 34.5 418H142.5C149.925 418 156 411.925 156 404.5V323.5C156 316.075 149.925 310 142.5 310ZM142.5 337L88.5 370.75L34.5 337V323.5L88.5 357.25L142.5 323.5V337Z" fill="#276ED8"/>
<g opacity="0.12">
<path d="M621.618 10H522.382C514.992 10 509 15.9752 509 23.3498V188.088V225.672C509 233.104 515.055 239.022 522.382 239.022H621.618C629.006 239.022 635 233.049 635 225.672V60.9335V23.3498C635 15.9099 628.937 10 621.618 10Z" fill="#276ED8"/>
<path d="M628.515 28.1938H515.489V220.827H628.515V28.1938Z" fill="white"/>
<path d="M595.303 22.1406H548.883C548.346 22.1406 547.91 21.7076 547.91 21.1703V20.6964C547.91 20.1612 548.344 19.7261 548.883 19.7261H595.303C595.84 19.7261 596.276 20.1591 596.276 20.6964V21.1703C596.274 21.7055 595.84 22.1406 595.303 22.1406Z" fill="white"/>
<path d="M628.515 209.434H515.489V220.829H628.515V209.434Z" fill="#84B5FF"/>
<path d="M628.515 28.1938H515.489V38.4161H628.515V28.1938Z" fill="#84B5FF"/>
</g>
</svg>
