<svg width="625" height="464" viewBox="0 0 625 464" fill="none" xmlns="http://www.w3.org/2000/svg">
<path opacity="0.12" d="M83.5753 31.8483C45.6846 41.1357 22.4686 79.6807 30.3461 111.819C33.4707 124.567 44.3601 139.272 44.3601 139.272L39.9005 180.52L77.5618 155.845C89.9244 159.286 104.737 159.27 118.713 155.845C156.604 146.557 175.663 110.263 167.787 78.1312C159.911 45.9999 121.466 22.5609 83.5753 31.8483Z" fill="#276ED8"/>
<path opacity="0.12" d="M150.5 306H42.5C35.075 306 29.0675 312.075 29.0675 319.5L29 400.5C29 407.925 35.075 414 42.5 414H150.5C157.925 414 164 407.925 164 400.5V319.5C164 312.075 157.925 306 150.5 306ZM150.5 333L96.5 366.75L42.5 333V319.5L96.5 353.25L150.5 319.5V333Z" fill="#276ED8"/>
<g opacity="0.12">
<path d="M583.618 31H484.382C476.992 31 471 36.9752 471 44.3498V209.088V246.672C471 254.104 477.055 260.022 484.382 260.022H583.618C591.006 260.022 597 254.049 597 246.672V81.9335V44.3498C597 36.9099 590.937 31 583.618 31Z" fill="#276ED8"/>
<path d="M590.515 49.1938H477.489V241.827H590.515V49.1938Z" fill="white"/>
<path d="M557.303 43.1406H510.883C510.346 43.1406 509.91 42.7076 509.91 42.1703V41.6964C509.91 41.1612 510.344 40.7261 510.883 40.7261H557.303C557.84 40.7261 558.276 41.1591 558.276 41.6964V42.1703C558.274 42.7055 557.84 43.1406 557.303 43.1406Z" fill="white"/>
<path d="M590.515 230.434H477.489V241.829H590.515V230.434Z" fill="#84B5FF"/>
<path d="M590.515 49.1938H477.489V59.4161H590.515V49.1938Z" fill="#84B5FF"/>
</g>
</svg>
