<svg width="1601" height="205" viewBox="0 0 1601 205" fill="none" xmlns="http://www.w3.org/2000/svg">
<g clip-path="url(#clip0_23738_5634)">
<path d="M102.898 125.225C-99.2501 157.088 -353.063 225.274 -353.063 225.274L-291.807 976.315C-291.807 976.315 -98.7245 1066.57 62.9428 1059.93C330.574 1048.93 516.672 889.093 784.412 872.721C1081.74 854.54 1228.09 943.86 1525.42 926.164C1704.27 915.52 1978.57 863.898 1978.57 863.898L1896.81 -68.5373C1896.81 -68.5373 1813.52 -26.654 1750.84 -9.18198C1608.29 30.553 1510.77 -11.4429 1357.48 3.92029C1081.35 31.5957 956.651 137.719 679.747 157.26C449.824 173.487 329.121 89.5679 102.898 125.225Z" fill="#194484" fill-opacity="0.07"/>
<path d="M367.359 74.7025C200.295 87.2433 -16 183.069 -16 183.069L-16.0001 739.729C-16.0001 739.729 135.54 826.189 267.895 831.527C487.001 840.364 649.486 722.371 869.038 726.828C1112.85 731.778 1226.32 814.369 1470.11 819.714C1616.75 822.93 1844 799.073 1844 799.073L1844 -24C1844 -24 1773.25 64.6213 1720.95 74.7025C1601.99 97.6293 1525.21 56.888 1399.11 59.2215C1171.96 63.425 1063.15 141.688 835.908 139.207C647.222 137.146 554.319 60.6682 367.359 74.7025Z" fill="#194484"/>
</g>
<defs>
<clipPath id="clip0_23738_5634">
<rect width="1601" height="205" fill="white"/>
</clipPath>
</defs>
</svg>
