<svg width="1601" height="205" viewBox="0 0 1601 205" fill="none" xmlns="http://www.w3.org/2000/svg">
<g clip-path="url(#clip0_23673_5567)">
<rect width="1601" height="205" fill="white"/>
<mask id="mask0_23673_5567" style="mask-type:alpha" maskUnits="userSpaceOnUse" x="1" y="-102" width="1601" height="707">
<rect x="1" y="-102" width="1601" height="707" fill="#C4C4C4"/>
</mask>
<g mask="url(#mask0_23673_5567)">
<path d="M17.5699 142.763C-184.578 174.625 -438.391 242.811 -438.391 242.811L-377.135 993.852C-377.135 993.852 -184.053 1084.11 -22.3853 1077.46C245.246 1066.47 431.344 906.631 699.084 890.259C996.407 872.078 1142.76 961.398 1440.09 943.702C1618.94 933.057 1893.24 881.436 1893.24 881.436L1811.48 -50.9997C1811.48 -50.9997 1728.19 -9.11638 1665.51 8.35562C1522.96 48.0906 1425.45 6.09467 1272.16 21.4579C996.021 49.1333 871.323 155.256 594.419 174.798C364.496 191.024 243.793 107.105 17.5699 142.763Z" fill="#194484" fill-opacity="0.07"/>
<path d="M292.359 94.7025C125.295 107.243 -91 203.069 -91 203.069L-91.0001 759.729C-91.0001 759.729 60.54 846.189 192.895 851.527C412.001 860.364 574.486 742.371 794.038 746.828C1037.85 751.778 1151.32 834.369 1395.11 839.714C1541.75 842.93 1769 819.073 1769 819.073L1769 -4C1769 -4 1698.25 84.6213 1645.95 94.7025C1526.99 117.629 1450.21 76.888 1324.11 79.2215C1096.96 83.425 988.149 161.688 760.908 159.207C572.222 157.146 479.319 80.6682 292.359 94.7025Z" fill="#194484"/>
</g>
</g>
<defs>
<clipPath id="clip0_23673_5567">
<rect width="1601" height="205" fill="white"/>
</clipPath>
</defs>
</svg>
