<svg width="1600" height="635" viewBox="0 0 1600 635" fill="none" xmlns="http://www.w3.org/2000/svg">
<mask id="mask0_93_515" style="mask-type:alpha" maskUnits="userSpaceOnUse" x="0" y="0" width="1600" height="635">
<rect width="1600" height="635" fill="#C4C4C4"/>
</mask>
<g mask="url(#mask0_93_515)">
<path d="M247.314 71.9751C80.7574 51.8805 -167.022 -26 -167.022 -26L-194 615.365C-194 615.365 239.231 512.505 525.977 512.654C741.808 512.767 880.307 528.28 1095.08 548.874C1343.61 572.705 1712.45 624.377 1712.45 624.377L1731.8 164.389C1731.8 164.389 1323.56 69.6371 1047.26 46.4251C732.382 19.9722 560.614 109.774 247.314 71.9751Z" fill="#276ED8" fill-opacity="0.1"/>
<path d="M351.122 114.697C210.657 103.696 0 47 0 47V587C0 587 359.888 485.233 600.499 475.222C781.604 467.686 898.364 475.828 1079.3 485.544C1288.68 496.786 1600 527.175 1600 527.175V139.886C1600 139.886 1254.11 74.6828 1021.45 64.9421C756.301 53.8413 615.342 135.389 351.122 114.697Z" fill="#276ED8"/>
</g>
</svg>
