<svg width="550" height="395" viewBox="0 0 550 395" fill="none" xmlns="http://www.w3.org/2000/svg">
<mask id="mask0_620_6749" style="mask-type:alpha" maskUnits="userSpaceOnUse" x="0" y="0" width="550" height="395">
<rect width="550" height="395" fill="#C4C4C4"/>
</mask>
<g mask="url(#mask0_620_6749)">
<path opacity="0.04" d="M76.537 319.542C40.1802 387.883 290.754 394.817 344.537 370.042C398.32 345.267 409.85 250.878 391.037 220.542C385.17 211.137 463.495 276.055 460.037 265.266C452.506 241.66 463.266 135.804 450.037 115.542C438.601 98.0033 328.49 129.603 313.537 115.542C306.988 109.458 239.037 23.0422 158.037 36.0422C98.8621 45.5394 21.5398 98.8506 5.53666 142.042C-10.4665 185.234 143.036 194.542 76.537 319.542Z" fill="#276ED8"/>
</g>
<path opacity="0.2" d="M191.876 178.62L204 176.34V165.47L191.876 163.38C190.945 158.914 189.178 154.734 186.746 151.029L193.701 140.824L186.005 133.128L175.952 140.235C172.247 137.803 168.085 136.055 163.601 135.124L161.321 123H150.451L148.361 135.124C143.895 136.055 139.715 137.822 136.01 140.254L125.824 133.299L118.128 140.995L125.235 151.048C122.803 154.753 121.055 158.933 120.123 163.399L108 165.679V176.549L120.123 178.639C121.055 183.124 122.822 187.285 125.254 190.991L118.299 201.176L125.995 208.872L136.067 201.765C139.772 204.197 143.952 205.964 148.418 206.876L150.698 219H161.568L163.658 206.876C168.142 205.945 172.304 204.178 176.009 201.746L186.195 208.701L193.891 201.005L186.784 190.952C189.197 187.266 190.945 183.105 191.876 178.62ZM156 193.518C143.572 193.518 133.501 183.428 133.501 171.019C133.501 158.61 143.572 148.52 156 148.52C168.428 148.52 178.499 158.591 178.499 171.019C178.499 183.447 168.428 193.518 156 193.518Z" fill="#84B5FF"/>
<path d="M338.18 161.642V269.91C338.18 272.694 335.925 274.949 333.141 274.949H168.039C165.255 274.949 163 272.694 163 269.91V161.642C163 155.218 168.21 150 174.642 150H326.538C332.97 150 338.18 155.218 338.18 161.642Z" fill="white" stroke="#84B5FF" stroke-miterlimit="10"/>
<path d="M334.89 295C323.903 295 315 303.903 315 314.89C315 325.876 323.903 334.779 334.89 334.779C345.876 334.779 354.779 325.876 354.779 314.89C354.779 303.903 345.876 295 334.89 295ZM334.89 329.823C326.633 329.823 319.946 323.136 319.946 314.88C319.946 306.624 326.633 299.937 334.89 299.937C343.146 299.937 349.833 306.624 349.833 314.88C349.833 323.136 343.146 329.823 334.89 329.823Z" fill="#66D6A0"/>
<path d="M211.772 92.976H183.988C182.894 92.976 182 92.0914 182 90.988C182 89.8941 182.885 89 183.988 89H211.772C212.866 89 213.76 89.8846 213.76 90.988C213.76 92.0819 212.866 92.976 211.772 92.976Z" fill="#66D6A0"/>
<path d="M211.772 102.897H183.988C182.894 102.897 182 102.013 182 100.909C182 99.8153 182.885 98.9211 183.988 98.9211H211.772C212.866 98.9211 213.76 99.8058 213.76 100.909C213.76 102.003 212.866 102.897 211.772 102.897Z" fill="#66D6A0"/>
<path d="M338.18 161.642V162.13H163V161.642C163 155.218 168.21 150 174.642 150H326.538C332.97 150 338.18 155.218 338.18 161.642Z" fill="#84B5FF"/>
<path opacity="0.3" d="M311.575 156.627C311.575 157.465 310.9 158.141 310.061 158.141C309.223 158.141 308.547 157.465 308.547 156.627C308.547 155.788 309.223 155.113 310.061 155.113C310.892 155.113 311.575 155.788 311.575 156.627Z" fill="white"/>
<path opacity="0.3" d="M319.862 156.627C319.862 157.465 319.187 158.141 318.348 158.141C317.51 158.141 316.834 157.465 316.834 156.627C316.834 155.788 317.51 155.113 318.348 155.113C319.179 155.113 319.862 155.788 319.862 156.627Z" fill="white"/>
<path opacity="0.3" d="M327.784 156.627C327.784 157.465 327.109 158.141 326.27 158.141C325.432 158.141 324.756 157.465 324.756 156.627C324.756 155.788 325.432 155.113 326.27 155.113C327.109 155.113 327.784 155.788 327.784 156.627Z" fill="white"/>
<path d="M338.18 161.642V269.91C338.18 272.694 335.925 274.949 333.141 274.949H168.039C165.255 274.949 163 272.694 163 269.91V161.642C163 155.218 168.21 150 174.642 150H326.538C332.97 150 338.18 155.218 338.18 161.642Z" stroke="#84B5FF" stroke-miterlimit="10"/>
<path opacity="0.5" d="M250.341 315.219C265.993 315.27 278.69 312.643 278.701 309.351C278.712 306.059 266.032 303.349 250.38 303.297C234.728 303.246 222.03 305.873 222.02 309.165C222.009 312.457 234.689 315.168 250.341 315.219Z" fill="url(#paint0_radial_620_6749)"/>
<path d="M250.828 289.047C250.838 292.587 249.593 300.986 247.077 300.558C246.533 300.468 245.882 299.919 245.186 299.064C243.061 296.474 240.479 291.108 239.021 287.432C238.228 285.426 237.76 283.922 237.892 283.64C238.675 281.91 249.892 286.894 250.619 287.538C250.751 287.664 250.828 288.222 250.828 289.047Z" fill="#84B5FF"/>
<path d="M237.888 283.64C237.029 285.27 247.224 290.208 250.742 287.855C250.742 287.855 239.026 281.478 237.888 283.64Z" fill="#276ED8"/>
<path d="M262.98 285.234C262.894 285.546 262.792 285.873 262.696 286.21C261.15 291.335 258.457 298.798 256.429 301.348C255.946 301.961 255.499 302.288 255.117 302.238C255.016 302.228 254.914 302.192 254.817 302.147C254.477 301.991 254.147 301.644 253.831 301.156V301.151C251.859 298.114 250.436 289.61 250.726 287.186C250.762 286.884 250.823 286.678 250.914 286.587C252.571 284.963 263.463 280.246 263.895 281.075C264.007 281.297 263.636 282.946 262.98 285.234Z" fill="#84B5FF"/>
<path d="M250.727 287.186C250.31 287.875 261.055 287.819 263.896 281.075C263.896 281.075 254.666 280.713 250.727 287.186Z" fill="#276ED8"/>
<path d="M233.354 213.123C233.944 213.434 233.893 214.063 232.678 213.907C231.464 213.751 230.803 212.806 230.935 212.625C231.062 212.444 232.694 212.771 233.354 213.123Z" fill="white"/>
<path d="M263.753 277.776C262.787 283.429 257.669 287.201 250.335 287.201C243.951 287.201 238.538 284.847 237.11 279.657C235.682 274.477 236.236 264.892 238.142 258.922C238.426 258.032 238.772 257.172 239.168 256.358L239.173 256.348C239.534 255.608 239.936 254.904 240.378 254.245C240.383 254.24 240.383 254.235 240.383 254.235C242.711 250.765 246.121 248.497 249.979 248.497C253.994 248.497 257.064 250.132 259.153 252.546C260.124 253.667 260.886 254.965 261.43 256.337C262.061 257.922 262.589 259.601 263.006 261.331C263.006 261.341 263.011 261.362 263.016 261.382C264.338 266.808 264.617 272.722 263.753 277.776Z" fill="#84B5FF"/>
<path opacity="0.3" d="M263.753 277.776C262.787 283.429 257.669 287.201 250.335 287.201C243.951 287.201 238.538 284.847 237.11 279.657C235.682 274.477 236.236 264.892 238.142 258.922C238.426 258.032 238.772 257.172 239.168 256.358L239.173 256.348C239.173 256.348 235.311 269.021 238.396 277.092C241.486 285.164 255.87 284.993 260.739 279.632C265.374 274.528 263.23 262.538 263.016 261.392C264.338 266.808 264.617 272.722 263.753 277.776Z" fill="#0D6EB7"/>
<path d="M237.385 274.417C238.477 266.828 244.627 261.683 251.464 262.322C258.828 263.011 262.788 269.966 262.686 275.936C262.579 281.905 258.173 286.567 250.264 286.567C242.355 286.567 236.363 281.518 237.385 274.417Z" fill="#84B5FF"/>
<path d="M237.456 275.046C238.549 267.457 244.699 262.312 251.535 262.951C258.9 263.64 262.859 270.595 262.757 276.564C262.651 282.534 258.244 287.196 250.335 287.196C242.432 287.201 236.434 282.147 237.456 275.046Z" fill="url(#paint1_radial_620_6749)"/>
<path opacity="0.5" d="M259.154 252.546C257.593 254.97 248.988 256.383 244.018 255.935C239.687 255.543 240.348 254.386 240.378 254.24C240.384 254.235 240.384 254.23 240.384 254.23C242.711 250.76 246.122 248.492 249.98 248.492C253.995 248.497 257.065 250.132 259.154 252.546Z" fill="#276ED8"/>
<path d="M227.666 244.036C232.535 255.151 268.983 251.685 273.339 242.553C278.101 232.565 267.148 207.887 249.684 209.039C234.929 210.015 221.41 229.749 227.666 244.036Z" fill="#84B5FF"/>
<path d="M229.678 242.467C234.334 251.585 266.151 250.076 270.797 241.698C274.741 234.582 265.424 212.911 249.44 213.681C233.455 214.455 225.205 233.717 229.678 242.467Z" fill="#276ED8"/>
<path d="M264.221 231.725C263.596 233.385 255.205 233.194 255.215 232.595C255.266 229.281 257.06 224.926 260.409 224.956C263.866 224.986 265.39 228.632 264.221 231.725Z" fill="#66D6A0"/>
<path d="M235.946 231.946C236.668 233.571 245.034 232.912 244.988 232.314C244.749 229.004 242.716 224.76 239.372 224.976C235.921 225.197 234.604 228.924 235.946 231.946Z" fill="#66D6A0"/>
<path d="M245.135 238.082C243.875 238.384 246.512 242.553 250.746 242.553C254.502 242.553 256.622 238.268 256.144 238.082C255.666 237.896 253.415 239.048 250.279 239.048C247.143 239.048 245.664 237.956 245.135 238.082Z" fill="#84B5FF"/>
<path d="M239.926 256.815C239.916 259.848 239.484 264.228 238.096 267.768C235.794 273.632 232.338 281.01 232.236 281.241L232.231 281.246C230.122 282.519 227.59 282.453 225.984 282.222C225.008 282.081 224.373 281.88 224.373 281.88C224.373 281.88 225.09 275.166 228.82 267.557C230.691 263.735 233.08 260.179 235.138 257.559C235.148 257.549 235.158 257.534 235.169 257.524C235.189 257.489 235.219 257.459 235.245 257.424C235.26 257.403 235.275 257.388 235.286 257.368C235.301 257.353 235.316 257.333 235.321 257.318C235.341 257.293 235.357 257.273 235.377 257.253C235.382 257.248 235.387 257.243 235.387 257.243C235.392 257.237 235.397 257.232 235.397 257.232C237.486 254.607 239.184 253.018 239.54 253.209C239.748 253.32 239.936 254.753 239.926 256.815Z" fill="#276ED8"/>
<path d="M224.403 281.613C224.403 281.613 227.123 277.173 229.928 277.751C232.734 278.329 232.231 281.246 232.231 281.246C232.231 281.246 228.642 283.816 224.403 281.613Z" fill="#84B5FF"/>
<path d="M239.926 256.815C239.916 259.848 239.484 264.228 238.096 267.768C235.794 273.632 232.338 281.01 232.236 281.241L232.231 281.246L225.984 282.222C225.008 282.081 224.373 281.88 224.373 281.88C224.373 281.88 225.09 275.166 228.82 267.557C230.691 263.735 233.08 260.179 235.138 257.559C233.959 259.098 229.034 265.792 227.707 271.48C226.198 277.952 232.282 275.458 234.772 271.48C237.258 267.502 239.855 256.82 239.855 256.82H239.926V256.815Z" fill="#84B5FF"/>
<path d="M224.367 281.875C224.367 281.875 226.045 279.526 228.469 279.21C230.893 278.898 231.763 279.562 232.225 281.241C232.693 282.926 229.252 289.057 224.982 293.678C223.137 293.829 222.583 291.591 222.314 290.153C222.319 288.896 223.539 283.851 224.367 281.875Z" fill="#84B5FF"/>
<path d="M230.259 279.194C230.259 279.194 225.71 285.446 224.267 289.041C223.489 290.983 223.042 292.255 223.042 292.255C223.042 292.255 224.226 295.217 226.183 292.738C228.958 289.227 232.679 283.947 232.003 281.407C231.433 279.26 231.052 278.852 230.259 279.194Z" fill="#276ED8"/>
<path opacity="0.5" d="M226.426 284.953C226.426 284.953 227.061 288.287 229.099 288.785L229.419 280.784C229.419 280.779 227.036 283.922 226.426 284.953Z" fill="#84B5FF"/>
<path d="M228.419 282.685C228.114 283.454 228.704 288.493 229.258 289.067C229.812 289.635 231.093 288.674 231.449 287.653C231.804 286.633 233.405 281.07 231.347 279.285C231.347 279.28 229.69 279.461 228.419 282.685Z" fill="#84B5FF"/>
<path d="M260.727 257.145C260.737 260.178 261.169 264.558 262.557 268.098C264.859 273.962 268.315 281.34 268.417 281.571L268.422 281.576C270.531 282.849 273.062 282.783 274.669 282.552C275.644 282.411 276.28 282.21 276.28 282.21C276.28 282.21 275.563 275.496 271.832 267.887C269.962 264.065 267.573 260.509 265.515 257.889C265.505 257.879 265.494 257.864 265.484 257.854C265.464 257.819 265.433 257.789 265.408 257.754C265.393 257.733 265.377 257.718 265.367 257.698C265.352 257.683 265.337 257.663 265.332 257.648C265.311 257.623 265.296 257.603 265.276 257.583C265.271 257.578 265.266 257.573 265.266 257.573C265.261 257.567 265.256 257.562 265.256 257.562C263.167 254.937 261.469 253.348 261.113 253.539C260.905 253.65 260.717 255.083 260.727 257.145Z" fill="#276ED8"/>
<path d="M276.25 281.943C276.25 281.943 273.53 277.503 270.725 278.081C267.919 278.659 268.422 281.576 268.422 281.576C268.422 281.576 272.011 284.146 276.25 281.943Z" fill="#84B5FF"/>
<path d="M260.727 257.145C260.737 260.178 261.169 264.558 262.557 268.098C264.859 273.962 268.315 281.34 268.417 281.571L268.422 281.576L274.669 282.552C275.644 282.411 276.28 282.21 276.28 282.21C276.28 282.21 275.563 275.496 271.832 267.887C269.962 264.065 267.573 260.509 265.515 257.889C266.694 259.428 271.619 266.122 272.946 271.81C274.455 278.282 268.371 275.788 265.881 271.81C263.395 267.832 260.798 257.15 260.798 257.15H260.727V257.145Z" fill="#84B5FF"/>
<path d="M276.285 282.205C276.285 282.205 274.608 279.856 272.184 279.54C269.759 279.228 268.89 279.892 268.428 281.571C267.96 283.256 271.401 289.386 275.67 294.008C277.515 294.159 278.069 291.921 278.339 290.483C278.334 289.226 277.114 284.181 276.285 282.205Z" fill="#84B5FF"/>
<path d="M270.393 279.524C270.393 279.524 274.942 285.776 276.386 289.371C277.164 291.313 277.611 292.585 277.611 292.585C277.611 292.585 276.427 295.547 274.47 293.068C271.695 289.557 267.974 284.277 268.65 281.737C269.219 279.59 269.601 279.182 270.393 279.524Z" fill="#276ED8"/>
<path opacity="0.5" d="M274.227 285.283C274.227 285.283 273.592 288.617 271.554 289.115L271.233 281.114C271.233 281.109 273.617 284.252 274.227 285.283Z" fill="#84B5FF"/>
<path d="M272.234 283.015C272.539 283.784 271.949 288.823 271.395 289.397C270.841 289.965 269.56 289.004 269.204 287.983C268.849 286.963 267.247 281.4 269.306 279.615C269.306 279.61 270.963 279.791 272.234 283.015Z" fill="#84B5FF"/>
<path d="M241.55 199.7L239.367 198.191L240.419 196.089L237.9 194.573L238.787 192.617L236.555 191.259L237.518 188.873L235.604 187.173L233.427 188.404L237.723 201.096L241.55 199.7Z" fill="#06B25F"/>
<path d="M220.283 176.551L233.029 198.03L236.074 196.209L230.543 179.795L220.283 176.551Z" fill="#66D6A0"/>
<path d="M233.84 159.729C234.14 159.844 240.766 164.863 240.603 165.008C240.443 165.155 230.031 180.787 230.031 180.787L221.078 174.919L233.84 159.729Z" fill="#66D6A0"/>
<path d="M229.004 182.246C226.802 184.249 223.396 184.094 221.397 181.897C219.397 179.7 219.56 176.296 221.763 174.293C223.965 172.29 227.371 172.445 229.37 174.642C231.37 176.834 231.207 180.238 229.004 182.246Z" fill="#06B25F"/>
<path d="M227.242 180.31C226.208 181.248 224.615 181.176 223.678 180.145C222.741 179.118 222.817 177.521 223.851 176.583C224.885 175.644 226.479 175.716 227.415 176.747C228.349 177.776 228.274 179.369 227.242 180.31Z" fill="#66D6A0"/>
<path d="M256.497 197.127L258.815 195.819L257.962 193.632L260.612 192.346L259.913 190.322L262.261 189.165L261.526 186.702L263.591 185.178L265.644 186.602L260.179 198.858L256.497 197.127Z" fill="#06B25F"/>
<path d="M279.844 175.968L265.137 196.222L262.281 194.139L269.319 178.285L279.844 175.968Z" fill="#66D6A0"/>
<path d="M245.194 110.198L256.697 119.075L254.66 153.254L243.651 155.003L245.194 110.198Z" fill="#66D6A0"/>
<path d="M267.916 158.007C267.605 158.097 260.541 162.502 260.688 162.663C260.835 162.823 269.742 179.319 269.742 179.319L279.205 174.272L267.916 158.007Z" fill="#66D6A0"/>
<path d="M234.003 158.36C237.593 151.815 262.072 150.26 266.391 155.914C270.328 161.07 268.408 164.418 265.826 165.768C261.706 167.916 260.827 160.485 256.772 160.698C252.718 160.911 247.852 161.252 244.229 161.619C240.191 162.027 240.425 169.506 236.033 168.016C233.277 167.078 230.878 164.059 234.003 158.36Z" fill="#06B25F"/>
<path d="M270.623 180.861C272.628 183.054 276.035 183.2 278.233 181.191C280.431 179.183 280.585 175.778 278.581 173.585C276.573 171.394 273.169 171.246 270.971 173.255C268.775 175.266 268.619 178.668 270.623 180.861Z" fill="#06B25F"/>
<path d="M234.558 164.45C235.388 165.565 236.969 165.797 238.086 164.965C239.203 164.132 239.439 162.552 238.608 161.437C237.776 160.32 236.197 160.09 235.08 160.923C233.961 161.753 233.728 163.331 234.558 164.45Z" fill="#66D6A0"/>
<path d="M272.561 179.091C273.5 180.116 275.096 180.185 276.126 179.247C277.153 178.305 277.226 176.71 276.289 175.683C275.35 174.659 273.754 174.589 272.724 175.528C271.693 176.469 271.619 178.064 272.561 179.091Z" fill="#66D6A0"/>
<path d="M261.812 161.775C262.642 162.89 264.223 163.122 265.34 162.289C266.457 161.457 266.693 159.876 265.862 158.762C265.032 157.647 263.451 157.415 262.334 158.247C261.215 159.077 260.979 160.658 261.812 161.775Z" fill="#66D6A0"/>
<path d="M252.402 101.698H332.271V103.607H252.402V101.698Z" fill="#66D6A0"/>
<path d="M327.985 99.0281H335.765V114.17H327.985V99.0281Z" fill="#66D6A0"/>
<path d="M246.881 98H254.66V113.142H246.881V98Z" fill="#66D6A0"/>
<path d="M333.729 110.281L324.689 125.706L252.405 123.847L248.849 109.759L333.729 110.281Z" fill="#66D6A0"/>
<path d="M419.232 206.459C417.25 208.496 375.021 188.187 375.021 188.187L355.001 204.761L418.212 256.333L419.232 206.459Z" fill="#66D6A0"/>
<path d="M375.021 188.187L337.272 111.116L324.689 125.706L355 204.761L375.021 188.187Z" fill="#66D6A0"/>
<path d="M413.791 197.42V255.532C413.791 258.222 415.977 260.403 418.673 260.403H448.461C451.158 260.403 453.344 258.222 453.344 255.532V197.42C453.344 194.73 451.158 192.549 448.461 192.549H418.673C415.977 192.549 413.791 194.73 413.791 197.42Z" fill="#66D6A0"/>
<path d="M365.822 210.223C358.167 210.223 351.962 204.032 351.962 196.395C351.962 188.758 358.167 182.567 365.822 182.567C373.477 182.567 379.683 188.758 379.683 196.395C379.683 204.032 373.477 210.223 365.822 210.223Z" fill="#06B25F"/>
<path d="M322.052 119.547C322.052 124.954 326.444 129.336 331.863 129.336C337.282 129.336 341.674 124.954 341.674 119.547C341.674 114.141 337.282 109.759 331.863 109.759C326.444 109.759 322.052 114.141 322.052 119.547Z" fill="#06B25F"/>
<path d="M450.683 191.412V260.351C450.683 263.471 453.063 266 456 266V185.763C453.063 185.763 450.683 188.292 450.683 191.412Z" fill="#06B25F"/>
<path d="M367.284 189.494C367.284 188.476 334.892 119.547 334.892 119.547L330.299 121.039L358.356 193.564L367.284 189.494Z" fill="#06B25F"/>
<path d="M327.119 119.541C327.119 122.162 329.249 124.284 331.873 124.284C334.497 124.284 336.627 122.159 336.627 119.541C336.627 116.92 334.497 114.798 331.873 114.798C329.249 114.798 327.119 116.92 327.119 119.541Z" fill="#66D6A0"/>
<path d="M242.621 117.32C242.621 121.81 246.268 125.453 250.772 125.453C255.273 125.453 258.924 121.814 258.924 117.32C258.924 112.83 255.276 109.188 250.772 109.188C246.272 109.188 242.621 112.827 242.621 117.32Z" fill="#06B25F"/>
<path d="M324.689 115.504L257.014 114.794V118.073L324.689 121.971V115.504Z" fill="#06B25F"/>
<path d="M247.128 116.775C247.128 118.782 248.757 120.408 250.769 120.408C252.781 120.408 254.41 118.782 254.41 116.775C254.41 114.768 252.781 113.142 250.769 113.142C248.761 113.142 247.128 114.768 247.128 116.775Z" fill="#66D6A0"/>
<path d="M360 196.893C360 200.148 362.644 202.785 365.906 202.785C369.169 202.785 371.812 200.148 371.812 196.893C371.812 193.638 369.169 191 365.906 191C362.644 191 360 193.638 360 196.893Z" fill="#66D6A0"/>
<g filter="url(#filter0_d_620_6749)">
<rect x="127" y="239" width="58" height="57" rx="6" fill="#276ED8"/>
</g>
<g clip-path="url(#clip0_620_6749)">
<path d="M140 267C140 265.503 143.532 263.555 149.595 262.712C149.477 264.098 149.417 265.535 149.417 267C149.417 268.464 149.477 269.902 149.595 271.288C143.532 270.445 140 268.497 140 267Z" fill="white"/>
<path d="M156 283C154.503 283 152.555 279.468 151.712 273.405C153.098 273.523 154.536 273.583 156 273.583C157.465 273.583 158.903 273.523 160.289 273.405C159.445 279.468 157.498 283 156 283Z" fill="white"/>
<path d="M162.404 271.288C162.522 269.902 162.583 268.464 162.583 267C162.583 265.538 162.522 264.103 162.405 262.719C163.665 262.895 164.86 263.123 165.959 263.399L165.544 263.577C165.069 263.782 164.849 264.333 165.054 264.809C165.258 265.285 165.81 265.504 166.285 265.299L168.864 264.19C169.339 263.985 169.559 263.434 169.354 262.958L168.245 260.379C168.092 260.025 167.746 259.812 167.383 259.812C167.259 259.812 167.134 259.837 167.013 259.889C166.537 260.094 166.318 260.645 166.522 261.121L166.758 261.668C165.37 261.302 163.832 261.011 162.202 260.801C161.914 258.554 161.468 256.488 160.881 254.727C160.424 253.355 159.901 252.225 159.322 251.348C166.556 252.882 172 259.317 172 267C172 268.497 168.468 270.445 162.404 271.288Z" fill="white"/>
<path d="M151.493 271.507C151.364 270.111 151.292 268.606 151.292 267C151.292 265.394 151.364 263.889 151.493 262.493C152.889 262.364 154.394 262.292 156 262.292C157.538 262.292 159.054 262.363 160.508 262.499C160.636 263.893 160.709 265.396 160.709 267C160.709 268.606 160.636 270.111 160.507 271.507C159.112 271.636 157.606 271.708 156 271.708C154.394 271.708 152.889 271.636 151.493 271.507Z" fill="white"/>
<path d="M156 260.417C154.536 260.417 153.098 260.478 151.712 260.595C152.555 254.532 154.503 251 156 251C157.498 251 159.446 254.533 160.289 260.598C158.897 260.478 157.456 260.417 156 260.417Z" fill="white"/>
<path d="M152.677 251.348C152.098 252.225 151.576 253.355 151.118 254.727C150.532 256.487 150.086 258.552 149.798 260.798C147.551 261.086 145.487 261.532 143.727 262.118C142.354 262.576 141.224 263.099 140.348 263.677C141.654 257.516 146.516 252.654 152.677 251.348Z" fill="white"/>
<path d="M171.652 270.323C170.346 276.484 165.484 281.346 159.323 282.652C159.901 281.775 160.424 280.645 160.882 279.273C161.468 277.513 161.914 275.448 162.202 273.202C164.448 272.914 166.513 272.468 168.273 271.882C169.645 271.424 170.775 270.901 171.652 270.323Z" fill="white"/>
<path d="M143.727 271.882C145.487 272.468 147.551 272.914 149.798 273.202C150.086 275.448 150.532 277.513 151.118 279.273C151.576 280.645 152.098 281.775 152.677 282.652C146.516 281.346 141.654 276.484 140.348 270.323C141.224 270.901 142.354 271.424 143.727 271.882Z" fill="white"/>
</g>
<defs>
<filter id="filter0_d_620_6749" x="121" y="233" width="80" height="79" filterUnits="userSpaceOnUse" color-interpolation-filters="sRGB">
<feFlood flood-opacity="0" result="BackgroundImageFix"/>
<feColorMatrix in="SourceAlpha" type="matrix" values="0 0 0 0 0 0 0 0 0 0 0 0 0 0 0 0 0 0 127 0" result="hardAlpha"/>
<feMorphology radius="3" operator="dilate" in="SourceAlpha" result="effect1_dropShadow_620_6749"/>
<feOffset dx="5" dy="5"/>
<feGaussianBlur stdDeviation="4"/>
<feColorMatrix type="matrix" values="0 0 0 0 0 0 0 0 0 0 0 0 0 0 0 0 0 0 0.2 0"/>
<feBlend mode="normal" in2="BackgroundImageFix" result="effect1_dropShadow_620_6749"/>
<feBlend mode="normal" in="SourceGraphic" in2="effect1_dropShadow_620_6749" result="shape"/>
</filter>
<radialGradient id="paint0_radial_620_6749" cx="0" cy="0" r="1" gradientUnits="userSpaceOnUse" gradientTransform="translate(250.361 309.26) rotate(0.187749) scale(28.3461 5.95771)">
<stop stop-color="#7B7EC9"/>
<stop offset="0.3883" stop-color="#BFD8F5"/>
<stop offset="1" stop-color="white"/>
</radialGradient>
<radialGradient id="paint1_radial_620_6749" cx="0" cy="0" r="1" gradientUnits="userSpaceOnUse" gradientTransform="translate(250.471 283.427) scale(18.7404 18.5428)">
<stop stop-color="#81D884"/>
<stop offset="1" stop-color="#2DA531"/>
</radialGradient>
<clipPath id="clip0_620_6749">
<rect width="32" height="32" fill="white" transform="matrix(1 0 0 -1 140 283)"/>
</clipPath>
</defs>
</svg>
