<svg width="575" height="488" viewBox="0 0 575 488" fill="none" xmlns="http://www.w3.org/2000/svg">
<path opacity="0.08" d="M221.538 400.501C319.699 428.678 478.834 398.974 532.17 341.972C585.506 284.97 529.228 217.481 490.416 192.086C478.341 184.231 464.809 178.446 454.981 167.72C433.521 144.23 425.994 106.756 399.255 90.1421C376.128 75.7532 348.888 88.8498 323.233 80.3477C312.036 76.71 293.694 61.2793 274.756 58.0215C232.872 50.8163 104.683 147.492 93.0999 187.062C81.5166 226.632 87.123 361.916 221.538 400.501Z" fill="#84B5FF"/>
<path d="M434.234 322.369H411.841C410.959 322.369 410.238 321.656 410.238 320.766C410.238 319.885 410.951 319.164 411.841 319.164H434.234C435.116 319.164 435.836 319.877 435.836 320.766C435.836 321.648 435.116 322.369 434.234 322.369Z" fill="#66D6A0"/>
<path d="M434.234 330.364H411.841C410.959 330.364 410.238 329.651 410.238 328.762C410.238 327.881 410.951 327.16 411.841 327.16H434.234C435.116 327.16 435.836 327.873 435.836 328.762C435.836 329.644 435.116 330.364 434.234 330.364Z" fill="#66D6A0"/>
<mask id="mask0_217_5366" style="mask-type:alpha" maskUnits="userSpaceOnUse" x="22" y="60" width="533" height="355">
<path d="M222.067 403.362C320.228 431.539 479.363 401.834 532.699 344.833C586.034 287.831 529.756 220.342 490.945 194.947C478.869 187.092 465.338 181.307 455.509 170.581C434.05 147.091 426.522 109.617 399.783 93.003C376.657 78.614 349.416 91.7107 323.761 83.2086C312.565 79.5709 294.222 64.1402 275.285 60.8824C233.4 53.6772 35.4954 159.219 23.9121 198.789C12.3288 238.359 87.6516 364.777 222.067 403.362Z" fill="#276ED8"/>
</mask>
<g mask="url(#mask0_217_5366)">
<path opacity="0.2" d="M221.072 216.583L229.654 214.969V207.276L221.072 205.796C220.413 202.635 219.162 199.676 217.441 197.053L222.364 189.831L216.916 184.383L209.801 189.414C207.178 187.692 204.233 186.455 201.058 185.796L199.444 177.214H191.751L190.271 185.796C187.111 186.455 184.152 187.706 181.529 189.427L174.319 184.504L168.872 189.952L173.902 197.067C172.181 199.69 170.943 202.649 170.284 205.81L161.703 207.424V215.117L170.284 216.597C170.943 219.771 172.194 222.716 173.916 225.339L168.993 232.549L174.44 237.996L181.569 232.965C184.192 234.687 187.151 235.938 190.312 236.584L191.926 245.165H199.619L201.099 236.584C204.273 235.925 207.219 234.674 209.841 232.952L217.051 237.875L222.498 232.427L217.468 225.312C219.176 222.703 220.413 219.757 221.072 216.583ZM195.678 227.128C186.882 227.128 179.753 219.986 179.753 211.203C179.753 202.42 186.882 195.278 195.678 195.278C204.475 195.278 211.603 202.407 211.603 211.203C211.603 219.999 204.475 227.128 195.678 227.128Z" fill="#84B5FF"/>
<path d="M335.444 262.339C348.763 272.548 368.093 276.683 382.984 268.783C387.655 266.312 391.956 262.362 392.881 257.28C393.991 251.159 390.037 244.83 391.702 238.824C393.158 233.512 398.477 230.255 402.431 226.328C408.165 220.646 411.495 212.723 411.472 204.754C411.448 196.785 408.119 188.885 402.361 183.226C397.482 178.422 391.124 175.326 385.528 171.307C381.112 168.12 377.134 163.985 375.03 158.973C372.949 154.03 374.66 151.119 374.961 146.268C375.585 135.897 372.972 124.302 365.504 116.587C355.838 106.562 341.479 106.724 328.785 109.311C322.357 110.604 315.258 112.614 309.616 116.032C307.211 117.488 305.616 119.266 303.974 121.599C303.442 122.338 300.483 129.707 300.598 129.684C281.777 133.98 291.881 160.035 286.1 172C284.274 175.765 281.083 178.676 278.285 181.794C273.383 187.291 269.545 193.898 268.342 201.151C267.14 208.404 268.782 216.303 273.66 221.801C274.447 222.702 275.372 223.579 275.672 224.734C276.135 226.467 275.163 228.199 274.447 229.839C270.169 239.656 275.071 251.02 281.245 259.775C285.384 265.665 290.263 271.255 296.598 274.673C306.703 280.148 319.466 279.293 329.872 274.396" fill="url(#paint0_linear_217_5366)"/>
<path opacity="0.42" d="M332.583 133.557C326.224 130.461 318.108 133.903 314.177 139.793C310.27 145.683 305.183 150.927 306.108 157.926C306.57 161.39 307.333 164.924 306.639 168.366C304.882 177.282 299.379 183.796 293.645 190.841C288.789 196.8 287.216 204.723 285.968 212.299C285.228 216.827 284.627 221.816 287.031 225.72C290.084 230.663 293.575 237.038 296.859 241.819C302.269 249.65 299.101 257.295 305.645 264.225C307.587 266.258 310.316 267.32 312.998 268.175C318.432 269.861 324.051 270.854 329.739 271.155C334.595 271.409 339.52 271.108 344.098 269.515C355.336 265.565 362.851 252.953 360.816 241.219C359.267 232.326 353.139 224.934 350.226 216.365C348.145 210.221 347.798 203.499 349.208 197.17C351.012 189.178 355.613 181.232 353.625 173.286" fill="#148951"/>
<path d="M142.192 119.803C133.842 119.803 127.076 126.57 127.076 134.919C127.076 143.268 133.842 150.034 142.192 150.034C150.541 150.034 157.307 143.268 157.307 134.919C157.307 126.57 150.541 119.803 142.192 119.803ZM142.192 146.268C135.917 146.268 130.835 141.186 130.835 134.912C130.835 128.637 135.917 123.555 142.192 123.555C148.466 123.555 153.548 128.637 153.548 134.912C153.548 141.186 148.466 146.268 142.192 146.268Z" fill="#66D6A0"/>
<path d="M91.7999 344.329H70.6846C69.8533 344.329 69.1738 343.657 69.1738 342.818C69.1738 341.987 69.8461 341.308 70.6846 341.308H91.7999C92.6312 341.308 93.3107 341.98 93.3107 342.818C93.3107 343.65 92.6312 344.329 91.7999 344.329Z" fill="#66D6A0"/>
<path d="M91.7999 351.869H70.6846C69.8533 351.869 69.1738 351.196 69.1738 350.358C69.1738 349.526 69.8461 348.847 70.6846 348.847H91.7999C92.6312 348.847 93.3107 349.519 93.3107 350.358C93.3107 351.189 92.6312 351.869 91.7999 351.869Z" fill="#66D6A0"/>
<path d="M176.628 263.559C176.628 263.559 178.845 267.409 180.917 281.822C182.989 296.234 181.724 298.375 181.724 298.375C181.724 298.375 187.36 301.962 184.029 278.649C184.029 257.642 178.677 262.278 178.677 262.278L176.628 263.559Z" fill="url(#paint1_linear_217_5366)" fill-opacity="0.5"/>
<path d="M178.095 262.494C178.095 262.494 180.415 261.794 181.346 263.654C182.276 265.515 185.186 287.848 184.376 294.129C183.556 300.409 181.235 298.089 181.235 298.089C181.235 298.089 181.465 301.809 182.976 302.859L182.985 302.85C183.003 302.841 183.04 302.813 183.086 302.776C183.123 302.758 183.169 302.721 183.224 302.684H183.234C184.127 302.095 187.221 300.05 190.076 298.089C193.447 295.759 195.427 293.779 195.427 293.779C195.427 293.779 194.957 290.058 194.957 289.017C194.957 287.967 202.408 263.185 209.729 255.513C216.563 248.358 209.849 208.048 208.909 202.605L208.799 201.997C208.799 201.997 202.868 203.747 200.308 205.617C197.757 207.495 188.557 230.151 188.096 241.782C187.626 253.414 183.445 260.017 183.445 260.017C183.445 260.017 182.046 259.169 179.716 260.017L178.095 262.494Z" fill="url(#paint2_linear_217_5366)"/>
<path opacity="0.83" d="M183.234 302.684C184.127 302.095 187.221 300.05 190.076 298.089C193.447 295.759 195.427 293.779 195.427 293.779C195.427 293.779 194.957 290.058 194.957 289.017C194.957 287.967 202.408 263.185 209.729 255.513C216.563 248.358 209.849 208.048 208.909 202.605L208.799 201.997C208.799 201.997 203.973 208.048 201.883 220.085C199.783 232.131 202.748 255.863 202.748 255.863C202.748 255.863 198.567 275.056 188.271 275.406C188.271 275.406 196.91 288.05 193.502 294.396C192.848 295.602 184.808 301.57 183.234 302.684Z" fill="#3E64F9"/>
<path d="M202.925 413.777C203.118 415.895 203.486 417.608 203.929 419.1V419.109C204.674 421.679 205.614 423.603 206.13 425.814C206.94 429.304 207.87 442.888 207.87 442.888H232.303C231.373 437.86 230.212 433.964 228.812 421.393C227.477 409.375 234.66 367.951 235.277 364.405C235.305 364.249 235.323 364.166 235.323 364.166C241.604 390.449 257.021 420.933 258.596 422.673C260.161 424.423 263.302 425.989 263.302 425.989C265.052 429.304 268.717 442.888 268.717 442.888H296.806C295.24 435.705 288.084 424.948 285.81 420.933C283.544 416.917 274.998 389.519 272.723 371.377C271.774 363.816 271.047 355.831 270.513 349.081V349.062C269.767 339.632 269.408 332.633 269.408 332.633C262.261 325.311 206.351 318.091 206.351 318.091L204.582 323.828C204.582 323.828 204.565 324.668 204.298 326.067C204.04 327.458 203.929 328.332 203.929 328.332C197.657 363.926 202.409 408.021 202.925 413.777Z" fill="url(#paint3_linear_217_5366)"/>
<path opacity="0.62" d="M269.563 335.414C269.563 335.414 252.655 333.333 242.009 338.389C231.363 343.445 232.321 352.176 232.321 352.176L235.323 364.157L224.981 353.336L203.919 328.323C203.919 328.323 207.86 330.708 212.981 331.758C212.981 331.758 205.797 327.31 204.582 323.82L206.35 318.082L269.563 331.583V335.414Z" fill="#220786"/>
<path d="M281.629 254.463L283.544 243.992C283.544 243.992 288.434 243.992 295.581 250.623C295.581 250.623 295.756 254.215 298.205 258.7C298.205 258.7 306.439 262.669 310.261 268.075C314.083 273.481 315.528 274.024 319.516 270.957C320.575 270.147 321.294 267.393 321.671 263.645C322.233 257.981 322.021 250.043 321.045 243.053C320.234 237.288 318.899 232.177 317.048 229.515C317.048 229.515 317.223 225.96 315.473 223.17C315.39 223.225 315.298 223.28 315.215 223.345C314.644 223.704 313.171 224.496 311.642 224.22C309.662 223.87 308.004 220.84 308.004 220.84C308.004 220.84 306.872 220.959 306.291 221.779C306.291 221.779 298.38 216.981 293.371 208.904C288.37 200.837 287.559 199.842 287.559 199.842C287.559 199.842 286.279 199.317 284.548 198.995C283.185 198.737 281.536 198.617 279.998 198.976C279.998 198.976 255.686 236.551 281.629 254.463Z" fill="url(#paint4_linear_217_5366)"/>
<path d="M229.852 201.997C229.852 201.997 233.245 196.727 233.245 186.191L256.476 175.428C256.476 175.428 255.288 183.551 259.285 190.596C260.344 192.456 265.271 195.403 265.271 195.403C265.271 195.403 243.712 221.991 233.361 219.44C223.009 216.889 225.082 205.617 225.082 205.617C225.082 205.617 226.831 206.298 229.852 201.997Z" fill="#FF9B8B"/>
<path d="M262.37 193.479C262.37 193.479 250.683 205.129 240.627 205.783C229.852 206.483 231.629 197.522 231.629 197.522C231.629 197.522 226.757 204.356 228.148 209.734C229.548 215.112 240.185 215.379 248.39 211.797C256.596 208.224 264.442 194.327 264.442 194.327L262.37 193.479Z" fill="#CEC5FF"/>
<path opacity="0.83" d="M281.625 254.463L283.541 243.992C283.541 243.992 288.431 243.992 295.578 250.623C295.578 250.623 295.753 254.215 298.202 258.7C298.202 258.7 306.436 262.669 310.257 268.075C314.079 273.481 315.525 274.024 319.513 270.957C320.572 270.147 321.29 267.393 321.668 263.645L321.042 262.144V243.053C320.231 237.288 318.896 232.177 317.045 229.515C317.045 229.515 317.22 225.96 315.47 223.17C315.387 223.225 315.295 223.28 315.212 223.345C308.443 227.756 306.049 240.732 305.588 250.393C305.524 247.943 303.967 238.467 302.798 238.642C301.287 238.872 298.727 256.324 298.727 256.324C295.707 241.358 305.45 223.308 306.233 221.871C297.327 234.175 295.817 248.302 295.817 248.302L281.975 238.181C281.975 238.181 273.641 229.8 276.523 215.378C279.406 200.957 284.545 198.995 284.545 198.995C283.182 198.737 281.533 198.617 279.995 198.976C279.995 198.976 255.682 236.551 281.625 254.463Z" fill="#446EF7"/>
<path d="M212.529 264.005C212.529 264.005 216.01 282.212 211.479 301.929C211.479 301.929 208.689 303.845 208.339 306.285C208.339 306.285 208.339 306.304 208.33 306.331C207.998 308.763 207.605 310.585 207.605 310.585C207.605 310.585 207.289 312.225 206.239 313.966C206.046 314.297 205.935 314.684 205.898 315.108C205.732 316.913 206.764 319.197 206.764 319.197C206.764 319.197 208.864 324.612 230.672 326.528C252.48 328.452 269.406 332.633 269.406 332.633C269.406 332.633 272.899 328.719 270.496 325.404C270.496 325.404 272.031 321.647 271.856 320.422C271.681 319.197 263.651 305.245 265.741 295.473C267.841 285.702 275.687 277.773 280.053 258.7C280.053 258.7 282.963 257.724 283.138 256.324C283.313 254.933 281.858 252.659 281.858 252.659L281.333 253.653C281.333 253.653 271.387 247.953 274.066 223.87C276.737 199.787 279.564 198.323 284.547 198.995C284.547 198.995 284.988 200.791 278.809 198.995C278.809 198.995 275.254 198.48 271.589 197.199C267.924 195.919 264.351 194.202 264.351 194.202C264.351 194.202 243.371 212.192 233.674 211.041C222.604 209.733 230.414 197.623 230.414 197.623C230.414 197.623 223.461 198.977 219.74 199.843C216.01 200.717 214.62 199.843 214.62 199.843C214.62 199.843 209.674 200.314 206.764 202.515C203.854 204.707 202.988 213.049 204.148 232.591C205.309 252.134 212.529 264.005 212.529 264.005Z" fill="url(#paint5_linear_217_5366)"/>
<path d="M245.812 234.072L238.578 221.544L235.973 226.206L240.314 234.072L236.552 240.773L239.446 245.435L245.812 234.072Z" fill="#135BC6"/>
<path d="M235.394 227.371L237.999 232.033L237.131 233.198H231.921L235.394 227.371Z" fill="#135BC6"/>
<path d="M236.841 238.734L239.446 234.072H226.134L218.899 246.6H224.108L228.738 238.734H236.841Z" fill="#135BC6"/>
<path d="M229.606 239.608H234.526L238.867 246.6H247.549L250.153 250.97L235.973 251.262L229.606 239.608Z" fill="#135BC6"/>
<path d="M227.87 241.939H229.896L232.5 246.6H225.265L227.87 241.939Z" fill="#135BC6"/>
<path d="M240.893 244.269L243.497 239.899L247.259 245.435H241.761L240.893 244.269Z" fill="#135BC6"/>
<path d="M259.719 181.083C259.719 181.083 249.785 197.504 232.16 195.942C232.16 195.942 233.421 190.582 233.246 186.191C233.246 186.191 241.59 186.669 247.667 184.419C254.526 181.883 259.719 175.379 259.719 175.379L259.719 181.083Z" fill="url(#paint6_linear_217_5366)" fill-opacity="0.7"/>
<path opacity="0.5" d="M283.543 243.992C283.543 243.992 276.479 241.073 273.763 235.786C273.763 235.786 274.177 248.882 281.333 253.653C281.333 253.653 283.11 248.348 283.543 243.992Z" fill="#446EF7"/>
<path opacity="0.62" d="M235.323 364.157L231.603 350.545C231.603 350.545 225.138 341.179 214.639 336.906L224.981 352.755L235.323 364.157Z" fill="#1B0C78"/>
<path opacity="0.62" d="M258.596 422.674C260.161 424.424 263.302 425.989 263.302 425.989C265.052 429.305 268.717 442.889 268.717 442.889H296.806C295.24 435.705 288.084 424.949 285.81 420.933C283.544 416.918 274.998 389.52 272.723 371.377C271.774 363.816 271.047 355.832 270.513 349.081C270.485 349.597 269.555 354.874 272.272 380.495C275.062 406.788 276.969 418.143 276.738 420.464C276.508 422.794 265.107 428.375 258.596 422.674Z" fill="#281C6F"/>
<path opacity="0.62" d="M203.929 419.109C204.675 421.679 205.615 423.604 206.13 425.814C206.941 429.304 207.871 442.888 207.871 442.888H232.304C231.374 437.86 230.213 433.964 228.813 421.393C227.478 409.375 234.661 367.951 235.278 364.405C234.468 368.218 225.443 411.18 223.407 414.827C218.978 422.729 206.978 425.409 203.929 419.109Z" fill="#281C6F"/>
<path opacity="0.83" d="M265.345 201.684C265.326 201.758 265.298 201.823 265.27 201.898C265.308 201.795 265.335 201.721 265.345 201.684Z" fill="url(#paint7_linear_217_5366)"/>
<path opacity="0.62" d="M269.563 358.576C269.563 358.576 271.948 377.391 267.804 397.661L269.563 358.576Z" fill="#281C6F"/>
<path opacity="0.62" d="M230.499 362.996C230.499 362.996 224.034 388.589 218.803 399.466C218.803 399.466 229.108 385.329 232.847 375.788L235.278 364.405L232.322 352.184L230.499 362.996Z" fill="#281C6F"/>
<path d="M230.406 197.614L231.622 197.512C231.622 197.512 229.107 201.537 228.582 204.852C228.057 208.168 230.259 210.304 233.666 211.032C233.666 211.032 228.177 210.71 227.477 206.934C226.777 203.158 230.406 197.614 230.406 197.614Z" fill="url(#paint8_linear_217_5366)"/>
<path d="M221.256 169.282C224.805 181.278 231.651 184.828 235.739 188.051C241.545 191.309 246.607 190.237 246.607 190.237C266.132 181.786 268.041 173.275 269.327 163.775C269.97 159.088 270.552 150.365 268.584 139.583C268.323 138.112 267.881 136.787 267.318 135.568C263.742 127.771 255.305 124.744 255.305 124.744C250.263 122.894 244.518 122.495 239.275 123.504C231.722 124.954 225.776 129.053 223.867 137.145C223.244 139.751 222.903 142.441 222.602 145.111C221.939 150.596 221.597 156.145 221.416 161.673C221.336 164.195 221.276 166.739 221.256 169.282Z" fill="#FFADA0"/>
<path d="M239.836 139.963C239.836 139.963 229.351 137.846 226.064 145.568C226.064 145.568 237.779 142.04 240.018 143.794L239.836 139.963Z" fill="#38368E"/>
<path d="M250.985 141.103C250.985 141.103 261.309 138.341 265.079 145.842C265.079 145.842 253.162 143.059 251.045 144.934L250.985 141.103Z" fill="#38368E"/>
<path d="M262.6 153.505C262.384 156.728 259.312 159.172 255.743 158.934C252.174 158.696 249.449 155.884 249.665 152.64C249.881 149.417 252.953 146.994 256.522 147.232C260.091 147.47 262.817 150.282 262.6 153.505Z" fill="white"/>
<path d="M251.807 152.573C251.613 155.428 253.278 157.872 255.506 158.024C257.734 158.175 259.703 155.969 259.897 153.114C260.092 150.258 258.448 147.814 256.199 147.663C253.971 147.511 252.002 149.718 251.807 152.573Z" fill="#7F9EC9"/>
<path d="M252.976 152.659C252.846 154.693 254.014 156.423 255.593 156.531C257.172 156.639 258.578 155.082 258.708 153.049C258.838 151.015 257.67 149.285 256.091 149.177C254.512 149.047 253.106 150.626 252.976 152.659Z" fill="#38368E"/>
<path d="M253.017 149.156C252.974 149.697 253.601 150.195 254.423 150.259C255.245 150.324 255.937 149.913 255.98 149.351C256.024 148.789 255.375 148.313 254.553 148.248C253.752 148.204 253.06 148.615 253.017 149.156Z" fill="white" fill-opacity="0.8"/>
<path d="M239.5 153C239.29 156.178 236.301 158.577 232.829 158.345C229.356 158.114 226.705 155.336 226.915 152.158C227.126 148.959 230.114 146.581 233.586 146.813C237.059 147.044 239.71 149.822 239.5 153Z" fill="white"/>
<path d="M229.88 152.156C229.69 154.934 231.311 157.312 233.478 157.459C235.646 157.606 237.561 155.46 237.751 152.682C237.94 149.904 236.32 147.526 234.152 147.379C231.984 147.231 230.069 149.378 229.88 152.156Z" fill="#7F9EC9"/>
<path d="M231.017 152.241C230.891 154.22 232.027 155.903 233.563 156.008C235.1 156.114 236.468 154.577 236.594 152.599C236.72 150.621 235.584 148.937 234.048 148.832C232.511 148.727 231.164 150.263 231.017 152.241Z" fill="#38368E"/>
<path d="M231.061 148.831C231.019 149.357 231.65 149.841 232.429 149.904C233.229 149.967 233.902 149.567 233.944 149.02C233.986 148.473 233.376 148.01 232.576 147.947C231.777 147.905 231.103 148.284 231.061 148.831Z" fill="white" fill-opacity="0.8"/>
<path d="M221.953 150.523C221.953 150.523 218.103 138.364 214.928 147.933C212.397 155.554 216.615 163.025 220.02 162.489C223.425 161.976 221.953 150.523 221.953 150.523Z" fill="#FFADA0"/>
<path d="M221.867 152.695C221.867 152.695 218.83 144.483 217.247 147.438C215.663 150.394 215.679 154.432 215.679 154.432C215.679 154.432 216.806 150.146 219.01 152.966C219.01 152.966 216.055 159.666 220.985 158.268C221.002 158.268 223.14 156.395 221.867 152.695Z" fill="#FF9B8B"/>
<path d="M268.264 150.538C268.264 150.538 272.595 137.364 276.167 147.732C279.014 155.988 274.269 164.059 270.438 163.503C266.607 162.946 268.264 150.538 268.264 150.538Z" fill="#FFADA0"/>
<path d="M268.335 152.444C268.335 152.444 271.609 143.875 273.317 146.959C275.024 150.043 275.007 154.257 275.007 154.257C275.007 154.257 273.792 149.784 271.415 152.727C271.415 152.727 274.602 159.719 269.285 158.259C269.285 158.259 266.979 156.305 268.335 152.444Z" fill="#FF9B8B"/>
<path d="M253.492 171.244C253.417 171.468 251.94 175.041 249.546 177.715C246.665 180.932 242.457 182.84 237.8 175.957C236.808 174.498 235.817 172.665 234.788 170.365C234.788 170.365 236.397 170.982 238.754 171.655C242.457 172.703 247.956 173.881 251.771 172.179C252.407 172.16 252.968 171.655 253.492 171.244Z" fill="#712311"/>
<path d="M249.548 177.754C246.667 180.971 242.459 182.86 237.802 175.977C240.289 175.304 246.181 174.256 249.548 177.754Z" fill="#D5503B"/>
<path d="M251.773 172.274C245.695 179.064 241.281 175.491 238.756 171.713C242.459 172.761 247.958 173.827 251.773 172.274Z" fill="white"/>
<path d="M238.627 162.983C238.627 162.983 244.043 171.769 250.09 162.968L238.627 162.983Z" fill="#D8826C"/>
<path d="M222.077 156.938C222.722 155.027 223.109 151.008 223.109 151.008C223.109 151.008 223.226 144.077 223.238 143.168C223.261 140.966 224.363 130.988 229.146 130.72C230.26 130.662 233.202 134.145 237.105 135.741C237.809 136.032 243.763 132.223 246.858 131.139C256.071 127.924 264.57 136.684 264.57 136.684C267.254 139.643 266.434 144.893 266.445 146.28C266.363 142.727 266.457 147.2 266.445 146.28C266.492 148.307 267.149 151.203 267.805 153.125C268.262 150.97 269.031 151.106 270.145 146.994C271.997 140.167 274.076 134.762 273.736 133.236L268.825 124.313C262.155 112.209 246.448 108.435 234.948 116.17L230.635 119.07C224.61 116.962 223.179 119.921 221.503 122.146C218.397 126.293 217.189 130.144 217.072 135.969C217.025 138.136 218.792 139.504 220.445 145.736C221.488 149.674 221.656 154.969 222.077 156.938Z" fill="#293AA1"/>
<path d="M284.063 123.882C280.101 131.455 273.068 125.269 270.466 119.689C264.066 105.931 256.353 108.074 256.353 108.074C240.563 95.9121 236.414 108.214 236.414 108.214C224.059 107.014 223.601 113.876 225.465 119.968C227.329 126.038 231.607 131.082 237.082 134.332C237.328 134.472 237.574 134.623 237.808 134.763C241.876 128.135 249.448 127.552 252.789 127.983C257.279 128.554 259.037 130.93 261.932 133.319C266.398 137 268.391 138.677 276.854 137.897C290.429 136.639 284.063 123.882 284.063 123.882Z" fill="#5A65BA"/>
<path d="M284.063 123.882C280.101 131.455 273.068 125.269 270.466 119.689C264.066 105.931 256.353 108.074 256.353 108.074C240.563 95.9121 236.414 108.214 236.414 108.214C224.059 107.014 223.601 113.876 225.465 119.968C227.329 126.038 231.607 131.082 237.082 134.332C237.328 134.472 237.574 134.623 237.808 134.763C240.833 126.783 248.768 126.061 252.121 125.805C254.137 125.653 257.771 126.003 260.573 128.169C268.192 134.064 268.379 138.666 276.854 137.885C290.429 136.639 284.063 123.882 284.063 123.882Z" fill="#293AA1"/>
<path d="M283.21 122.694C279.248 130.266 273.068 125.269 270.466 119.689C264.066 105.931 256.353 108.074 256.353 108.074C240.563 95.9121 236.414 108.214 236.414 108.214C224.059 107.014 223.601 113.876 225.465 119.968C227.329 126.038 231.607 131.082 237.082 134.332C237.328 134.472 237.574 134.623 237.808 134.763C240.833 126.783 248.229 120.574 251.594 120.318C253.61 120.166 257.244 120.516 260.045 122.694C267.664 128.589 268.391 138.666 276.854 137.885C290.947 136.563 283.807 122.607 283.21 122.694Z" fill="#5A65BA"/>
<path d="M237.395 134.441C237.395 134.441 226.923 101.328 245.807 102.418C245.807 102.418 252.857 104.784 258.36 109.365C258.36 109.365 246.051 105.562 241.876 111.045C236.629 117.939 236.246 126.802 237.395 134.441Z" fill="#293AA1"/>
<path d="M265.939 116.042C265.939 116.042 262.446 111.731 255.096 111.428C248.016 111.126 238.275 114.317 237.103 134.343C237.103 134.343 242.19 116.146 255.729 113.595C257.792 113.211 260.675 113.351 265.939 116.042Z" fill="#293AA1"/>
<path d="M341.931 201.592C341.931 201.592 345.562 190.07 346.272 182.76C346.981 175.45 349.684 167.538 349.684 167.538C349.684 167.538 351.585 167.177 352.717 168.175C353.848 169.174 355.281 177.185 352.691 182.838C344.23 189.865 348.143 202.938 348.143 202.938L350.152 203.36L355.807 198.291L358.069 198.136C358.069 198.136 367.946 212.227 366.324 219.035L364.021 221.747L354.321 218.112L344.693 207.54L341.931 201.592Z" fill="#F88A7F"/>
<path d="M358.018 197.988C358.018 197.988 356.086 205.603 352.987 211.824C352.987 211.824 352.71 214.577 355.822 215.422L356.785 214.718C356.785 214.718 356.692 217.893 359.428 218.71L362.635 216.613L361.491 218.66C361.491 218.66 361.954 221.195 364.489 221.628C364.489 221.628 369.382 219.22 370.555 214.982L367.142 210.587L367.708 207.895L363.505 203.383L363.832 201.397C363.81 201.402 361.37 198.652 358.018 197.988Z" fill="url(#paint9_linear_217_5366)"/>
<path opacity="0.3" d="M346.76 180.588C346.76 180.588 347.089 182.617 347.96 183.563C348.83 184.51 345.676 191.31 345.676 191.31L348.2 202.909L350.154 203.319L355.693 198.203C355.693 198.203 352.8 201.182 352.127 203.734L353.64 204.936L356.187 200.096L356.104 203.947L354.44 208.411C354.44 208.411 352.372 205.645 347.806 204.594L346.851 205.73C346.851 205.73 353.668 214.509 354.703 219.058C354.703 219.058 351.728 212.865 343.616 205.02L343.318 202.003L343.553 195.008C343.571 195.012 346.733 185.526 346.76 180.588Z" fill="url(#paint10_linear_217_5366)"/>
<path d="M340.938 161.176L339.402 163.763L340.17 181.696L341.256 181.721L340.938 161.176Z" fill="url(#paint11_linear_217_5366)"/>
<path d="M317.046 229.506C317.046 229.506 313.942 233.18 311.87 247.593C309.798 262.006 315.49 270.607 315.49 270.607C315.49 270.607 309.724 269.521 308.002 252.649C306.28 235.777 313.381 228.281 313.381 228.281L317.046 229.506Z" fill="url(#paint12_linear_217_5366)" fill-opacity="0.7"/>
<path d="M187.799 233.033V301.724C187.799 303.49 186.369 304.921 184.602 304.921H79.8535C78.087 304.921 76.6562 303.49 76.6562 301.724V233.033C76.6562 228.958 79.9619 225.647 84.0424 225.647H180.413C184.494 225.647 187.799 228.958 187.799 233.033Z" fill="white" stroke="#84B5FF" stroke-miterlimit="10"/>
<path d="M128.127 242.078H115.66V243.126H128.127V242.078Z" fill="#84B5FF"/>
<path d="M142.75 242.078H130.283V243.125H142.75V242.078Z" fill="#06B25F"/>
<path d="M138.844 247.732H119.513V248.779H138.844V247.732Z" fill="#276ED8"/>
<path d="M151.861 247.732H142.037V248.779H151.861V247.732Z" fill="#84B5FF"/>
<path d="M134.703 253.378H126.215V254.426H134.703V253.378Z" fill="#06B25F"/>
<path d="M167.775 253.378H139.611V254.426H167.775V253.378Z" fill="#06B25F"/>
<path d="M164.996 259.029H132.81V260.077H164.996V259.029Z" fill="#276ED8"/>
<path d="M134.668 264.676H124.763V265.723H134.668V264.676Z" fill="#84B5FF"/>
<path d="M148.813 264.676H138.908V265.723H148.813V264.676Z" fill="#276ED8"/>
<path d="M130.067 293.993H115.661V295.04H130.067V293.993Z" fill="#84B5FF"/>
<path d="M149.517 293.993H135.11V295.04H149.517V293.993Z" fill="#06B25F"/>
<path d="M168.452 293.993H154.046V295.04H168.452V293.993Z" fill="#84B5FF"/>
<path d="M147.676 288.337H119.513V289.385H147.676V288.337Z" fill="#276ED8"/>
<path d="M180.225 288.336H152.062V289.384H180.225V288.336Z" fill="#84B5FF"/>
<path d="M154.163 282.692H126.216V283.74H154.163V282.692Z" fill="#84B5FF"/>
<path d="M164.375 282.692H156.599V283.74H164.375V282.692Z" fill="#06B25F"/>
<path d="M134.911 277.039H124.393V278.087H134.911V277.039Z" fill="#06B25F"/>
<path d="M151.015 277.039H140.497V278.087H151.015V277.039Z" fill="#276ED8"/>
<path d="M168.308 277.039H157.79V278.086H168.308V277.039Z" fill="#84B5FF"/>
<path d="M151.34 271.395H136.591V272.442H151.34V271.395Z" fill="#06B25F"/>
<path d="M131.026 271.395H116.276V272.442H131.026V271.395Z" fill="#276ED8"/>
<path d="M112.188 241.076H110.844V242.422H112.188V241.076Z" fill="#84B5FF"/>
<path d="M112.186 290.335H110.842V287.598H112.186V290.335ZM112.186 283.489H110.842V280.752H112.186V283.489ZM112.186 276.643H110.842V273.906H112.186V276.643ZM112.186 269.797H110.842V267.06H112.186V269.797ZM112.186 262.951H110.842V260.214H112.186V262.951ZM112.186 256.105H110.842V253.368H112.186V256.105ZM112.186 249.259H110.842V246.522H112.186V249.259Z" fill="#84B5FF"/>
<path d="M112.186 294.443H110.842V295.789H112.186V294.443Z" fill="#84B5FF"/>
<path opacity="0.7" d="M76.4023 237.065C76.4023 233.751 79.0886 231.065 82.4023 231.065H105.327V304.926H82.4023C79.0886 304.926 76.4023 302.24 76.4023 298.926V237.065Z" fill="#84B5FF"/>
<path d="M91.1837 243.112H78.7168V244.16H91.1837V243.112Z" fill="#06B25F"/>
<path d="M100.724 249.514H81.3926V250.561H100.724V249.514Z" fill="#84B5FF"/>
<path d="M100.724 255.917H81.3926V256.964H100.724V255.917Z" fill="#84B5FF"/>
<path d="M100.724 262.319H81.3926V263.367H100.724V262.319Z" fill="#84B5FF"/>
<path d="M100.724 268.72H81.3926V269.768H100.724V268.72Z" fill="#84B5FF"/>
<path d="M101.728 281.524H82.3965V282.572H101.728V281.524Z" fill="#84B5FF"/>
<path d="M101.728 287.927H82.3965V288.975H101.728V287.927Z" fill="#84B5FF"/>
<path d="M101.728 294.328H82.3965V295.375H101.728V294.328Z" fill="#84B5FF"/>
<path d="M91.1837 275.122H78.7168V276.17H91.1837V275.122Z" fill="#06B25F"/>
<path d="M187.799 233.033V233.343H76.6562V233.033C76.6562 228.958 79.9619 225.647 84.0424 225.647H180.413C184.494 225.647 187.799 228.958 187.799 233.033Z" fill="#84B5FF"/>
<path opacity="0.3" d="M170.919 229.853C170.919 230.385 170.491 230.814 169.959 230.814C169.427 230.814 168.998 230.385 168.998 229.853C168.998 229.321 169.427 228.892 169.959 228.892C170.486 228.892 170.919 229.321 170.919 229.853Z" fill="white"/>
<path opacity="0.3" d="M176.178 229.852C176.178 230.384 175.75 230.813 175.218 230.813C174.686 230.813 174.257 230.384 174.257 229.852C174.257 229.32 174.686 228.891 175.218 228.891C175.744 228.891 176.178 229.32 176.178 229.852Z" fill="white"/>
<path opacity="0.3" d="M181.204 229.852C181.204 230.384 180.775 230.813 180.243 230.813C179.711 230.813 179.282 230.384 179.282 229.852C179.282 229.32 179.711 228.891 180.243 228.891C180.775 228.891 181.204 229.32 181.204 229.852Z" fill="white"/>
<path d="M187.799 233.033V301.724C187.799 303.49 186.369 304.921 184.602 304.921H79.8535C78.087 304.921 76.6562 303.49 76.6562 301.724V233.033C76.6562 228.958 79.9619 225.647 84.0424 225.647H180.413C184.494 225.647 187.799 228.958 187.799 233.033Z" stroke="#84B5FF" stroke-miterlimit="10"/>
<path d="M131.062 217.777C131.062 217.777 128.6 217.086 126.555 220.109L126.783 221.2C126.783 221.2 124.278 221.361 121.392 225.015C121.392 225.015 122.989 229.103 127.941 231.5C127.941 231.5 130.439 231.136 131.119 229.154L130.817 227.785L132.513 229.445C132.513 229.445 134.677 230.418 136.107 227.205L131.062 217.777Z" fill="#FFA49C"/>
<path d="M138.062 216.645C138.062 216.645 135.6 215.953 133.555 218.977L133.783 220.067C133.802 220.056 134.14 221.933 137.817 226.653L139.513 228.313C139.513 228.313 141.677 229.285 143.107 226.072L138.062 216.645Z" fill="#FFA49C"/>
<path d="M118.845 229.429C118.845 229.429 118.271 227.011 120.819 225.383L125.94 230.813C125.94 230.813 125.826 232.594 123.662 233.021C123.662 233.021 120.216 231.93 118.845 229.429Z" fill="#FFA49C"/>
<path d="M126.782 221.208C126.782 221.208 128.673 225.494 130.816 227.793L131.117 229.162C131.117 229.162 126.858 225.4 125.618 221.544C125.61 221.543 126.226 221.211 126.782 221.208Z" fill="#E28183"/>
<path d="M121.347 225.244C121.347 225.244 123.451 228.257 125.425 229.691L125.87 230.702C125.87 230.702 122.075 228.477 120.528 225.692C120.522 225.692 120.93 225.336 121.347 225.244Z" fill="#E28183"/>
<path d="M131.355 217.944C131.355 217.944 134.233 220.949 136.763 225.286L134.955 225.286C134.955 225.286 133.568 223.336 131.885 219.471C131.885 219.471 130.799 217.947 131.355 217.944Z" fill="#E28183"/>
<path d="M138.273 216.659C138.273 216.659 142.346 221.375 144.715 225.286L142.546 225.286C142.546 225.286 141.243 224.251 138.983 218.81C138.983 218.81 137.517 216.668 138.273 216.659Z" fill="#FF9E8D"/>
<path d="M348.199 141.418V153.094L358.208 146.722L348.199 141.418Z" fill="white"/>
<path d="M352.718 284.188C353.435 281.37 367.725 209.926 367.725 209.926C367.725 209.926 329.618 198.7 305.247 209.926L320.855 284.812L352.718 284.188Z" fill="white"/>
<path opacity="0.83" d="M346.036 286.368C346.496 285.962 348.086 284.553 349.554 283.201C351.287 281.595 352.305 280.23 352.305 280.23C352.305 280.23 352.063 277.666 352.063 276.949C352.063 276.225 355.893 259.144 359.657 253.857C363.17 248.925 359.719 221.142 359.236 217.391L359.179 216.972C359.179 216.972 356.698 221.142 355.624 229.438C354.544 237.741 356.069 254.098 356.069 254.098C356.069 254.098 353.919 267.326 348.626 267.567C348.626 267.567 353.067 276.282 351.315 280.655C350.979 281.487 346.846 285.6 346.036 286.368Z" fill="#CAC3CD" fill-opacity="0.3"/>
<path d="M354.592 247.855C354.592 247.855 325.943 250.811 318.035 244.898C318.058 244.898 327.931 268.574 354.592 247.855Z" fill="#CAC3CD" fill-opacity="0.3"/>
<path d="M354.567 283.929C354.567 283.929 377.735 332.436 368.278 486.781C368.278 486.781 358.289 488.883 355.145 487.82C355.145 487.82 326.565 353.687 333.502 286.355L354.567 283.929Z" fill="#84B5FF"/>
<path d="M341.478 315.114C341.478 315.114 342.01 440.586 320.46 484.681L304.158 484.15C304.158 484.15 295.464 334.355 320.83 283.77L340.276 285.918L341.478 315.114Z" fill="#84B5FF"/>
<path d="M355.931 287.028C355.931 287.028 337.941 292.387 319.674 285.18L319.443 277.997C319.443 277.997 328.808 280.815 336.785 280.33C344.739 279.868 355.514 278.459 355.514 278.459L355.931 287.028Z" fill="#8F99B6"/>
<path d="M351.746 277.046C351.746 277.046 354.775 288.757 351.977 290.143C349.156 291.552 347.514 290.929 347.514 290.929L347.537 277.97L351.746 277.046Z" fill="#84B5FF"/>
<path d="M322.842 276.125C322.842 276.125 320.946 287.074 323.328 289.129C326.565 291.878 326.75 289.661 326.75 289.661L327.051 277.072L322.842 276.125Z" fill="#84B5FF"/>
<path d="M342.38 277.997C342.38 279.406 341.894 288.068 341.894 288.068L331.813 288.299L330.888 278.228L342.38 277.997ZM333.478 286.566L340.276 286.104L340.507 280.768H333.015L333.478 286.566Z" fill="#EAEAEA"/>
<path d="M347.318 205.963C348.359 212.084 340.15 212.615 340.15 212.615C336.52 212.615 330.855 211.506 330.855 207.88L332.612 185.22C332.612 181.594 335.549 178.66 339.179 178.66C342.809 178.66 345.746 181.594 345.746 185.22L347.318 205.963Z" fill="#F39B8D"/>
<path d="M321.057 126.043C322.08 124.59 328.107 127.055 329.005 125.492C332.563 129.599 342.109 123.616 346.58 126.954C352.435 131.329 357.051 135.547 363.768 138.448C365.978 139.404 362.46 140.494 364.877 140.917C364.984 145.215 367.286 158.849 366.504 163.174C362.564 184.863 345.113 195.395 329.587 191.376C317.853 188.327 308.092 173.294 307.751 151.923C307.544 139.029 319.324 130.457 319.706 128.549C326.047 123.766 316.408 132.555 321.057 126.043Z" fill="#FBB2A6"/>
<path d="M336.97 171.025C336.97 171.025 333.224 177.331 329.201 170.909L336.97 171.025Z" fill="#D8826C"/>
<path d="M340.832 158.23C340.832 162.388 344.208 165.783 348.393 165.783C352.578 165.783 355.954 162.411 355.954 158.23C355.954 154.072 352.578 150.677 348.393 150.677C344.208 150.677 340.832 154.072 340.832 158.23Z" fill="white"/>
<path d="M344.195 160.015C344.357 163.029 346.334 165.383 348.617 165.281C350.906 165.16 352.62 162.631 352.477 159.624C352.321 156.591 350.337 154.256 348.073 154.365C345.772 154.46 344.039 156.982 344.195 160.015Z" fill="#06B25F"/>
<path d="M345.406 159.955C345.52 162.089 346.923 163.761 348.55 163.681C350.177 163.6 351.41 161.803 351.284 159.643C351.177 157.491 349.773 155.819 348.147 155.899C346.513 155.998 345.299 157.803 345.406 159.955Z" fill="#400404"/>
<path opacity="0.8" d="M345.027 156.282C345.051 156.873 345.759 157.302 346.595 157.259C347.431 157.216 348.093 156.701 348.062 156.129C348.038 155.538 347.33 155.109 346.494 155.152C345.658 155.195 344.996 155.71 345.027 156.282Z" fill="white"/>
<path d="M344.947 177.103C344.947 177.103 332.762 182.716 327.605 177.565C327.605 177.565 332.299 189.276 344.947 177.103Z" fill="#D5503B"/>
<path d="M340.83 158.232C340.83 158.232 340.229 153.381 344.969 150.932C352.23 147.191 356.207 155.852 358.565 157.261C358.565 157.261 357.039 158.786 355.929 158.255C355.929 158.232 347.328 147.953 340.83 158.232Z" fill="#302725"/>
<path d="M328.934 158.713C328.934 162.894 325.558 166.267 321.372 166.267C317.21 166.267 313.811 162.894 313.811 158.713C313.811 154.556 317.187 151.183 321.372 151.183C325.535 151.16 328.934 154.556 328.934 158.713Z" fill="white"/>
<path d="M317.503 159.831C317.788 162.837 319.918 165.07 322.283 164.824C324.649 164.578 326.32 161.953 326.033 158.967C325.748 155.96 323.618 153.727 321.255 153.953C318.909 154.201 317.218 156.824 317.503 159.831Z" fill="#06B25F"/>
<path d="M318.92 159.74C319.087 161.946 320.485 163.552 322.063 163.37C323.641 163.188 324.778 161.233 324.627 159.05C324.459 156.844 323.046 155.214 321.465 155.417C319.906 155.601 318.752 157.533 318.92 159.74Z" fill="#400404"/>
<path opacity="0.8" d="M317.84 155.644C317.915 156.223 318.798 156.648 319.784 156.574C320.792 156.503 321.526 155.973 321.473 155.396C321.398 154.817 320.538 154.395 319.53 154.466C318.521 154.537 317.765 155.065 317.84 155.644Z" fill="white"/>
<path d="M329.05 157.786C329.05 157.786 329.651 153.467 324.911 151.295C317.65 147.969 313.673 155.661 311.338 156.908C311.338 156.908 312.864 158.248 313.974 157.786C313.95 157.786 321.743 148.431 329.05 157.786Z" fill="#302725"/>
<path d="M357.75 147.882C357.75 147.882 350.073 141.022 342.72 143.979C341.009 144.672 340.616 145.48 339.529 148.806C339.529 148.806 347.9 144.117 357.75 147.882Z" fill="#6F3B1E"/>
<path d="M311.337 149.78C311.337 149.78 315.707 141.857 322.366 143.451C323.916 143.82 324.447 144.536 326.182 147.539C326.182 147.562 318.251 144.49 311.337 149.78Z" fill="#6F3B1E"/>
<path d="M364.673 153.013C364.673 153.013 372.835 141.879 375.194 152.574C377.067 161.097 369.459 167.357 364.742 165.763C360.025 164.17 364.673 153.013 364.673 153.013Z" fill="#FBB2A6"/>
<path d="M364.58 154.996C364.58 154.996 370.36 147.974 371.84 151.278C373.32 154.581 372.441 158.461 372.441 158.461C372.441 158.461 371.84 154.026 368.325 156.082C368.325 156.082 370.823 163.381 364.58 160.609C364.556 160.609 362.105 158.184 364.58 154.996Z" fill="#F39B8D"/>
<path d="M364.226 166.327C364.226 167.459 365.082 168.359 366.122 168.359C367.186 168.359 368.019 167.435 368.019 166.327C368.019 165.195 367.163 164.271 366.122 164.271C365.082 164.271 364.226 165.172 364.226 166.327Z" fill="white"/>
<path d="M297.916 145.367C304.529 147.215 311.974 145.876 317.593 141.833C323.212 137.791 326.865 131.116 327.235 124.209C327.351 122.292 326.958 119.982 325.224 119.197C324.622 118.92 323.929 118.897 323.258 118.92C319.165 119.035 315.235 120.767 311.974 123.285C308.714 125.803 306.124 129.06 303.835 132.478C302.193 134.95 300.714 137.537 299.812 140.355C299.257 142.134 298.933 143.982 298.864 145.829" fill="url(#paint13_linear_217_5366)"/>
<path d="M325.8 128.53C337.894 135.367 351.582 147.447 364.693 146.778C365.363 146.755 368.739 142.62 369.017 142.089C369.248 141.627 368.994 141.049 368.739 140.541C366.08 135.506 358.958 126.751 353.663 123.771C348.368 120.792 342.564 118.898 336.784 117.188C333.847 116.334 330.864 115.502 327.905 115.456C324.968 115.41 322.008 116.218 320.367 118.205" fill="url(#paint14_linear_217_5366)"/>
<path d="M305.127 209.744C305.127 209.744 279.497 268.645 288.865 276.782C288.865 276.782 298.233 281.789 306.376 259.257C314.518 236.703 314.495 208.446 305.127 209.744Z" fill="white"/>
<path opacity="0.83" d="M291.609 277.053C292.123 276.719 293.905 275.561 295.556 274.441C297.508 273.11 294.837 278.417 294.837 278.417C294.837 278.417 294.731 277.167 294.837 276.458C294.945 275.742 301.261 259.417 305.766 254.745C309.97 250.387 310.67 222.4 310.747 218.618L310.753 218.195C310.753 218.195 307.682 221.952 305.392 229.998C303.095 238.049 302.181 254.452 302.181 254.452C302.181 254.452 298.097 267.216 292.827 266.671C292.827 266.671 296.368 273.267 293.989 277.333C293.533 278.105 292.523 276.413 291.609 277.053Z" fill="#CAC3CD" fill-opacity="0.3"/>
<path d="M307.624 249.242C307.624 249.242 286.019 264.379 287.638 273.674C287.893 275.181 288.887 276.803 288.887 276.803C288.887 276.803 298.256 287.466 310.145 263.034C310.122 263.011 317.015 247.364 307.624 249.242Z" fill="white"/>
<path d="M304.503 245.79C306.469 241.455 311.928 238.21 313.663 238.465C315.051 237.793 316.439 238.025 317.618 240.319C319.307 243.588 319.238 249.198 317.942 252.698C315.421 259.513 308.435 250.89 308.736 245.466C306.03 247.784 302.467 250.287 304.503 245.79Z" fill="#F0A98F"/>
<path d="M313.87 238.903C313.87 238.903 321.99 265.213 319.491 266.465C316.993 267.717 304.479 267.717 304.479 267.717C304.479 267.717 295.735 239.529 297.609 238.903C299.506 238.277 313.269 237.652 313.87 238.903Z" fill="#06B25F"/>
<path d="M328.999 270.546C328.999 270.546 325.83 269.897 324.627 268.297C323.424 266.698 322.684 266.002 318.405 264.148C314.148 262.294 312.46 259.813 312.46 259.813C312.46 259.813 309.476 262.734 315.999 265.84C320.001 267.741 306.862 267.764 302.906 267.37C302.906 267.37 300.616 268.714 304.387 270.546C308.157 272.377 304.526 272.586 311.997 275.738C319.469 278.868 328.351 280.397 330.178 275.645C332.006 270.893 328.999 270.546 328.999 270.546Z" fill="#FFBC9F"/>
<path d="M357.52 228.005C356.062 235.237 362.331 265.835 362.331 265.835C358.075 265.557 339.13 266.67 332.121 267.458C329.739 267.713 328.212 267.898 328.212 267.898L325.876 280.022C327.194 280.323 328.49 280.578 329.762 280.833C355.044 285.585 373.573 278.677 373.573 278.677C381.206 231.899 367.628 209.739 367.628 209.739C361.359 209.322 357.52 228.005 357.52 228.005Z" fill="white"/>
<path d="M358.337 197.883C358.337 197.883 356.404 205.497 353.305 211.718C353.305 211.718 353.028 214.472 356.141 215.317L357.104 214.613C357.104 214.613 357.01 217.787 359.746 218.604L362.954 216.508L361.809 218.554C361.809 218.554 362.272 221.09 364.807 221.522C364.807 221.522 369.7 219.115 370.873 214.877L367.46 210.482L368.026 207.789L363.823 203.278L364.15 201.291C364.129 201.297 361.688 198.547 358.337 197.883Z" fill="url(#paint15_linear_217_5366)"/>
<path d="M364.215 201.144C364.215 201.144 361.098 210.786 357.041 214.829C357.041 214.829 361.966 210.73 363.88 203.174L364.215 201.144Z" fill="#E28183"/>
<path d="M367.929 208.002C367.929 208.002 365.355 215.491 359.917 218.81C359.917 218.81 364.372 217.56 367.364 210.69L367.929 208.002Z" fill="#E28183"/>
<path d="M326.88 205.045H331.579C331.579 205.045 330.081 209.091 331.94 210.105C335.916 212.274 336.277 212.274 341.699 212.274C344.918 212.274 347.12 205.768 347.12 205.768L351.096 206.491C351.096 206.491 346.901 214.134 341.699 215.888C338.088 217.106 335.27 217.742 331.94 215.888C328.079 213.739 326.88 205.045 326.88 205.045Z" fill="#CAC3CD" fill-opacity="0.3"/>
</g>
<path d="M497.243 243.139V240.033C497.243 239.461 496.78 238.998 496.208 238.998C495.636 238.998 495.172 239.461 495.172 240.033V240.064C493.307 237.171 491.277 234.58 490.165 233.217C489.804 232.773 489.152 232.705 488.709 233.07C488.265 233.431 488.2 234.083 488.561 234.526C490.581 237.002 492.178 239.198 493.423 241.121C492.876 240.946 492.3 241.236 492.121 241.776C491.94 242.319 492.233 242.906 492.775 243.086L495.063 243.849C497.343 247.996 497.592 250.396 496.904 251.084C496.17 251.817 493.475 251.563 488.301 248.442C485.165 246.55 481.672 243.938 478.103 240.845C479.569 239.52 481.038 238.125 482.493 236.669C487.683 231.478 492.122 226.113 495.173 221.385V221.396C495.173 221.969 495.636 222.432 496.208 222.432C496.78 222.432 497.243 221.968 497.243 221.396V218.29C497.243 218.193 497.203 218.106 497.177 218.015C499.555 213.537 499.956 210.47 498.368 208.882C495.289 205.803 487.147 210.986 482.568 214.35C482.107 214.687 482.008 215.336 482.347 215.797C482.683 216.256 483.331 216.355 483.793 216.018C491.232 210.555 495.807 209.247 496.904 210.346C497.57 211.011 497.401 213.31 495.039 217.589L492.775 218.344C492.233 218.524 491.94 219.11 492.121 219.653C492.298 220.186 492.862 220.474 493.402 220.311C490.433 224.905 486.102 230.131 481.03 235.205C479.54 236.695 478.037 238.116 476.54 239.464C475.044 238.116 473.541 236.695 472.051 235.205C466.979 230.131 462.647 224.905 459.678 220.311C460.219 220.474 460.783 220.186 460.96 219.653C461.141 219.11 460.847 218.524 460.306 218.344L458.041 217.589C455.68 213.31 455.511 211.011 456.176 210.346C457.276 209.246 461.852 210.556 469.297 216.026C469.756 216.364 470.406 216.265 470.744 215.805C471.082 215.345 470.983 214.697 470.522 214.358C465.941 210.989 457.79 205.8 454.712 208.882C453.124 210.47 453.526 213.538 455.904 218.015C455.878 218.106 455.838 218.193 455.838 218.29V221.396C455.838 221.969 456.301 222.432 456.873 222.432C457.445 222.432 457.908 221.968 457.908 221.396V221.385C460.959 226.113 465.398 231.478 470.587 236.669C472.042 238.125 473.512 239.52 474.977 240.845C471.408 243.938 467.916 246.55 464.78 248.442C459.6 251.565 456.906 251.813 456.176 251.084C455.489 250.396 455.738 247.996 458.018 243.848L460.306 243.086C460.848 242.906 461.141 242.319 460.96 241.776C460.781 241.237 460.205 240.946 459.658 241.121C460.898 239.207 462.485 237.022 464.493 234.559C464.854 234.116 464.787 233.464 464.344 233.102C463.902 232.742 463.25 232.811 462.887 233.251C461.781 234.608 459.765 237.184 457.908 240.063V240.033C457.908 239.461 457.445 238.998 456.873 238.998C456.301 238.998 455.838 239.461 455.838 240.033V243.139C455.838 243.251 455.88 243.351 455.913 243.454C453.972 247.126 452.893 250.729 454.712 252.548C455.347 253.183 456.218 253.499 457.32 253.499C459.37 253.499 462.223 252.402 465.849 250.215C469.142 248.228 472.808 245.476 476.54 242.226C480.272 245.476 483.938 248.228 487.231 250.215C490.857 252.403 493.71 253.5 495.761 253.499C496.863 253.499 497.733 253.183 498.368 252.548C500.187 250.729 499.109 247.128 497.167 243.455C497.201 243.352 497.243 243.251 497.243 243.139Z" fill="#66D6A0"/>
<path d="M466.186 221.401C466.186 221.973 466.649 222.436 467.221 222.436C467.793 222.436 468.256 221.973 468.256 221.401C468.256 220.829 468.721 220.365 469.292 220.365C469.863 220.365 470.327 220.829 470.327 221.401C470.327 221.972 469.863 222.436 469.292 222.436C468.72 222.436 468.256 222.899 468.256 223.472C468.256 224.044 468.72 224.507 469.292 224.507C469.863 224.507 470.327 224.971 470.327 225.543C470.327 226.114 469.863 226.578 469.292 226.578C468.721 226.578 468.256 226.114 468.256 225.543C468.256 224.97 467.793 224.507 467.221 224.507C466.649 224.507 466.186 224.97 466.186 225.542C466.186 227.255 467.579 228.649 469.292 228.649C471.005 228.649 472.398 227.255 472.398 225.542C472.398 224.748 472.098 224.022 471.605 223.472C472.098 222.921 472.398 222.195 472.398 221.401C472.398 219.688 471.005 218.294 469.292 218.294C467.579 218.294 466.186 219.688 466.186 221.401Z" fill="#66D6A0"/>
<path d="M483.787 228.648C485.5 228.648 486.893 227.254 486.893 225.541V221.4C486.893 219.687 485.5 218.293 483.787 218.293C482.074 218.293 480.681 219.687 480.681 221.4V225.541C480.681 227.254 482.074 228.648 483.787 228.648ZM482.752 221.4C482.752 220.829 483.216 220.364 483.787 220.364C484.358 220.364 484.823 220.828 484.823 221.4V225.542C484.823 226.113 484.358 226.577 483.787 226.577C483.216 226.577 482.752 226.113 482.752 225.542V221.4Z" fill="#66D6A0"/>
<path d="M476.541 228.648C478.254 228.648 479.647 227.254 479.647 225.541C479.647 223.829 478.254 222.435 476.541 222.435C476.223 222.435 475.922 222.497 475.632 222.587C475.866 221.644 476.552 220.364 478.612 220.364C479.184 220.364 479.647 219.901 479.647 219.329C479.647 218.757 479.184 218.293 478.612 218.293C474.516 218.293 473.435 221.68 473.435 223.471V225.541C473.435 227.254 474.828 228.648 476.541 228.648ZM476.541 224.506C477.112 224.506 477.576 224.97 477.576 225.542C477.576 226.113 477.112 226.577 476.541 226.577C475.969 226.577 475.505 226.113 475.505 225.541C475.505 224.97 475.969 224.506 476.541 224.506Z" fill="#66D6A0"/>
<path d="M491.035 218.294C491.035 217.152 490.106 216.223 488.964 216.223C487.823 216.223 486.894 217.152 486.894 218.294C486.894 219.436 487.823 220.365 488.964 220.365C490.106 220.365 491.035 219.436 491.035 218.294Z" fill="#66D6A0"/>
<defs>
<linearGradient id="paint0_linear_217_5366" x1="282.061" y1="260.345" x2="365.553" y2="107.818" gradientUnits="userSpaceOnUse">
<stop stop-color="#12844D"/>
<stop offset="1" stop-color="#3BE090"/>
</linearGradient>
<linearGradient id="paint1_linear_217_5366" x1="180.4" y1="304.843" x2="180.4" y2="262.514" gradientUnits="userSpaceOnUse">
<stop stop-color="#CF6074"/>
<stop offset="1" stop-color="#FF817F"/>
</linearGradient>
<linearGradient id="paint2_linear_217_5366" x1="195.425" y1="302.856" x2="195.425" y2="201.994" gradientUnits="userSpaceOnUse">
<stop stop-color="#79ADFA"/>
<stop offset="1" stop-color="#2C72DA"/>
</linearGradient>
<linearGradient id="paint3_linear_217_5366" x1="248.756" y1="442.884" x2="248.756" y2="318.087" gradientUnits="userSpaceOnUse">
<stop stop-color="#000B78"/>
<stop offset="1" stop-color="#1B279B"/>
</linearGradient>
<linearGradient id="paint4_linear_217_5366" x1="295.815" y1="272.821" x2="295.815" y2="198.748" gradientUnits="userSpaceOnUse">
<stop stop-color="#7CAFFC"/>
<stop offset="1" stop-color="#2C72DA"/>
</linearGradient>
<linearGradient id="paint5_linear_217_5366" x1="244.232" y1="332.63" x2="244.232" y2="193.475" gradientUnits="userSpaceOnUse">
<stop stop-color="#67A1F8"/>
<stop offset="1" stop-color="#1B67D9"/>
</linearGradient>
<linearGradient id="paint6_linear_217_5366" x1="259.536" y1="186.426" x2="231.785" y2="186.426" gradientUnits="userSpaceOnUse">
<stop stop-color="#CF6074"/>
<stop offset="1" stop-color="#FF817F"/>
</linearGradient>
<linearGradient id="paint7_linear_217_5366" x1="265.303" y1="201.894" x2="265.303" y2="201.681" gradientUnits="userSpaceOnUse">
<stop stop-color="#9D68C2"/>
<stop offset="1" stop-color="#CCEDFF"/>
</linearGradient>
<linearGradient id="paint8_linear_217_5366" x1="230.529" y1="211.038" x2="230.529" y2="197.517" gradientUnits="userSpaceOnUse">
<stop stop-color="#3D2CB0"/>
<stop offset="1" stop-color="#0355C7"/>
</linearGradient>
<linearGradient id="paint9_linear_217_5366" x1="360.214" y1="220.748" x2="364.702" y2="199.397" gradientUnits="userSpaceOnUse">
<stop offset="0.016" stop-color="#FFC2A9"/>
<stop offset="1" stop-color="#FF9595"/>
</linearGradient>
<linearGradient id="paint10_linear_217_5366" x1="346.956" y1="217.434" x2="354.365" y2="182.188" gradientUnits="userSpaceOnUse">
<stop stop-color="#FFEADB"/>
<stop offset="0.9944" stop-color="#C27CB6"/>
</linearGradient>
<linearGradient id="paint11_linear_217_5366" x1="340.331" y1="181.719" x2="340.331" y2="161.172" gradientUnits="userSpaceOnUse">
<stop stop-color="#A242EA"/>
<stop offset="1" stop-color="#FE117E"/>
</linearGradient>
<linearGradient id="paint12_linear_217_5366" x1="312.386" y1="270.614" x2="312.386" y2="228.286" gradientUnits="userSpaceOnUse">
<stop stop-color="#CF6074"/>
<stop offset="1" stop-color="#FF817F"/>
</linearGradient>
<linearGradient id="paint13_linear_217_5366" x1="298.05" y1="146.109" x2="323.142" y2="118.841" gradientUnits="userSpaceOnUse">
<stop stop-color="#25B770" stop-opacity="0.6"/>
<stop offset="1" stop-color="#1FCF79"/>
</linearGradient>
<linearGradient id="paint14_linear_217_5366" x1="367.668" y1="144.513" x2="325.317" y2="119.276" gradientUnits="userSpaceOnUse">
<stop stop-color="#33CF83"/>
<stop offset="1" stop-color="#32CE82"/>
</linearGradient>
<linearGradient id="paint15_linear_217_5366" x1="360.532" y1="220.642" x2="365.02" y2="199.292" gradientUnits="userSpaceOnUse">
<stop offset="0.016" stop-color="#FFC2A9"/>
<stop offset="1" stop-color="#FF9595"/>
</linearGradient>
</defs>
</svg>
