<svg width="590" height="525" viewBox="0 0 590 525" fill="none" xmlns="http://www.w3.org/2000/svg">
<path opacity="0.08" d="M178.336 450.444C294.005 474.731 479.057 430.488 539.54 363.477C600.022 296.466 532.025 225.603 485.825 200.19C471.452 192.334 455.444 186.878 443.604 175.678C417.75 151.146 407.724 110.115 375.923 93.585C348.417 79.2663 332.586 129.175 302.318 121.565C289.111 118.325 213.326 80.3986 161.458 97.8769C114.106 113.833 49.5719 192.437 72.1101 268.535C94.6483 344.634 19.9447 417.186 178.336 450.444Z" fill="#84B5FF"/>
<path opacity="0.08" d="M242.168 447.917C334.588 474.447 484.416 446.48 534.633 392.811C584.849 339.143 531.862 275.601 495.321 251.692C483.952 244.296 471.211 238.849 461.958 228.75C441.753 206.634 434.666 171.352 409.491 155.709C387.717 142.162 373.805 183.636 349.65 175.631C339.108 172.206 279.078 136.171 236.963 148.313C198.514 159.397 144.765 222.679 161.08 288.318C177.395 353.957 115.613 411.589 242.168 447.917Z" fill="#84B5FF"/>
<mask id="mask0_620_6649" style="mask-type:alpha" maskUnits="userSpaceOnUse" x="150" y="104" width="406" height="355">
<path d="M242.166 447.917C334.586 474.447 484.415 446.48 534.631 392.811C584.848 339.143 531.861 275.601 495.319 251.692C483.95 244.296 497.389 233.536 488.135 223.437C467.931 201.321 520.495 137.396 495.319 121.753C473.545 108.206 416.916 113.226 392.762 105.221C382.22 101.796 285.004 115.877 267.174 112.81C227.739 106.026 175.398 228.676 164.492 265.932C153.586 303.188 115.612 411.589 242.166 447.917Z" fill="#84B5FF"/>
</mask>
<g mask="url(#mask0_620_6649)">
<path d="M365.387 432.543H378.645V466.077H365.387V432.543Z" fill="#969391"/>
<path d="M427.751 422.052C427.751 428.463 421.694 440.852 414.687 440.852H333.991C326.984 440.852 324.539 428.436 324.539 422.052V421.563C324.539 415.151 326.984 408.25 333.991 408.25H414.687C421.694 408.25 427.751 415.151 427.751 421.563V422.052Z" fill="#435467"/>
<path d="M462.57 409.019C462.081 415.838 455.508 420.973 447.849 420.511C445.622 420.375 362.482 422.141 359.06 421.842C344.121 420.593 366.04 414.507 359.06 406.628C347.245 406.682 344.855 406.519 342.22 405.46C338.2 403.857 303.488 395.896 300.908 386.795C298.328 377.666 288.306 262.497 288.306 262.497C292.461 255.515 336.842 259.97 357.62 262.497C368.648 263.856 375.058 273.827 375.058 281.515C375.058 284.178 375.384 286.868 375.547 289.53C376.388 303.006 377.122 316.482 377.937 329.957C378.398 337.293 378.752 344.656 379.105 352.018C379.295 356.012 379.512 360.033 379.784 364.027C380.055 368.401 379.566 373.645 380.734 377.883C384.157 390.653 409.579 391.93 420.416 392.065C437.799 392.283 433.861 392.88 442.308 393.886C449.75 394.782 455.101 396.059 458.795 399.618C461.429 402.172 462.787 405.595 462.57 409.019Z" fill="#C1C7CC"/>
<path d="M329.753 421.218C350.178 423.31 363.08 421.925 364.764 422.006C370.495 422.305 374.243 418.909 374.786 411.927C375.058 408.422 374.107 404.972 372.178 402.418C369.462 398.859 365.47 397.663 359.902 396.93C353.573 396.087 343.714 395.734 330.622 395.924C326.358 395.979 321.958 395.598 317.775 394.838C312.913 393.941 309.029 391.795 305.037 388.616C300.148 384.731 300.799 376.39 300.881 369.978C300.935 365.984 300.908 362.045 300.799 358.078C300.338 339.386 300.311 320.667 300.093 301.974C299.985 291.514 299.849 281.082 299.74 270.622C299.659 263.666 294.906 258.368 289.147 258.857C283.362 259.319 278.772 265.351 278.853 272.306L280.211 385.709C280.211 386.144 280.239 386.551 280.266 386.986C280.429 388.725 281.651 397.826 289.093 406.33C296.59 414.888 307.508 419.779 321.659 420.974C324.239 421.164 326.983 420.92 329.753 421.218Z" fill="#979B9E"/>
<path d="M357.063 313.432C341.719 325.194 319.449 329.957 302.293 320.856C296.912 318.009 291.957 313.458 290.892 307.604C289.613 300.552 294.168 293.26 292.25 286.341C290.572 280.221 284.445 276.469 279.89 271.945C273.283 265.398 269.447 256.271 269.474 247.09C269.5 237.909 273.336 228.808 279.97 222.288C285.59 216.753 292.916 213.187 299.363 208.557C304.451 204.884 309.033 200.121 311.457 194.346C313.854 188.651 311.883 185.298 311.537 179.71C310.818 167.762 313.828 154.403 322.432 145.515C333.567 133.965 350.11 134.152 364.735 137.132C372.141 138.622 380.319 140.937 386.819 144.876C389.589 146.552 391.427 148.601 393.319 151.289C393.931 152.141 397.341 160.63 397.208 160.603C418.892 165.553 407.251 195.57 413.911 209.355C416.015 213.693 419.691 217.046 422.915 220.638C428.562 226.972 432.984 234.582 434.369 242.938C435.755 251.294 433.863 260.395 428.242 266.729C427.337 267.767 426.271 268.778 425.925 270.109C425.392 272.104 426.511 274.1 427.337 275.99C432.265 287.299 426.618 300.392 419.505 310.478C414.736 317.264 409.116 323.704 401.817 327.642C390.175 333.949 375.471 332.964 363.483 327.323" fill="url(#paint0_linear_620_6649)"/>
<path opacity="0.42" d="M367.453 164.651C374.779 161.085 384.129 165.05 388.658 171.836C393.16 178.622 399.021 184.663 397.955 192.726C397.422 196.718 396.543 200.789 397.342 204.754C399.367 215.026 405.707 222.531 412.314 230.647C417.908 237.513 419.719 246.64 421.158 255.369C422.01 260.585 422.703 266.333 419.932 270.83C416.416 276.525 412.393 283.869 408.611 289.378C402.377 298.399 406.027 307.208 398.488 315.191C396.25 317.533 393.107 318.757 390.017 319.741C383.757 321.684 377.283 322.828 370.73 323.174C365.136 323.467 359.462 323.121 354.187 321.285C341.241 316.734 332.583 302.205 334.927 288.686C336.712 278.441 343.771 269.925 347.128 260.052C349.525 252.974 349.925 245.23 348.3 237.938C346.222 228.731 340.921 219.577 343.212 210.422" fill="#113356"/>
<path d="M341.325 251.045C340.13 258.082 349.582 258.68 349.582 258.68C353.738 258.68 360.229 257.403 360.229 253.246L358.219 227.191C358.219 223.034 354.824 219.638 350.668 219.638C346.513 219.638 343.118 223.007 343.118 227.191L341.325 251.045Z" fill="#D8826C"/>
<path d="M378.242 159.001C377.283 157.191 370.037 159.134 369.238 157.218C364.576 161.396 354.533 153.173 348.939 156.34C341.613 160.491 335.726 164.643 327.627 166.984C324.964 167.756 328.826 169.513 326.002 169.646C325.257 174.542 320.648 189.79 320.914 194.846C322.273 220.207 340.92 236.174 359.248 233.832C373.1 232.049 386.207 214.885 389.696 190.509C390.016 188.22 391.694 177.203 391.535 174.968C384.981 168.581 382.61 167.118 378.242 159.001Z" fill="#F0A98F"/>
<path d="M355.307 208.235C355.307 208.235 359.623 215.5 364.258 208.102L355.307 208.235Z" fill="#D8826C"/>
<path d="M350.857 193.492C350.857 198.282 346.967 202.194 342.146 202.194C337.324 202.194 333.435 198.308 333.435 193.492C333.435 188.702 337.324 184.79 342.146 184.79C346.967 184.79 350.857 188.702 350.857 193.492Z" fill="white"/>
<path d="M348.244 198.283C346.699 201.929 343.209 203.951 340.439 202.807C337.669 201.636 336.683 197.751 338.201 194.105C339.746 190.433 343.236 188.437 345.98 189.581C348.777 190.726 349.789 194.611 348.244 198.283Z" fill="#84B5FF"/>
<path d="M346.78 197.671C345.688 200.252 343.21 201.689 341.239 200.864C339.268 200.039 338.548 197.272 339.667 194.664C340.76 192.056 343.237 190.619 345.208 191.444C347.18 192.295 347.872 195.063 346.78 197.671Z" fill="#400404"/>
<path d="M348.883 193.308C348.59 194.026 347.524 194.239 346.512 193.813C345.5 193.388 344.914 192.456 345.207 191.764C345.5 191.046 346.565 190.833 347.578 191.259C348.59 191.684 349.176 192.616 348.883 193.308Z" fill="white"/>
<path d="M346.115 215.235C346.115 215.235 360.154 221.702 366.095 215.768C366.095 215.768 360.687 229.259 346.115 215.235Z" fill="#D5503B"/>
<path d="M350.856 193.493C350.856 193.493 351.549 187.905 346.088 185.084C337.723 180.773 333.141 190.752 330.424 192.375C330.424 192.375 332.182 194.132 333.461 193.52C333.461 193.493 343.371 181.651 350.856 193.493Z" fill="#302725"/>
<path d="M366.759 194.693C366.759 199.51 370.649 203.395 375.47 203.395C380.265 203.395 384.181 199.51 384.181 194.693C384.181 189.903 380.292 186.018 375.47 186.018C370.675 185.991 366.759 189.903 366.759 194.693Z" fill="white"/>
<path d="M381.381 198.578C380.555 202.463 377.385 205.071 374.268 204.406C371.151 203.74 369.313 200.068 370.139 196.209C370.965 192.324 374.135 189.716 377.252 190.355C380.342 191.02 382.206 194.693 381.381 198.578Z" fill="#84B5FF"/>
<path d="M379.757 198.231C379.171 200.998 376.933 202.835 374.722 202.382C372.511 201.93 371.206 199.295 371.765 196.554C372.351 193.787 374.615 191.924 376.826 192.403C379.011 192.855 380.343 195.463 379.757 198.231Z" fill="#400404"/>
<path d="M381.01 193.549C380.85 194.294 379.785 194.72 378.666 194.48C377.52 194.241 376.748 193.442 376.881 192.697C377.041 191.952 378.08 191.526 379.225 191.766C380.371 192.005 381.17 192.804 381.01 193.549Z" fill="white"/>
<path d="M366.626 193.625C366.626 193.625 365.933 188.648 371.394 186.147C379.759 182.315 384.341 191.177 387.032 192.614C387.032 192.614 385.273 194.157 383.995 193.625C384.021 193.625 375.044 182.847 366.626 193.625Z" fill="#302725"/>
<path d="M334.977 181.142C334.977 181.142 343.821 173.239 352.292 176.645C354.264 177.443 354.717 178.375 355.969 182.207C355.969 182.207 346.325 176.805 334.977 181.142Z" fill="#6F3B1E"/>
<path d="M386.925 184.444C386.925 184.444 381.89 175.316 374.218 177.152C372.433 177.578 371.821 178.403 369.823 181.863C369.823 181.889 378.96 178.35 386.925 184.444Z" fill="#6F3B1E"/>
<path d="M323.389 187.476C323.389 187.476 313.985 174.65 311.268 186.971C309.11 196.79 317.875 204.002 323.309 202.166C328.743 200.33 323.389 187.476 323.389 187.476Z" fill="#F0A98F"/>
<path d="M323.497 189.765C323.497 189.765 316.837 181.676 315.133 185.481C313.428 189.286 314.44 193.757 314.44 193.757C314.44 193.757 315.133 188.648 319.182 191.016C319.182 191.016 316.305 199.425 323.497 196.232C323.524 196.232 326.348 193.438 323.497 189.765Z" fill="#D8826C"/>
<path d="M323.905 202.823C323.905 204.127 322.92 205.165 321.721 205.165C320.496 205.165 319.537 204.101 319.537 202.823C319.537 201.52 320.522 200.455 321.721 200.455C322.92 200.455 323.905 201.493 323.905 202.823Z" fill="white"/>
<path d="M400.298 178.669C392.68 180.798 384.102 179.255 377.628 174.598C371.155 169.941 366.946 162.25 366.52 154.293C366.387 152.085 366.84 149.424 368.838 148.519C369.53 148.199 370.329 148.173 371.102 148.199C375.817 148.333 380.346 150.328 384.102 153.229C387.858 156.13 390.841 159.882 393.479 163.82C395.37 166.668 397.075 169.648 398.114 172.895C398.753 174.944 399.126 177.073 399.206 179.202" fill="url(#paint1_linear_620_6649)"/>
<path d="M368.171 159.271C354.239 167.148 338.469 181.066 323.364 180.294C322.592 180.268 318.702 175.504 318.383 174.892C318.116 174.36 318.409 173.695 318.702 173.109C321.766 167.308 329.971 157.222 336.071 153.789C342.171 150.357 348.858 148.175 355.518 146.205C358.901 145.221 362.337 144.263 365.747 144.209C369.13 144.156 372.54 145.088 374.431 147.376" fill="url(#paint2_linear_620_6649)"/>
<path d="M440.58 401.953C440.58 401.953 443.785 388.151 412.523 375.382C381.288 362.613 368.522 361.227 366.757 370.22C364.991 379.213 372.651 397.987 417.303 410.05C435.474 414.94 440.58 401.953 440.58 401.953Z" fill="#DE947A"/>
<path d="M420.451 399.075C420.451 399.048 420.451 399.021 420.451 398.994C421.565 390.408 432.402 388.914 438.595 393.614C443.674 397.472 448.563 421.435 450.138 430.51C452.583 444.665 454.484 465.965 456.901 480.147C457.607 484.277 458.287 488.379 458.884 492.509C462.089 499.654 462.768 500.823 465.484 505.822C468.2 510.794 470.781 510.413 468.255 511.527C464.18 513.347 452.583 509.734 449.867 501.746C448.373 497.399 447.531 495.552 446.988 490.743C422.95 444.42 419.582 406.085 420.451 399.075Z" fill="#DE947A"/>
<path d="M418.302 399.649C418.302 399.649 419.606 385.548 386.959 377.072C354.284 368.622 341.464 368.948 340.894 378.077C340.323 387.233 350.454 404.784 396.302 410.761C414.989 413.206 418.302 399.649 418.302 399.649Z" fill="#F0A98F"/>
<path d="M442.234 395.647C430.31 370.516 381.339 362.854 381.339 362.854L373.679 344.977L355.807 344.569C326.446 400.347 383.892 393.528 391.144 396.081C398.369 398.635 417.952 413.116 417.952 413.116C421.781 435.259 438.377 490.194 442.641 490.602C446.905 491.037 459.236 485.929 459.236 485.929C459.236 485.929 454.13 420.751 442.234 395.647Z" fill="#C2C2C2"/>
<path d="M402.605 399.103C405.213 392.555 414.746 391.441 418.169 398.396C420.993 404.102 418.169 433.526 415.507 442.328C411.351 456.103 407.141 469.85 402.986 483.598C401.763 487.592 400.541 491.586 399.21 495.552C398.884 503.377 398.993 504.735 399.183 510.414C399.373 516.065 399.129 524.813 396.358 524.704C391.904 524.541 384.163 511.69 385.304 503.322C385.929 498.758 387.694 493.216 389.351 488.651C389.84 399.972 401.682 401.439 402.605 399.103Z" fill="#F0A98F"/>
<path d="M330.279 332.621C330.279 332.621 304.014 382.503 317.785 394.81C331.555 407.145 391.581 414.372 391.581 414.372C391.581 414.372 385.198 468.438 387.317 485.907L403.912 488.461C403.912 488.461 429.878 412.66 417.954 393.941C406.03 375.221 374.958 368.81 361.758 370.114C361.758 370.114 368.141 352.237 363.469 345.825C358.798 339.44 330.279 330.936 330.279 332.621Z" fill="#D4D4D4"/>
<path d="M326.773 340.826C330.386 309.853 313.356 250.435 313.356 250.435C313.356 250.435 358.796 237.013 387.858 250.435L373.001 346.477C373.001 346.477 364.962 348.487 353.69 346.884C342.472 345.254 326.773 340.826 326.773 340.826Z" fill="#194484"/>
<path d="M333.482 296.836C333.482 296.836 367.651 300.368 377.076 293.304C377.076 293.304 365.288 321.586 333.482 296.836Z" fill="#0E3979"/>
<path d="M375.552 347.238C375.552 347.238 356.458 356.339 326.472 342.239C326.771 340.826 327.369 333.137 327.369 333.137L374.167 339.06L375.552 347.238Z" fill="#8F99B6"/>
<path d="M345.132 334.981L342.85 349.516L336.956 349.055L339.211 333.595L345.132 334.981Z" fill="#D4D4D4"/>
<path d="M368.301 336.805L370.121 349.982L355.128 351.34L354.231 334.984L368.301 336.805ZM358.74 347.238L365.313 345.879V339.739L357.599 339.06L358.74 347.238Z" fill="#EAEAEA"/>
<path d="M465.668 331.809C465.668 331.809 453.418 332.298 438.942 329.472C425.986 326.945 411.237 321.81 401.976 311.296C391.22 299.07 381.469 277.063 381.469 277.063C381.469 277.063 384.239 252.72 387.879 250.465C391.491 248.21 416.67 298.744 423.188 302.738C426.936 305.02 439.892 309.585 451.083 313.823C459.421 316.974 466.782 319.936 468.547 321.62C472.703 325.533 465.668 331.809 465.668 331.809Z" fill="#194484"/>
<path d="M472.783 331.836C471.235 324.256 466.183 318.686 460.181 318.686C454.178 318.686 449.126 324.256 447.578 331.836H472.783Z" fill="#22272E"/>
<path d="M453.311 325.584C453.311 327.322 451.572 328.708 449.427 328.708C447.281 328.708 445.543 327.295 445.543 325.584C445.543 323.845 447.281 322.459 449.427 322.459C451.572 322.432 453.311 323.845 453.311 325.584Z" fill="#F0A98F"/>
<path d="M458.689 318.687C458.689 321.186 457.522 323.224 456.055 323.224C454.588 323.224 453.42 321.186 453.42 318.687C453.42 316.187 454.588 314.177 456.055 314.177C457.522 314.177 458.689 316.187 458.689 318.687Z" fill="#F0A98F"/>
<path d="M466.32 319.011C465.505 321.348 463.74 322.842 462.354 322.326C460.996 321.81 460.535 319.473 461.349 317.137C462.164 314.8 463.93 313.306 465.315 313.822C466.7 314.338 467.135 316.675 466.32 319.011Z" fill="#F0A98F"/>
<path d="M472.595 325.156C471.047 327.058 468.901 327.819 467.787 326.841C466.674 325.863 467.027 323.499 468.548 321.597C470.096 319.695 472.242 318.935 473.355 319.913C474.469 320.918 474.116 323.254 472.595 325.156Z" fill="#F0A98F"/>
<path d="M474.415 331.347C472.133 332.08 469.933 331.51 469.526 330.043C469.091 328.576 470.585 326.81 472.867 326.049C475.148 325.315 477.348 325.886 477.783 327.353C478.19 328.82 476.696 330.613 474.415 331.347Z" fill="#F0A98F"/>
<path d="M317.86 330.476C317.86 330.476 332.445 305.101 354.907 331.618L317.86 330.476Z" fill="#F0A98F"/>
<path d="M313.382 250.439C311.616 250.575 280.191 291.22 276.253 325.235C276.253 325.235 276.036 338.629 295.293 319.095C302.952 311.324 305.723 291.736 319.792 275.489C319.792 275.462 320.661 249.869 313.382 250.439Z" fill="#194484"/>
<path d="M328.482 319.094C323.376 316.703 309.171 314.964 305.613 314.068C283.096 308.308 278.398 328.033 278.398 328.033C274.514 334.553 305.559 333.738 323.947 332.244C324.734 327.815 327.939 323.55 328.482 319.094Z" fill="#4676A0"/>
<path d="M289.615 267.852C308.655 273.123 281.086 303.144 278.37 308.035V304.965C275.654 299.15 272.313 263.07 289.615 267.852Z" fill="#06B25F"/>
<path d="M257.295 259.862C273.972 263.992 275.302 296.133 267.507 307.707L261.369 304.637C255.529 293.606 246.186 286.515 245.751 273.175C245.507 265.296 247.625 257.472 257.295 259.862Z" fill="#06B25F"/>
<path d="M231.139 258.749C239.043 248.941 248.522 260.134 248.522 269.209V271.247C240.347 276.409 221.606 270.567 231.139 258.749Z" fill="#06B25F"/>
<path d="M292.737 298.851L287.631 335.665L249.796 336.697L246.727 299.883L292.737 298.851Z" fill="#66D6A0"/>
<path d="M529.254 538.125L488.268 351.121L498.127 347.807L539.847 538.125H529.254Z" fill="#C1C7CC"/>
<path d="M225.731 538.123L266.689 351.12L256.857 347.805L215.111 538.123H225.731Z" fill="#C1C7CC"/>
<path d="M207.857 331.698H547.098V351.831H207.857V331.698Z" fill="#D8DDE1"/>
<path d="M495.821 323.196C495.821 323.305 495.848 323.441 495.848 323.549C495.902 328.114 492.018 331.863 487.184 331.917L369.55 333.466C364.688 333.52 360.722 329.88 360.641 325.315C360.641 325.179 360.641 325.071 360.668 324.962L495.821 323.196Z" fill="#E7E9ED"/>
<path d="M386.683 319.364C386.194 322.733 388.177 325.45 391.056 325.396L490.166 324.065C493.073 324.038 495.68 321.674 496.033 318.767L502.443 264.565C502.796 261.658 500.786 259.104 497.962 258.859L401.622 250.41C398.797 250.165 396.135 252.719 395.646 256.088L386.683 319.364Z" fill="#E2E4E8"/>
<path d="M438.781 289.697C438.264 293.609 440.709 296.842 444.24 296.923C447.771 297.005 451.03 293.989 451.546 290.131C452.035 286.3 449.591 283.067 446.087 282.877C442.583 282.768 439.324 285.784 438.781 289.697Z" fill="#F2F2F2"/>
</g>
<path d="M568.834 266C557.879 266 549 274.879 549 285.834C549 296.79 557.879 305.669 568.834 305.669C579.79 305.669 588.669 296.79 588.669 285.834C588.669 274.879 579.79 266 568.834 266ZM568.834 300.727C560.601 300.727 553.933 294.058 553.933 285.825C553.933 277.591 560.601 270.923 568.834 270.923C577.068 270.923 583.736 277.591 583.736 285.825C583.736 294.058 577.068 300.727 568.834 300.727Z" fill="#66D6A0"/>
<g filter="url(#filter0_d_620_6649)">
<path d="M147.418 345.011L158.319 342.961V333.188L147.418 331.308C146.581 327.293 144.992 323.534 142.805 320.202L149.058 311.027L142.139 304.107L133.1 310.497C129.768 308.31 126.026 306.738 121.994 305.901L119.944 295H110.17L108.291 305.901C104.276 306.738 100.517 308.327 97.185 310.514L88.0268 304.261L81.1069 311.181L87.4971 320.219C85.3101 323.551 83.7382 327.31 82.9009 331.325L72 333.375V343.149L82.9009 345.028C83.7382 349.061 85.3272 352.802 87.5142 356.134L81.2607 365.292L88.1806 372.212L97.2362 365.822C100.568 368.009 104.327 369.598 108.342 370.418L110.393 381.319H120.166L122.045 370.418C126.078 369.581 129.819 367.992 133.151 365.805L142.309 372.059L149.229 365.139L142.839 356.1C145.009 352.785 146.581 349.043 147.418 345.011ZM115.16 358.407C103.985 358.407 94.9296 349.334 94.9296 338.177C94.9296 327.019 103.985 317.947 115.16 317.947C126.334 317.947 135.39 327.002 135.39 338.177C135.39 349.351 126.334 358.407 115.16 358.407Z" fill="#84B5FF"/>
</g>
<g filter="url(#filter1_d_620_6649)">
<path d="M187.24 222.326L194.068 221.041V214.92L187.24 213.742C186.716 211.227 185.72 208.873 184.35 206.786L188.267 201.039L183.933 196.704L178.271 200.707C176.184 199.337 173.841 198.352 171.315 197.828L170.031 191H163.909L162.732 197.828C160.217 198.352 157.862 199.348 155.775 200.718L150.039 196.801L145.704 201.135L149.707 206.797C148.337 208.884 147.352 211.238 146.828 213.753L140 215.037V221.159L146.828 222.336C147.352 224.862 148.348 227.206 149.718 229.293L145.801 235.029L150.135 239.364L155.807 235.361C157.894 236.731 160.249 237.726 162.764 238.24L164.048 245.068H170.17L171.347 238.24C173.873 237.716 176.217 236.72 178.304 235.35L184.04 239.267L188.374 234.933L184.372 229.271C185.731 227.195 186.716 224.851 187.24 222.326ZM167.034 230.716C160.035 230.716 154.362 225.033 154.362 218.045C154.362 211.056 160.035 205.373 167.034 205.373C174.033 205.373 179.706 211.045 179.706 218.045C179.706 225.044 174.033 230.716 167.034 230.716Z" fill="#84B5FF"/>
</g>
<path d="M196.811 396.762H169.103C168.012 396.762 167.121 395.88 167.121 394.78C167.121 393.689 168.003 392.797 169.103 392.797H196.811C197.901 392.797 198.793 393.679 198.793 394.78C198.793 395.87 197.901 396.762 196.811 396.762Z" fill="#66D6A0"/>
<path d="M196.81 406.655H169.103C168.012 406.655 167.12 405.773 167.12 404.673C167.12 403.582 168.002 402.69 169.103 402.69H196.81C197.901 402.69 198.793 403.573 198.793 404.673C198.793 405.764 197.901 406.655 196.81 406.655Z" fill="#66D6A0"/>
<defs>
<filter id="filter0_d_620_6649" x="62" y="289" width="106.319" height="106.319" filterUnits="userSpaceOnUse" color-interpolation-filters="sRGB">
<feFlood flood-opacity="0" result="BackgroundImageFix"/>
<feColorMatrix in="SourceAlpha" type="matrix" values="0 0 0 0 0 0 0 0 0 0 0 0 0 0 0 0 0 0 127 0" result="hardAlpha"/>
<feOffset dy="4"/>
<feGaussianBlur stdDeviation="5"/>
<feColorMatrix type="matrix" values="0 0 0 0 0.0885677 0 0 0 0 0.0395834 0 0 0 0 0.395833 0 0 0 0.25 0"/>
<feBlend mode="normal" in2="BackgroundImageFix" result="effect1_dropShadow_620_6649"/>
<feBlend mode="normal" in="SourceGraphic" in2="effect1_dropShadow_620_6649" result="shape"/>
</filter>
<filter id="filter1_d_620_6649" x="130" y="185" width="74.0679" height="74.0681" filterUnits="userSpaceOnUse" color-interpolation-filters="sRGB">
<feFlood flood-opacity="0" result="BackgroundImageFix"/>
<feColorMatrix in="SourceAlpha" type="matrix" values="0 0 0 0 0 0 0 0 0 0 0 0 0 0 0 0 0 0 127 0" result="hardAlpha"/>
<feOffset dy="4"/>
<feGaussianBlur stdDeviation="5"/>
<feColorMatrix type="matrix" values="0 0 0 0 0.0885677 0 0 0 0 0.0395834 0 0 0 0 0.395833 0 0 0 0.25 0"/>
<feBlend mode="normal" in2="BackgroundImageFix" result="effect1_dropShadow_620_6649"/>
<feBlend mode="normal" in="SourceGraphic" in2="effect1_dropShadow_620_6649" result="shape"/>
</filter>
<linearGradient id="paint0_linear_620_6649" x1="294.819" y1="313.221" x2="404.39" y2="163.097" gradientUnits="userSpaceOnUse">
<stop stop-color="#0D6EB7"/>
<stop offset="1" stop-color="#00A4E8"/>
</linearGradient>
<linearGradient id="paint1_linear_620_6649" x1="400.491" y1="179.864" x2="360.328" y2="136.972" gradientUnits="userSpaceOnUse">
<stop stop-color="#00A2E7"/>
<stop offset="0.0001" stop-color="#09A4E6"/>
<stop offset="1" stop-color="#01A0E4"/>
</linearGradient>
<linearGradient id="paint2_linear_620_6649" x1="318.098" y1="177.292" x2="374.755" y2="143.991" gradientUnits="userSpaceOnUse">
<stop stop-color="#0491D7"/>
<stop offset="0.0001" stop-color="#098CCD"/>
<stop offset="1" stop-color="#00A3E7"/>
</linearGradient>
</defs>
</svg>
