<svg width="497" height="468" viewBox="0 0 497 468" fill="none" xmlns="http://www.w3.org/2000/svg">
<path opacity="0.04" d="M65.9284 374.032C57.5199 450.958 281.652 422.127 327.6 396.178C373.547 370.228 404.822 355.151 443.097 304.794C438.368 295.559 445.761 315.463 443.097 304.794C504.556 235.103 433.241 159.979 422.557 140.098C413.322 122.889 319.701 156.96 307.418 143.299C302.037 137.389 246.745 52.8705 178.116 67.7241C127.979 78.5754 65.0842 81.2806 38.0375 162.197C10.9909 243.114 82.5788 221.705 65.9284 374.032Z" fill="#276ED8"/>
<mask id="mask0_673_172" style="mask-type:alpha" maskUnits="userSpaceOnUse" x="31" y="44" width="439" height="380">
<path d="M65.9281 374.033C57.5196 450.958 281.652 422.127 327.599 396.178C373.547 370.228 404.821 355.151 443.097 304.794C438.368 295.559 445.761 315.463 443.097 304.794C504.556 235.103 454 108 357 49.4996C347.765 32.2906 369.283 63.1607 357 49.4996C351.619 43.5905 246.745 52.8705 178.116 67.7241C127.978 78.5754 65.0839 81.2805 38.0373 162.197C10.9906 243.113 82.5785 221.705 65.9281 374.033Z" fill="#276ED8"/>
</mask>
<g mask="url(#mask0_673_172)">
<path d="M311.227 168.674V295.841C311.227 299.111 308.578 301.76 305.308 301.76H111.388C108.117 301.76 105.469 299.111 105.469 295.841V168.674C105.469 161.129 111.589 155 119.143 155H297.553C305.107 155 311.227 161.129 311.227 168.674Z" fill="white" stroke="#84B5FF" stroke-miterlimit="10"/>
<path d="M200.755 185.419H177.675V187.359H200.755V185.419Z" fill="#84B5FF"/>
<path d="M227.827 185.419H204.747V187.358H227.827V185.419Z" fill="#06B25F"/>
<path d="M220.595 195.886H184.806V197.826H220.595V195.886Z" fill="#276ED8"/>
<path d="M244.693 195.886H226.507V197.826H244.693V195.886Z" fill="#84B5FF"/>
<path d="M212.93 206.339H197.215V208.279H212.93V206.339Z" fill="#06B25F"/>
<path d="M274.152 206.339H222.014V208.279H274.152V206.339Z" fill="#06B25F"/>
<path d="M269.009 216.801H209.422V218.741H269.009V216.801Z" fill="#276ED8"/>
<path d="M212.863 227.255H194.526V229.195H212.863V227.255Z" fill="#84B5FF"/>
<path d="M239.048 227.255H220.711V229.195H239.048V227.255Z" fill="#276ED8"/>
<path d="M204.346 281.529H177.675V283.469H204.346V281.529Z" fill="#84B5FF"/>
<path d="M240.352 281.529H213.681V283.469H240.352V281.529Z" fill="#06B25F"/>
<path d="M275.405 281.529H248.734V283.469H275.405V281.529Z" fill="#84B5FF"/>
<path d="M236.945 271.059H184.807V272.999H236.945V271.059Z" fill="#276ED8"/>
<path d="M297.199 271.059H245.061V272.999H297.199V271.059Z" fill="#84B5FF"/>
<path d="M248.952 260.607H197.215V262.547H248.952V260.607Z" fill="#84B5FF"/>
<path d="M267.857 260.607H253.461V262.547H267.857V260.607Z" fill="#06B25F"/>
<path d="M213.314 250.143H193.841V252.082H213.314V250.143Z" fill="#06B25F"/>
<path d="M243.123 250.143H223.651V252.082H243.123V250.143Z" fill="#276ED8"/>
<path d="M275.138 250.143H255.665V252.082H275.138V250.143Z" fill="#84B5FF"/>
<path d="M243.725 239.693H216.42V241.633H243.725V239.693Z" fill="#06B25F"/>
<path d="M206.116 239.693H178.811V241.633H206.116V239.693Z" fill="#276ED8"/>
<path d="M171.246 183.564H168.757V186.056H171.246V183.564Z" fill="#84B5FF"/>
<path d="M171.245 274.757H168.757V269.691H171.245V274.757ZM171.245 262.083H168.757V257.017H171.245V262.083ZM171.245 249.409H168.757V244.343H171.245V249.409ZM171.245 236.735H168.757V231.669H171.245V236.735ZM171.245 224.061H168.757V218.995H171.245V224.061ZM171.245 211.387H168.757V206.321H171.245V211.387ZM171.245 198.713H168.757V193.647H171.245V198.713Z" fill="#84B5FF"/>
<path d="M171.246 282.363H168.758V284.854H171.246V282.363Z" fill="#84B5FF"/>
<path opacity="0.7" d="M105 171.031C105 167.718 107.686 165.031 111 165.031H158.548V301.77H111C107.686 301.77 105 299.084 105 295.77V171.031Z" fill="#84B5FF"/>
<path d="M132.362 187.333H109.282V189.273H132.362V187.333Z" fill="#06B25F"/>
<path d="M150.027 199.185H114.239V201.125H150.027V199.185Z" fill="#84B5FF"/>
<path d="M150.027 211.038H114.239V212.978H150.027V211.038Z" fill="#84B5FF"/>
<path d="M150.027 222.892H114.239V224.831H150.027V222.892Z" fill="#84B5FF"/>
<path d="M150.027 234.742H114.239V236.681H150.027V234.742Z" fill="#84B5FF"/>
<path d="M151.885 258.445H116.097V260.385H151.885V258.445Z" fill="#84B5FF"/>
<path d="M151.885 270.3H116.097V272.239H151.885V270.3Z" fill="#84B5FF"/>
<path d="M151.885 282.149H116.097V284.088H151.885V282.149Z" fill="#84B5FF"/>
<path d="M132.362 246.593H109.282V248.533H132.362V246.593Z" fill="#06B25F"/>
<path d="M311.227 168.674V169.248H105.469V168.674C105.469 161.129 111.589 155 119.143 155H297.553C305.107 155 311.227 161.129 311.227 168.674Z" fill="#84B5FF"/>
<path opacity="0.3" d="M279.978 162.784C279.978 163.769 279.184 164.563 278.199 164.563C277.215 164.563 276.421 163.769 276.421 162.784C276.421 161.8 277.215 161.006 278.199 161.006C279.175 161.006 279.978 161.8 279.978 162.784Z" fill="white"/>
<path opacity="0.3" d="M289.711 162.784C289.711 163.769 288.918 164.562 287.933 164.562C286.948 164.562 286.154 163.769 286.154 162.784C286.154 161.799 286.948 161.005 287.933 161.005C288.908 161.005 289.711 161.799 289.711 162.784Z" fill="white"/>
<path opacity="0.3" d="M299.017 162.784C299.017 163.769 298.223 164.562 297.239 164.562C296.254 164.562 295.46 163.769 295.46 162.784C295.46 161.799 296.254 161.005 297.239 161.005C298.223 161.005 299.017 161.799 299.017 162.784Z" fill="white"/>
<path d="M311.227 168.674V295.841C311.227 299.111 308.578 301.76 305.308 301.76H111.388C108.117 301.76 105.469 299.111 105.469 295.841V168.674C105.469 161.129 111.589 155 119.143 155H297.553C305.107 155 311.227 161.129 311.227 168.674Z" stroke="#84B5FF" stroke-miterlimit="10"/>
<path d="M301.027 224.521C287.709 234.73 268.378 238.865 253.487 230.965C248.816 228.494 244.516 224.544 243.591 219.462C242.481 213.341 246.435 207.012 244.77 201.006C243.313 195.694 237.995 192.437 234.041 188.51C228.307 182.828 224.977 174.905 225 166.936C225.023 158.967 228.353 151.067 234.11 145.408C238.989 140.604 245.348 137.509 250.944 133.489C255.36 130.302 256.896 125.512 259 120.5C261.081 115.557 259.301 109.851 259 105C258.376 94.6287 263.499 86.4838 270.968 78.7689C280.633 68.7441 294.992 68.9058 307.687 71.4929C314.115 72.7864 321.214 74.796 326.855 78.2145C329.26 79.6698 330.856 81.4483 332.497 83.7813C333.029 84.5205 335.989 91.8889 335.873 91.8658C354.695 96.1621 344.591 122.217 350.371 134.182C352.198 137.947 355.389 140.858 358.187 143.976C363.089 149.474 366.927 156.08 368.129 163.333C369.332 170.586 367.69 178.485 362.811 183.983C362.025 184.884 361.1 185.761 360.8 186.916C360.337 188.649 361.308 190.381 362.025 192.021C366.303 201.838 361.401 213.202 355.227 221.957C351.088 227.847 346.209 233.437 339.874 236.855C329.769 242.33 317.005 241.475 306.6 236.578" fill="url(#paint0_linear_673_172)"/>
<path opacity="0.42" d="M303.888 95.7387C310.246 92.6435 318.362 96.0851 322.293 101.975C326.201 107.865 331.288 113.109 330.363 120.108C329.901 123.572 329.138 127.106 329.831 130.548C331.589 139.464 337.092 145.978 342.826 153.023C347.682 158.982 349.254 166.905 350.503 174.482C351.243 179.009 351.844 183.998 349.439 187.902C346.387 192.845 342.896 199.22 339.612 204.002C334.201 211.832 337.369 219.478 330.826 226.407C328.883 228.44 326.155 229.502 323.473 230.357C318.039 232.043 312.42 233.036 306.732 233.337C301.876 233.591 296.951 233.291 292.373 231.697C281.135 227.747 273.62 215.135 275.655 203.401C277.204 194.508 283.332 187.117 286.245 178.547C288.326 172.403 288.673 165.681 287.262 159.352C285.459 151.36 280.857 143.414 282.846 135.468" fill="#148951"/>
<path d="M283.754 246.37C283.037 243.552 268.747 172.108 268.747 172.108C268.747 172.108 306.853 160.883 331.225 172.108L315.617 246.994L283.754 246.37Z" fill="white"/>
<path opacity="0.83" d="M290.435 248.551C289.976 248.144 288.385 246.735 286.918 245.383C285.185 243.777 284.167 242.413 284.167 242.413C284.167 242.413 284.408 239.848 284.408 239.131C284.408 238.407 280.578 221.326 276.814 216.039C273.301 211.107 276.753 183.325 277.236 179.573L277.293 179.154C277.293 179.154 279.773 183.325 280.848 191.621C281.928 199.923 280.403 216.28 280.403 216.28C280.403 216.28 282.553 229.508 287.846 229.75C287.846 229.75 283.405 238.465 285.156 242.838C285.493 243.669 289.626 247.783 290.435 248.551Z" fill="#CAC3CD" fill-opacity="0.3"/>
<path d="M281.881 210.037C281.881 210.037 310.53 212.994 318.438 207.081C318.415 207.081 308.541 230.757 281.881 210.037Z" fill="#CAC3CD" fill-opacity="0.3"/>
<path d="M281.905 246.111C281.905 246.111 258.736 294.618 268.193 448.963C268.193 448.963 278.182 451.065 281.327 450.002C281.327 450.002 309.907 315.869 302.97 248.537L281.905 246.111Z" fill="#276ED8"/>
<path d="M294.993 277.296C294.993 277.296 294.462 402.768 316.012 446.863L332.313 446.332C332.313 446.332 341.007 296.538 315.642 245.952L296.196 248.1L294.993 277.296Z" fill="#276ED8"/>
<path d="M280.541 249.21C280.541 249.21 298.53 254.569 316.797 247.362L317.029 240.179C317.029 240.179 307.664 242.997 299.687 242.512C291.732 242.05 280.957 240.641 280.957 240.641L280.541 249.21Z" fill="#8F99B6"/>
<path d="M284.726 239.229C284.726 239.229 281.697 250.939 284.495 252.325C287.316 253.734 288.958 253.111 288.958 253.111L288.934 240.152L284.726 239.229Z" fill="#276ED8"/>
<path d="M313.629 238.307C313.629 238.307 315.525 249.256 313.144 251.312C309.906 254.06 309.721 251.843 309.721 251.843L309.421 239.254L313.629 238.307Z" fill="#276ED8"/>
<path d="M294.092 240.179C294.092 241.588 294.577 250.25 294.577 250.25L304.659 250.481L305.584 240.41L294.092 240.179ZM302.994 248.748L296.196 248.286L295.965 242.951H303.456L302.994 248.748Z" fill="#EAEAEA"/>
<path d="M289.153 168.145C288.112 174.266 296.321 174.797 296.321 174.797C299.951 174.797 305.616 173.688 305.616 170.062L303.859 147.402C303.859 143.776 300.922 140.842 297.292 140.842C293.662 140.842 290.725 143.776 290.725 147.402L289.153 168.145Z" fill="#F39B8D"/>
<path d="M315.414 88.2256C314.39 86.7722 308.363 89.2367 307.466 87.6741C303.908 91.7811 294.362 85.7978 289.89 89.1359C284.036 93.511 279.42 97.729 272.703 100.63C270.493 101.586 274.011 102.676 271.594 103.099C271.487 107.397 269.184 121.031 269.966 125.356C273.907 147.045 291.358 157.577 306.884 153.558C318.617 150.509 328.379 135.476 328.72 114.105C328.926 101.211 317.146 92.6386 316.764 90.7313C310.424 85.9477 320.063 94.7372 315.414 88.2256Z" fill="#FBB2A6"/>
<path d="M299.502 133.207C299.502 133.207 303.248 139.513 307.271 133.092L299.502 133.207Z" fill="#D8826C"/>
<path d="M295.64 120.412C295.64 124.57 292.264 127.965 288.079 127.965C283.893 127.965 280.518 124.593 280.518 120.412C280.518 116.254 283.893 112.859 288.079 112.859C292.264 112.859 295.64 116.254 295.64 120.412Z" fill="white"/>
<path d="M292.277 122.197C292.114 125.211 290.137 127.566 287.855 127.463C285.565 127.342 283.852 124.813 283.995 121.806C284.151 118.773 286.135 116.438 288.398 116.547C290.7 116.642 292.433 119.165 292.277 122.197Z" fill="#06B25F"/>
<path d="M291.066 122.137C290.952 124.271 289.549 125.943 287.922 125.862C286.295 125.782 285.062 123.985 285.188 121.825C285.295 119.673 286.698 118.001 288.325 118.081C289.959 118.18 291.173 119.985 291.066 122.137Z" fill="#400404"/>
<path opacity="0.8" d="M291.445 118.465C291.421 119.056 290.712 119.484 289.876 119.442C289.04 119.399 288.379 118.883 288.41 118.311C288.433 117.72 289.142 117.291 289.978 117.334C290.814 117.377 291.476 117.893 291.445 118.465Z" fill="white"/>
<path d="M291.523 139.285C291.523 139.285 303.709 144.898 308.865 139.747C308.865 139.747 304.172 151.458 291.523 139.285Z" fill="#D5503B"/>
<path d="M295.641 120.414C295.641 120.414 296.243 115.563 291.502 113.115C284.242 109.373 280.265 118.035 277.906 119.444C277.906 119.444 279.432 120.968 280.542 120.437C280.542 120.414 289.144 110.135 295.641 120.414Z" fill="#302725"/>
<path d="M307.538 120.895C307.538 125.076 310.914 128.449 315.099 128.449C319.261 128.449 322.66 125.076 322.66 120.895C322.66 116.738 319.284 113.365 315.099 113.365C310.937 113.342 307.538 116.738 307.538 120.895Z" fill="white"/>
<path d="M318.968 122.013C318.683 125.019 316.554 127.253 314.189 127.007C311.823 126.76 310.152 124.135 310.439 121.149C310.724 118.143 312.854 115.909 315.217 116.135C317.563 116.383 319.253 119.007 318.968 122.013Z" fill="#06B25F"/>
<path d="M317.553 121.921C317.385 124.127 315.988 125.734 314.41 125.552C312.832 125.37 311.695 123.415 311.846 121.231C312.013 119.025 313.427 117.396 315.007 117.599C316.567 117.783 317.72 119.715 317.553 121.921Z" fill="#400404"/>
<path opacity="0.8" d="M318.632 117.826C318.557 118.405 317.673 118.83 316.688 118.756C315.68 118.685 314.946 118.155 314.998 117.578C315.073 116.999 315.934 116.577 316.942 116.648C317.95 116.72 318.707 117.247 318.632 117.826Z" fill="white"/>
<path d="M307.422 119.968C307.422 119.968 306.821 115.649 311.561 113.477C318.822 110.151 322.799 117.843 325.134 119.09C325.134 119.09 323.608 120.43 322.498 119.968C322.521 119.968 314.729 110.613 307.422 119.968Z" fill="#302725"/>
<path d="M278.722 110.064C278.722 110.064 286.398 103.204 293.751 106.161C295.463 106.854 295.856 107.662 296.942 110.988C296.942 110.988 288.572 106.299 278.722 110.064Z" fill="#6F3B1E"/>
<path d="M325.134 111.962C325.134 111.962 320.764 104.039 314.104 105.633C312.555 106.002 312.023 106.718 310.289 109.721C310.289 109.744 318.22 106.672 325.134 111.962Z" fill="#6F3B1E"/>
<path d="M271.799 115.195C271.799 115.195 263.637 104.062 261.278 114.756C259.405 123.28 267.012 129.539 271.73 127.946C276.447 126.352 271.799 115.195 271.799 115.195Z" fill="#FBB2A6"/>
<path d="M271.892 117.179C271.892 117.179 266.111 110.157 264.632 113.46C263.152 116.763 264.03 120.643 264.03 120.643C264.03 120.643 264.632 116.208 268.146 118.264C268.146 118.264 265.649 125.563 271.892 122.792C271.915 122.792 274.366 120.366 271.892 117.179Z" fill="#F39B8D"/>
<path d="M272.245 128.509C272.245 129.641 271.39 130.542 270.349 130.542C269.286 130.542 268.453 129.618 268.453 128.509C268.453 127.377 269.309 126.453 270.349 126.453C271.39 126.453 272.245 127.354 272.245 128.509Z" fill="white"/>
<path d="M339 107.073C331.111 109.173 322.228 107.65 315.525 103.055C308.822 98.4603 304.464 90.8718 304.022 83.0207C303.884 80.8413 304.353 78.2156 306.422 77.3228C307.139 77.0077 307.967 76.9814 308.767 77.0077C313.649 77.139 318.339 79.1083 322.228 81.9704C326.118 84.8325 329.207 88.5348 331.938 92.421C333.897 95.2306 335.662 98.1714 336.738 101.375C337.4 103.397 337.786 105.497 337.869 107.598" fill="url(#paint1_linear_673_172)"/>
<path d="M309.314 90.9296C296.661 97.6904 282.338 109.636 268.619 108.974C267.918 108.951 264.385 104.862 264.095 104.337C263.853 103.88 264.119 103.309 264.385 102.807C267.168 97.8274 274.619 89.1709 280.16 86.2244C285.701 83.278 291.773 81.4051 297.822 79.7149C300.895 78.8698 304.016 78.0475 307.113 78.0018C310.185 77.9562 313.282 78.7556 315 80.7199" fill="url(#paint2_linear_673_172)"/>
<path d="M331.345 171.926C331.345 171.926 356.975 230.827 347.607 238.964C347.607 238.964 338.238 243.971 330.096 221.439C321.954 198.885 321.977 170.628 331.345 171.926Z" fill="white"/>
<path opacity="0.83" d="M344.863 239.235C344.349 238.901 342.567 237.743 340.915 236.623C338.964 235.292 341.634 240.599 341.634 240.599C341.634 240.599 341.74 239.349 341.634 238.64C341.527 237.924 335.211 221.599 330.706 216.927C326.501 212.569 325.802 184.582 325.724 180.8L325.718 180.378C325.718 180.378 328.789 184.135 331.08 192.18C333.377 200.231 334.29 216.634 334.29 216.634C334.29 216.634 338.374 229.398 343.645 228.853C343.645 228.853 340.103 235.449 342.483 239.515C342.939 240.288 343.949 238.595 344.863 239.235Z" fill="#CAC3CD" fill-opacity="0.3"/>
<path d="M328.848 211.424C328.848 211.424 350.453 226.561 348.833 235.856C348.579 237.363 347.584 238.985 347.584 238.985C347.584 238.985 338.216 249.648 326.326 225.216C326.35 225.193 319.456 209.546 328.848 211.424Z" fill="white"/>
<path d="M331.969 207.972C330.003 203.638 324.544 200.392 322.809 200.647C321.421 199.975 320.033 200.207 318.853 202.502C317.165 205.77 317.234 211.38 318.529 214.88C321.051 221.695 328.036 213.072 327.736 207.648C330.442 209.966 334.004 212.469 331.969 207.972Z" fill="#F0A98F"/>
<path d="M322.601 201.085C322.601 201.085 314.482 227.395 316.98 228.647C319.479 229.899 331.993 229.899 331.993 229.899C331.993 229.899 340.736 201.711 338.863 201.085C336.966 200.46 323.203 199.834 322.601 201.085Z" fill="#06B25F"/>
<path d="M307.473 232.728C307.473 232.728 310.642 232.079 311.845 230.48C313.048 228.88 313.788 228.185 318.067 226.33C322.323 224.476 324.012 221.996 324.012 221.996C324.012 221.996 326.996 224.916 320.473 228.023C316.471 229.923 329.61 229.946 333.565 229.552C333.565 229.552 335.855 230.897 332.085 232.728C328.314 234.559 331.946 234.768 324.475 237.921C317.003 241.05 308.121 242.58 306.293 237.828C304.466 233.076 307.473 232.728 307.473 232.728Z" fill="#FFBC9F"/>
<path d="M278.951 190.187C280.408 197.419 274.14 228.017 274.14 228.017C278.396 227.739 297.341 228.852 304.349 229.64C306.732 229.895 308.259 230.081 308.259 230.081L310.595 242.204C309.276 242.505 307.981 242.76 306.709 243.015C281.426 247.767 262.898 240.859 262.898 240.859C255.265 194.081 268.843 171.921 268.843 171.921C275.111 171.504 278.951 190.187 278.951 190.187Z" fill="white"/>
<path d="M309.592 167.227H304.893C304.893 167.227 306.39 171.273 304.532 172.287C300.556 174.456 300.194 174.456 294.773 174.456C291.554 174.456 289.351 167.95 289.351 167.95L285.375 168.673C285.375 168.673 289.57 176.316 294.773 178.07C298.384 179.288 301.202 179.924 304.532 178.07C308.392 175.921 309.592 167.227 309.592 167.227Z" fill="#CAC3CD" fill-opacity="0.3"/>
</g>
<path d="M177.448 97.5319H152.767C151.795 97.5319 151.001 96.7461 151.001 95.7659C151.001 94.7942 151.787 94 152.767 94H177.448C178.42 94 179.214 94.7858 179.214 95.7659C179.214 96.7376 178.42 97.5319 177.448 97.5319Z" fill="#66D6A0"/>
<path d="M177.447 106.345H152.766C151.794 106.345 151 105.559 151 104.579C151 103.607 151.786 102.813 152.766 102.813H177.447C178.419 102.813 179.213 103.599 179.213 104.579C179.213 105.551 178.419 106.345 177.447 106.345Z" fill="#66D6A0"/>
<path d="M403.668 302C393.909 302 386 309.909 386 319.668C386 329.427 393.909 337.336 403.668 337.336C413.427 337.336 421.336 329.427 421.336 319.668C421.336 309.909 413.427 302 403.668 302ZM403.668 332.934C396.334 332.934 390.394 326.994 390.394 319.659C390.394 312.325 396.334 306.385 403.668 306.385C411.002 306.385 416.942 312.325 416.942 319.659C416.942 326.994 411.002 332.934 403.668 332.934Z" fill="#66D6A0"/>
<g filter="url(#filter0_d_673_172)">
<path d="M190.418 392.011L201.319 389.961V380.188L190.418 378.308C189.581 374.293 187.992 370.534 185.805 367.202L192.058 358.027L185.139 351.107L176.1 357.497C172.768 355.31 169.026 353.738 164.994 352.901L162.944 342H153.17L151.291 352.901C147.276 353.738 143.517 355.327 140.185 357.514L131.027 351.261L124.107 358.181L130.497 367.219C128.31 370.551 126.738 374.31 125.901 378.325L115 380.375V390.149L125.901 392.028C126.738 396.061 128.327 399.802 130.514 403.134L124.261 412.292L131.181 419.212L140.236 412.822C143.568 415.009 147.327 416.598 151.342 417.418L153.393 428.319H163.166L165.045 417.418C169.078 416.581 172.819 414.992 176.151 412.805L185.309 419.059L192.229 412.139L185.839 403.1C188.009 399.785 189.581 396.043 190.418 392.011ZM158.16 405.407C146.985 405.407 137.93 396.334 137.93 385.177C137.93 374.019 146.985 364.947 158.16 364.947C169.334 364.947 178.39 374.002 178.39 385.177C178.39 396.351 169.334 405.407 158.16 405.407Z" fill="#84B5FF"/>
</g>
<g filter="url(#filter1_d_673_172)">
<path d="M76.24 333.326L83.0681 332.041V325.92L76.24 324.742C75.7156 322.227 74.7202 319.873 73.3503 317.786L77.2674 312.039L72.933 307.704L67.2714 311.707C65.1845 310.337 62.8407 309.352 60.3149 308.828L59.0307 302H52.9089L51.7317 308.828C49.2167 309.352 46.8622 310.348 44.7752 311.718L39.0388 307.801L34.7043 312.135L38.707 317.797C37.3371 319.884 36.3525 322.238 35.8281 324.753L29 326.037V332.159L35.8281 333.336C36.3525 335.862 37.3478 338.206 38.7177 340.293L34.8006 346.029L39.1351 350.364L44.8073 346.361C46.8943 347.731 49.2488 348.726 51.7638 349.24L53.0481 356.068H59.1698L60.3471 349.24C62.8728 348.716 65.2166 347.72 67.3036 346.35L73.04 350.267L77.3744 345.933L73.3718 340.271C74.731 338.195 75.7156 335.851 76.24 333.326ZM56.034 341.716C49.0347 341.716 43.3625 336.033 43.3625 329.045C43.3625 322.056 49.0347 316.373 56.034 316.373C63.0333 316.373 68.7056 322.045 68.7056 329.045C68.7056 336.044 63.0333 341.716 56.034 341.716Z" fill="#84B5FF"/>
</g>
<g filter="url(#filter2_d_673_172)">
<rect x="404" y="103" width="65.6797" height="64.5473" rx="6" fill="#276ED8"/>
</g>
<path d="M426.357 145.948L411.323 137.817C410.351 137.254 409.865 136.385 409.865 135.208C409.865 133.981 410.377 133.112 411.399 132.6L426.357 124.393V127.384C426.357 127.589 426.281 127.87 426.127 128.228C425.974 128.535 425.744 128.765 425.437 128.918L414.775 134.748C414.365 135.055 414.365 135.362 414.775 135.669L426.357 141.882V145.948Z" fill="white"/>
<path d="M439.164 121.938H442.155L434.715 147.405C434.51 148.07 434.05 148.402 433.334 148.402H431.416L439.164 121.938Z" fill="white"/>
<path d="M446.984 124.393L461.942 132.6C463.016 133.163 463.553 134.032 463.553 135.208C463.553 136.385 463.016 137.228 461.942 137.74L446.984 145.948V142.956C446.984 142.803 447.035 142.547 447.138 142.189C447.291 141.831 447.521 141.575 447.828 141.422L458.567 135.669C458.976 135.362 458.976 135.055 458.567 134.748L446.984 128.458V124.393Z" fill="white"/>
<defs>
<filter id="filter0_d_673_172" x="105" y="336" width="106.319" height="106.319" filterUnits="userSpaceOnUse" color-interpolation-filters="sRGB">
<feFlood flood-opacity="0" result="BackgroundImageFix"/>
<feColorMatrix in="SourceAlpha" type="matrix" values="0 0 0 0 0 0 0 0 0 0 0 0 0 0 0 0 0 0 127 0" result="hardAlpha"/>
<feOffset dy="4"/>
<feGaussianBlur stdDeviation="5"/>
<feColorMatrix type="matrix" values="0 0 0 0 0.0885677 0 0 0 0 0.0395834 0 0 0 0 0.395833 0 0 0 0.25 0"/>
<feBlend mode="normal" in2="BackgroundImageFix" result="effect1_dropShadow_673_172"/>
<feBlend mode="normal" in="SourceGraphic" in2="effect1_dropShadow_673_172" result="shape"/>
</filter>
<filter id="filter1_d_673_172" x="19" y="296" width="74.0679" height="74.0679" filterUnits="userSpaceOnUse" color-interpolation-filters="sRGB">
<feFlood flood-opacity="0" result="BackgroundImageFix"/>
<feColorMatrix in="SourceAlpha" type="matrix" values="0 0 0 0 0 0 0 0 0 0 0 0 0 0 0 0 0 0 127 0" result="hardAlpha"/>
<feOffset dy="4"/>
<feGaussianBlur stdDeviation="5"/>
<feColorMatrix type="matrix" values="0 0 0 0 0.0885677 0 0 0 0 0.0395834 0 0 0 0 0.395833 0 0 0 0.25 0"/>
<feBlend mode="normal" in2="BackgroundImageFix" result="effect1_dropShadow_673_172"/>
<feBlend mode="normal" in="SourceGraphic" in2="effect1_dropShadow_673_172" result="shape"/>
</filter>
<filter id="filter2_d_673_172" x="398" y="97" width="87.6797" height="86.5474" filterUnits="userSpaceOnUse" color-interpolation-filters="sRGB">
<feFlood flood-opacity="0" result="BackgroundImageFix"/>
<feColorMatrix in="SourceAlpha" type="matrix" values="0 0 0 0 0 0 0 0 0 0 0 0 0 0 0 0 0 0 127 0" result="hardAlpha"/>
<feMorphology radius="3" operator="dilate" in="SourceAlpha" result="effect1_dropShadow_673_172"/>
<feOffset dx="5" dy="5"/>
<feGaussianBlur stdDeviation="4"/>
<feColorMatrix type="matrix" values="0 0 0 0 0 0 0 0 0 0 0 0 0 0 0 0 0 0 0.2 0"/>
<feBlend mode="normal" in2="BackgroundImageFix" result="effect1_dropShadow_673_172"/>
<feBlend mode="normal" in="SourceGraphic" in2="effect1_dropShadow_673_172" result="shape"/>
</filter>
<linearGradient id="paint0_linear_673_172" x1="354.411" y1="222.527" x2="270.918" y2="70" gradientUnits="userSpaceOnUse">
<stop stop-color="#12844D"/>
<stop offset="1" stop-color="#3BE090"/>
</linearGradient>
<linearGradient id="paint1_linear_673_172" x1="338.839" y1="107.916" x2="310.462" y2="75.5533" gradientUnits="userSpaceOnUse">
<stop stop-color="#25B770" stop-opacity="0.6"/>
<stop offset="1" stop-color="#1FCF79"/>
</linearGradient>
<linearGradient id="paint2_linear_673_172" x1="265.506" y1="106.734" x2="308.472" y2="79.6415" gradientUnits="userSpaceOnUse">
<stop stop-color="#33CF83"/>
<stop offset="1" stop-color="#32CE82"/>
</linearGradient>
</defs>
</svg>
