<svg width="589" height="525" viewBox="0 0 589 525" fill="none" xmlns="http://www.w3.org/2000/svg">
<path opacity="0.08" d="M177.385 450.444C293.055 474.731 478.107 430.488 538.59 363.477C599.072 296.466 531.075 225.603 484.875 200.19C470.502 192.334 454.494 186.878 442.654 175.678C416.799 151.146 406.774 110.115 374.972 93.585C347.467 79.2663 331.636 129.175 301.368 121.565C288.16 118.325 212.375 80.3986 160.507 97.8769C113.156 113.833 48.6217 192.437 71.1599 268.535C93.6982 344.634 18.9945 417.186 177.385 450.444Z" fill="#84B5FF"/>
<path opacity="0.08" d="M241.217 447.917C333.637 474.447 483.466 446.48 533.682 392.811C583.899 339.143 530.912 275.601 494.37 251.692C483.001 244.296 470.261 238.849 461.007 228.75C440.802 206.634 433.715 171.352 408.54 155.709C386.766 142.162 372.854 183.636 348.7 175.631C338.158 172.206 278.128 136.171 236.012 148.313C197.564 159.397 143.815 222.679 160.129 288.318C176.444 353.957 114.663 411.589 241.217 447.917Z" fill="#84B5FF"/>
<mask id="mask0_856_6603" style="mask-type:alpha" maskUnits="userSpaceOnUse" x="149" y="104" width="406" height="355">
<path d="M241.216 447.917C333.636 474.447 483.465 446.48 533.681 392.811C583.898 339.143 530.911 275.601 494.369 251.692C483 244.296 496.439 233.536 487.185 223.437C466.981 201.321 519.545 137.396 494.369 121.753C472.595 108.206 415.966 113.226 391.812 105.221C381.27 101.796 284.054 115.877 266.224 112.81C226.789 106.026 174.448 228.676 163.542 265.932C152.636 303.188 114.662 411.589 241.216 447.917Z" fill="#84B5FF"/>
</mask>
<g mask="url(#mask0_856_6603)">
<path d="M364.437 432.543H377.694V466.077H364.437V432.543Z" fill="#969391"/>
<path d="M426.801 422.052C426.801 428.463 420.744 440.852 413.736 440.852H333.041C326.034 440.852 323.589 428.436 323.589 422.052V421.563C323.589 415.151 326.034 408.25 333.041 408.25H413.736C420.744 408.25 426.801 415.151 426.801 421.563V422.052Z" fill="#435467"/>
<path d="M461.62 409.019C461.131 415.838 454.558 420.973 446.899 420.511C444.672 420.375 361.532 422.141 358.11 421.842C343.171 420.593 365.09 414.507 358.11 406.628C346.295 406.682 343.904 406.519 341.27 405.46C337.25 403.857 302.538 395.896 299.958 386.795C297.378 377.666 287.355 262.497 287.355 262.497C291.511 255.515 335.892 259.97 356.67 262.497C367.697 263.856 374.107 273.827 374.107 281.515C374.107 284.178 374.433 286.868 374.596 289.53C375.438 303.006 376.172 316.482 376.986 329.957C377.448 337.293 377.801 344.656 378.154 352.018C378.345 356.012 378.562 360.033 378.833 364.027C379.105 368.401 378.616 373.645 379.784 377.883C383.206 390.653 408.629 391.93 419.466 392.065C436.849 392.283 432.911 392.88 441.358 393.886C448.8 394.782 454.151 396.059 457.845 399.618C460.479 402.172 461.837 405.595 461.62 409.019Z" fill="#C1C7CC"/>
<path d="M328.803 421.218C349.228 423.31 362.13 421.925 363.814 422.006C369.545 422.305 373.293 418.909 373.836 411.927C374.108 408.422 373.157 404.972 371.229 402.418C368.513 398.859 364.52 397.663 358.952 396.93C352.624 396.087 342.764 395.734 329.673 395.924C325.408 395.979 321.008 395.598 316.825 394.838C311.964 393.941 308.08 391.795 304.087 388.616C299.198 384.731 299.85 376.39 299.931 369.978C299.986 365.984 299.958 362.045 299.85 358.078C299.388 339.386 299.361 320.667 299.144 301.974C299.035 291.514 298.899 281.082 298.791 270.622C298.709 263.666 293.956 258.368 288.198 258.857C282.412 259.319 277.822 265.351 277.904 272.306L279.262 385.709C279.262 386.144 279.289 386.551 279.316 386.986C279.479 388.725 280.701 397.826 288.143 406.33C295.64 414.888 306.559 419.779 320.709 420.974C323.29 421.164 326.033 420.92 328.803 421.218Z" fill="#979B9E"/>
<path d="M356.113 313.432C340.769 325.194 318.498 329.957 301.343 320.856C295.962 318.009 291.007 313.458 289.941 307.604C288.663 300.552 293.218 293.26 291.3 286.341C289.622 280.221 283.495 276.469 278.939 271.945C272.333 265.398 268.497 256.271 268.524 247.09C268.55 237.909 272.386 228.808 279.019 222.288C284.64 216.753 291.966 213.187 298.413 208.557C303.501 204.884 308.083 200.121 310.507 194.346C312.904 188.651 310.933 185.298 310.587 179.71C309.867 167.762 312.878 154.403 321.482 145.515C332.617 133.965 349.16 134.152 363.785 137.132C371.19 138.622 379.369 140.937 385.869 144.876C388.639 146.552 390.477 148.601 392.369 151.289C392.981 152.141 396.391 160.63 396.258 160.603C417.942 165.553 406.301 195.57 412.96 209.355C415.065 213.693 418.741 217.046 421.964 220.638C427.612 226.972 432.034 234.582 433.419 242.938C434.805 251.294 432.913 260.395 427.292 266.729C426.387 267.767 425.321 268.778 424.975 270.109C424.442 272.104 425.561 274.1 426.387 275.99C431.315 287.299 425.667 300.392 418.555 310.478C413.786 317.264 408.165 323.704 400.866 327.642C389.225 333.949 374.52 332.964 362.533 327.323" fill="url(#paint0_linear_856_6603)"/>
<path opacity="0.42" d="M366.503 164.651C373.829 161.085 383.179 165.05 387.708 171.836C392.21 178.622 398.07 184.663 397.005 192.726C396.472 196.718 395.593 200.789 396.392 204.754C398.417 215.026 404.757 222.531 411.363 230.647C416.958 237.513 418.769 246.64 420.208 255.369C421.06 260.585 421.753 266.333 418.982 270.83C415.466 276.525 411.443 283.869 407.661 289.378C401.427 298.399 405.077 307.208 397.538 315.191C395.3 317.533 392.157 318.757 389.066 319.741C382.806 321.684 376.333 322.828 369.78 323.174C364.186 323.467 358.511 323.121 353.237 321.285C340.29 316.734 331.633 302.205 333.977 288.686C335.762 278.441 342.821 269.925 346.178 260.052C348.575 252.974 348.975 245.23 347.35 237.938C345.272 228.731 339.971 219.577 342.262 210.422" fill="#113356"/>
<path d="M340.374 251.045C339.179 258.082 348.631 258.68 348.631 258.68C352.787 258.68 359.278 257.403 359.278 253.246L357.268 227.191C357.268 223.034 353.873 219.638 349.718 219.638C345.562 219.638 342.167 223.007 342.167 227.191L340.374 251.045Z" fill="#F39B8D"/>
<path d="M377.291 159.001C376.332 157.191 369.087 159.134 368.287 157.218C363.626 161.396 353.583 153.173 347.989 156.34C340.663 160.491 334.776 164.643 326.677 166.984C324.013 167.756 327.876 169.513 325.052 169.646C324.306 174.542 319.698 189.79 319.964 194.846C321.323 220.207 339.97 236.174 358.298 233.832C372.15 232.049 385.257 214.885 388.746 190.509C389.066 188.22 390.744 177.203 390.584 174.968C384.031 168.581 381.66 167.118 377.291 159.001Z" fill="#FBB2A6"/>
<path d="M354.356 208.235C354.356 208.235 358.672 215.5 363.307 208.102L354.356 208.235Z" fill="#D8826C"/>
<path d="M349.906 193.492C349.906 198.282 346.017 202.194 341.195 202.194C336.374 202.194 332.484 198.308 332.484 193.492C332.484 188.702 336.374 184.79 341.195 184.79C346.017 184.79 349.906 188.702 349.906 193.492Z" fill="white"/>
<path d="M347.294 198.283C345.749 201.929 342.259 203.951 339.489 202.807C336.718 201.636 335.733 197.751 337.251 194.105C338.796 190.433 342.286 188.437 345.03 189.581C347.827 190.726 348.839 194.611 347.294 198.283Z" fill="#06B25F"/>
<path d="M345.83 197.671C344.738 200.252 342.26 201.689 340.289 200.864C338.318 200.039 337.598 197.272 338.717 194.664C339.809 192.056 342.287 190.619 344.258 191.444C346.229 192.295 346.922 195.063 345.83 197.671Z" fill="#400404"/>
<path d="M347.932 193.308C347.639 194.026 346.574 194.239 345.561 193.813C344.549 193.388 343.963 192.456 344.256 191.764C344.549 191.046 345.615 190.833 346.627 191.259C347.639 191.684 348.225 192.616 347.932 193.308Z" fill="white"/>
<path d="M345.165 215.235C345.165 215.235 359.204 221.702 365.144 215.768C365.144 215.768 359.737 229.259 345.165 215.235Z" fill="#D5503B"/>
<path d="M349.906 193.493C349.906 193.493 350.598 187.905 345.137 185.084C336.773 180.773 332.191 190.752 329.474 192.375C329.474 192.375 331.232 194.132 332.51 193.52C332.51 193.493 342.42 181.651 349.906 193.493Z" fill="#302725"/>
<path d="M365.809 194.693C365.809 199.51 369.698 203.395 374.52 203.395C379.315 203.395 383.231 199.51 383.231 194.693C383.231 189.903 379.341 186.018 374.52 186.018C369.725 185.991 365.809 189.903 365.809 194.693Z" fill="white"/>
<path d="M380.43 198.578C379.605 202.463 376.435 205.071 373.318 204.406C370.201 203.74 368.363 200.068 369.189 196.209C370.015 192.324 373.185 189.716 376.301 190.355C379.391 191.02 381.256 194.693 380.43 198.578Z" fill="#06B25F"/>
<path d="M378.807 198.231C378.221 200.998 375.983 202.835 373.772 202.382C371.561 201.93 370.255 199.295 370.815 196.554C371.401 193.787 373.665 191.924 375.876 192.403C378.061 192.855 379.393 195.463 378.807 198.231Z" fill="#400404"/>
<path d="M380.06 193.549C379.9 194.294 378.835 194.72 377.716 194.48C376.57 194.241 375.798 193.442 375.931 192.697C376.091 191.952 377.13 191.526 378.275 191.766C379.421 192.005 380.22 192.804 380.06 193.549Z" fill="white"/>
<path d="M365.676 193.625C365.676 193.625 364.983 188.648 370.444 186.147C378.809 182.315 383.391 191.177 386.081 192.614C386.081 192.614 384.323 194.157 383.044 193.625C383.071 193.625 374.094 182.847 365.676 193.625Z" fill="#302725"/>
<path d="M334.027 181.142C334.027 181.142 342.872 173.239 351.343 176.645C353.314 177.443 353.767 178.375 355.019 182.207C355.019 182.207 345.376 176.805 334.027 181.142Z" fill="#6F3B1E"/>
<path d="M385.975 184.444C385.975 184.444 380.941 175.316 373.268 177.152C371.484 177.578 370.871 178.403 368.873 181.863C368.873 181.889 378.01 178.35 385.975 184.444Z" fill="#6F3B1E"/>
<path d="M322.438 187.476C322.438 187.476 313.035 174.65 310.317 186.971C308.16 196.79 316.924 204.002 322.358 202.166C327.793 200.33 322.438 187.476 322.438 187.476Z" fill="#FBB2A6"/>
<path d="M322.547 189.765C322.547 189.765 315.887 181.676 314.182 185.481C312.477 189.286 313.49 193.757 313.49 193.757C313.49 193.757 314.182 188.648 318.231 191.016C318.231 191.016 315.354 199.425 322.547 196.232C322.574 196.232 325.397 193.438 322.547 189.765Z" fill="#F39B8D"/>
<path d="M322.956 202.823C322.956 204.127 321.97 205.165 320.771 205.165C319.546 205.165 318.587 204.101 318.587 202.823C318.587 201.52 319.573 200.455 320.771 200.455C321.97 200.455 322.956 201.493 322.956 202.823Z" fill="white"/>
<path d="M399.348 178.669C391.729 180.798 383.151 179.255 376.678 174.598C370.205 169.941 365.996 162.25 365.569 154.293C365.436 152.085 365.889 149.424 367.887 148.519C368.58 148.199 369.379 148.173 370.151 148.199C374.866 148.333 379.395 150.328 383.151 153.229C386.907 156.13 389.891 159.882 392.528 163.82C394.419 166.668 396.124 169.648 397.163 172.895C397.803 174.944 398.175 177.073 398.255 179.202" fill="url(#paint1_linear_856_6603)"/>
<path d="M367.221 159.271C353.289 167.148 337.518 181.066 322.414 180.294C321.642 180.268 317.752 175.504 317.433 174.892C317.166 174.36 317.459 173.695 317.752 173.109C320.816 167.308 329.021 157.222 335.121 153.789C341.221 150.357 347.908 148.175 354.567 146.205C357.951 145.221 361.387 144.263 364.797 144.209C368.18 144.156 371.59 145.088 373.481 147.376" fill="url(#paint2_linear_856_6603)"/>
<path d="M439.63 401.953C439.63 401.953 442.835 388.151 411.573 375.382C380.338 362.613 367.572 361.227 365.806 370.22C364.041 379.213 371.7 397.987 416.353 410.05C434.524 414.94 439.63 401.953 439.63 401.953Z" fill="#DE947A"/>
<path d="M419.501 399.075C419.501 399.048 419.501 399.021 419.501 398.994C420.615 390.408 431.452 388.914 437.645 393.614C442.724 397.472 447.613 421.435 449.188 430.51C451.633 444.665 453.534 465.965 455.951 480.147C456.657 484.277 457.336 488.379 457.934 492.509C461.139 499.654 461.818 500.823 464.534 505.822C467.25 510.794 469.83 510.413 467.304 511.527C463.23 513.347 451.633 509.734 448.916 501.746C447.423 497.399 446.581 495.552 446.037 490.743C422 444.42 418.632 406.085 419.501 399.075Z" fill="#DE947A"/>
<path d="M417.352 399.649C417.352 399.649 418.656 385.548 386.009 377.072C353.334 368.622 340.514 368.948 339.944 378.077C339.373 387.233 349.504 404.784 395.352 410.761C414.039 413.206 417.352 399.649 417.352 399.649Z" fill="#F0A98F"/>
<path d="M441.283 395.647C429.36 370.516 380.389 362.854 380.389 362.854L372.729 344.977L354.857 344.569C325.496 400.347 382.942 393.528 390.194 396.081C397.418 398.635 417.001 413.116 417.001 413.116C420.831 435.259 437.427 490.194 441.691 490.602C445.955 491.037 458.286 485.929 458.286 485.929C458.286 485.929 453.18 420.751 441.283 395.647Z" fill="#C2C2C2"/>
<path d="M401.655 399.103C404.263 392.555 413.796 391.441 417.218 398.396C420.043 404.102 417.218 433.526 414.557 442.328C410.401 456.103 406.191 469.85 402.035 483.598C400.813 487.592 399.591 491.586 398.26 495.552C397.934 503.377 398.043 504.735 398.233 510.414C398.423 516.065 398.179 524.813 395.408 524.704C390.954 524.541 383.213 511.69 384.354 503.322C384.978 498.758 386.744 493.216 388.401 488.651C388.89 399.972 400.732 401.439 401.655 399.103Z" fill="#F0A98F"/>
<path d="M329.328 332.621C329.328 332.621 303.064 382.503 316.834 394.81C330.605 407.145 390.631 414.372 390.631 414.372C390.631 414.372 384.248 468.438 386.366 485.907L402.962 488.461C402.962 488.461 428.928 412.66 417.004 393.941C405.08 375.221 374.008 368.81 360.808 370.114C360.808 370.114 367.191 352.237 362.519 345.825C357.847 339.44 329.328 330.936 329.328 332.621Z" fill="#D4D4D4"/>
<path d="M325.823 340.826C329.436 309.853 312.406 250.435 312.406 250.435C312.406 250.435 357.846 237.013 386.908 250.435L372.051 346.477C372.051 346.477 364.012 348.487 352.74 346.884C341.522 345.254 325.823 340.826 325.823 340.826Z" fill="white"/>
<path d="M332.532 296.836C332.532 296.836 366.7 300.368 376.125 293.304C376.125 293.304 364.337 321.586 332.532 296.836Z" fill="#EFEDF0"/>
<path d="M374.602 347.238C374.602 347.238 355.507 356.339 325.522 342.239C325.82 340.826 326.418 333.137 326.418 333.137L373.216 339.06L374.602 347.238Z" fill="#8F99B6"/>
<path d="M344.182 334.981L341.9 349.516L336.006 349.055L338.261 333.595L344.182 334.981Z" fill="#D4D4D4"/>
<path d="M367.35 336.805L369.17 349.982L354.177 351.34L353.281 334.984L367.35 336.805ZM357.79 347.238L364.362 345.879V339.739L356.649 339.06L357.79 347.238Z" fill="#EAEAEA"/>
<path d="M464.718 331.809C464.718 331.809 452.468 332.298 437.991 329.472C425.036 326.945 410.287 321.81 401.025 311.296C390.27 299.07 380.519 277.063 380.519 277.063C380.519 277.063 383.289 252.72 386.929 250.465C390.541 248.21 415.719 298.744 422.238 302.738C425.986 305.02 438.942 309.585 450.132 313.823C458.471 316.974 465.831 319.936 467.597 321.62C471.752 325.533 464.718 331.809 464.718 331.809Z" fill="white"/>
<path d="M471.833 331.836C470.285 324.256 465.233 318.686 459.23 318.686C453.228 318.686 448.176 324.256 446.628 331.836H471.833Z" fill="#22272E"/>
<path d="M452.36 325.584C452.36 327.322 450.622 328.708 448.476 328.708C446.331 328.708 444.592 327.295 444.592 325.584C444.592 323.845 446.331 322.459 448.476 322.459C450.622 322.432 452.36 323.845 452.36 325.584Z" fill="#F0A98F"/>
<path d="M457.739 318.687C457.739 321.186 456.571 323.224 455.105 323.224C453.638 323.224 452.47 321.186 452.47 318.687C452.47 316.187 453.638 314.177 455.105 314.177C456.571 314.177 457.739 316.187 457.739 318.687Z" fill="#F0A98F"/>
<path d="M465.37 319.011C464.555 321.348 462.789 322.842 461.404 322.326C460.046 321.81 459.584 319.473 460.399 317.137C461.214 314.8 462.98 313.306 464.365 313.822C465.75 314.338 466.185 316.675 465.37 319.011Z" fill="#F0A98F"/>
<path d="M471.645 325.156C470.096 327.058 467.951 327.819 466.837 326.841C465.724 325.863 466.077 323.499 467.598 321.597C469.146 319.695 471.292 318.935 472.405 319.913C473.519 320.918 473.166 323.254 471.645 325.156Z" fill="#F0A98F"/>
<path d="M473.465 331.347C471.183 332.08 468.983 331.51 468.576 330.043C468.141 328.576 469.635 326.81 471.916 326.049C474.198 325.315 476.398 325.886 476.832 327.353C477.24 328.82 475.746 330.613 473.465 331.347Z" fill="#F0A98F"/>
<path d="M316.91 330.476C316.91 330.476 331.495 305.101 353.957 331.618L316.91 330.476Z" fill="#F0A98F"/>
<path d="M312.432 250.439C310.666 250.575 279.241 291.22 275.303 325.235C275.303 325.235 275.085 338.629 294.343 319.095C302.002 311.324 304.772 291.736 318.842 275.489C318.842 275.462 319.711 249.869 312.432 250.439Z" fill="white"/>
<path d="M327.532 319.094C322.426 316.703 308.221 314.964 304.663 314.068C282.146 308.308 277.447 328.033 277.447 328.033C273.563 334.553 304.608 333.738 322.996 332.244C323.784 327.815 326.989 323.55 327.532 319.094Z" fill="white"/>
<path d="M528.304 538.125L487.318 351.121L497.177 347.807L538.896 538.125H528.304Z" fill="#C1C7CC"/>
<path d="M224.781 538.123L265.739 351.12L255.907 347.805L214.161 538.123H224.781Z" fill="#C1C7CC"/>
<path d="M206.907 331.698H546.147V351.831H206.907V331.698Z" fill="#D8DDE1"/>
<path d="M494.871 323.196C494.871 323.305 494.898 323.441 494.898 323.549C494.952 328.114 491.068 331.863 486.234 331.917L368.599 333.466C363.738 333.52 359.772 329.88 359.691 325.315C359.691 325.179 359.691 325.071 359.718 324.962L494.871 323.196Z" fill="#E7E9ED"/>
<path d="M385.733 319.364C385.244 322.733 387.227 325.45 390.106 325.396L489.216 324.065C492.122 324.038 494.73 321.674 495.083 318.767L501.493 264.565C501.846 261.658 499.836 259.104 497.011 258.859L400.672 250.41C397.847 250.165 395.185 252.719 394.696 256.088L385.733 319.364Z" fill="#E2E4E8"/>
<path d="M437.83 289.697C437.314 293.609 439.759 296.842 443.29 296.923C446.821 297.005 450.08 293.989 450.596 290.131C451.085 286.3 448.64 283.067 445.137 282.877C441.633 282.768 438.374 285.784 437.83 289.697Z" fill="#F2F2F2"/>
</g>
<path d="M567.884 266C556.928 266 548.05 274.879 548.05 285.834C548.05 296.79 556.928 305.669 567.884 305.669C578.84 305.669 587.719 296.79 587.719 285.834C587.719 274.879 578.84 266 567.884 266ZM567.884 300.727C559.651 300.727 552.982 294.058 552.982 285.825C552.982 277.591 559.651 270.923 567.884 270.923C576.118 270.923 582.786 277.591 582.786 285.825C582.786 294.058 576.118 300.727 567.884 300.727Z" fill="#66D6A0"/>
<g filter="url(#filter0_d_856_6603)">
<path d="M146.468 345.011L157.369 342.961V333.188L146.468 331.308C145.631 327.293 144.042 323.534 141.855 320.202L148.108 311.027L141.188 304.107L132.15 310.497C128.818 308.31 125.076 306.738 121.044 305.901L118.993 295H109.22L107.341 305.901C103.326 306.738 99.5666 308.327 96.2348 310.514L87.0766 304.261L80.1567 311.181L86.5469 320.219C84.3599 323.551 82.788 327.31 81.9507 331.325L71.0498 333.375V343.149L81.9507 345.028C82.788 349.061 84.377 352.802 86.564 356.134L80.3105 365.292L87.2304 372.212L96.286 365.822C99.6178 368.009 103.377 369.598 107.392 370.418L109.442 381.319H119.216L121.095 370.418C125.127 369.581 128.869 367.992 132.201 365.805L141.359 372.059L148.279 365.139L141.889 356.1C144.059 352.785 145.631 349.043 146.468 345.011ZM114.209 358.407C103.035 358.407 93.9794 349.334 93.9794 338.177C93.9794 327.019 103.035 317.947 114.209 317.947C125.384 317.947 134.439 327.002 134.439 338.177C134.439 349.351 125.384 358.407 114.209 358.407Z" fill="#84B5FF"/>
</g>
<g filter="url(#filter1_d_856_6603)">
<path d="M186.29 222.326L193.118 221.041V214.92L186.29 213.742C185.765 211.227 184.77 208.873 183.4 206.786L187.317 201.039L182.983 196.704L177.321 200.707C175.234 199.337 172.89 198.352 170.365 197.828L169.08 191H162.959L161.782 197.828C159.266 198.352 156.912 199.348 154.825 200.718L149.089 196.801L144.754 201.135L148.757 206.797C147.387 208.884 146.402 211.238 145.878 213.753L139.05 215.037V221.159L145.878 222.336C146.402 224.862 147.398 227.206 148.768 229.293L144.85 235.029L149.185 239.364L154.857 235.361C156.944 236.731 159.299 237.726 161.814 238.24L163.098 245.068H169.22L170.397 238.24C172.923 237.716 175.266 236.72 177.353 235.35L183.09 239.267L187.424 234.933L183.422 229.271C184.781 227.195 185.765 224.851 186.29 222.326ZM166.084 230.716C159.085 230.716 153.412 225.033 153.412 218.045C153.412 211.056 159.085 205.373 166.084 205.373C173.083 205.373 178.755 211.045 178.755 218.045C178.755 225.044 173.083 230.716 166.084 230.716Z" fill="#84B5FF"/>
</g>
<path d="M195.86 396.762H168.152C167.062 396.762 166.17 395.88 166.17 394.78C166.17 393.689 167.052 392.797 168.152 392.797H195.86C196.951 392.797 197.842 393.679 197.842 394.78C197.842 395.87 196.951 396.762 195.86 396.762Z" fill="#66D6A0"/>
<path d="M195.86 406.655H168.152C167.062 406.655 166.17 405.773 166.17 404.673C166.17 403.582 167.052 402.69 168.152 402.69H195.86C196.951 402.69 197.842 403.573 197.842 404.673C197.842 405.764 196.951 406.655 195.86 406.655Z" fill="#66D6A0"/>
<path opacity="0.83" d="M374.5 328C381.402 335.52 371.294 325.684 372.9 324.5C372.9 324.5 376.422 321.713 376.5 321C376.579 320.281 380 291 381.75 281C385.781 276.481 386.726 253.64 386.656 249.858L386.646 249.436C386.646 249.436 383.725 256.871 381.75 265C379.77 273.135 378.5 291.5 378.5 291.5C378.5 291.5 378.188 324.839 372.9 324.5C372.475 325.29 375.389 327.325 374.5 328Z" fill="#CAC3CD" fill-opacity="0.3"/>
<path opacity="0.83" d="M325.5 319C325.5 319.5 327.107 320.684 325.5 319.5C325.5 319.5 325.578 319.713 325.5 319C325.421 318.281 320.25 286 318.5 276C314.469 271.482 312.733 253.816 312.803 250.035L312.814 249.612C312.814 249.612 315.735 257.047 317.709 265.176C319.689 273.311 326.559 293.5 326.559 293.5C326.559 293.5 326.941 316.324 325.5 319.5C325.925 320.29 326.041 309.824 325.5 319Z" fill="#CAC3CD" fill-opacity="0.3"/>
<path d="M342.699 244H342.149C342.065 244.072 342.218 244.263 343.06 244.723L358.241 244.723L362.5 244C362.5 244 360.203 248.746 355 250.5C351.389 251.718 347.83 252.354 344.5 250.5C340.639 248.351 338 244 338 244H342.149C342.251 243.913 342.699 244 342.699 244Z" fill="#CAC3CD" fill-opacity="0.3"/>
<defs>
<filter id="filter0_d_856_6603" x="61.0498" y="289" width="106.319" height="106.319" filterUnits="userSpaceOnUse" color-interpolation-filters="sRGB">
<feFlood flood-opacity="0" result="BackgroundImageFix"/>
<feColorMatrix in="SourceAlpha" type="matrix" values="0 0 0 0 0 0 0 0 0 0 0 0 0 0 0 0 0 0 127 0" result="hardAlpha"/>
<feOffset dy="4"/>
<feGaussianBlur stdDeviation="5"/>
<feColorMatrix type="matrix" values="0 0 0 0 0.0885677 0 0 0 0 0.0395834 0 0 0 0 0.395833 0 0 0 0.25 0"/>
<feBlend mode="normal" in2="BackgroundImageFix" result="effect1_dropShadow_856_6603"/>
<feBlend mode="normal" in="SourceGraphic" in2="effect1_dropShadow_856_6603" result="shape"/>
</filter>
<filter id="filter1_d_856_6603" x="129.05" y="185" width="74.0684" height="74.0681" filterUnits="userSpaceOnUse" color-interpolation-filters="sRGB">
<feFlood flood-opacity="0" result="BackgroundImageFix"/>
<feColorMatrix in="SourceAlpha" type="matrix" values="0 0 0 0 0 0 0 0 0 0 0 0 0 0 0 0 0 0 127 0" result="hardAlpha"/>
<feOffset dy="4"/>
<feGaussianBlur stdDeviation="5"/>
<feColorMatrix type="matrix" values="0 0 0 0 0.0885677 0 0 0 0 0.0395834 0 0 0 0 0.395833 0 0 0 0.25 0"/>
<feBlend mode="normal" in2="BackgroundImageFix" result="effect1_dropShadow_856_6603"/>
<feBlend mode="normal" in="SourceGraphic" in2="effect1_dropShadow_856_6603" result="shape"/>
</filter>
<linearGradient id="paint0_linear_856_6603" x1="293.869" y1="313.221" x2="403.44" y2="163.097" gradientUnits="userSpaceOnUse">
<stop stop-color="#13864E"/>
<stop offset="1" stop-color="#38D98B"/>
</linearGradient>
<linearGradient id="paint1_linear_856_6603" x1="399.54" y1="179.864" x2="359.377" y2="136.972" gradientUnits="userSpaceOnUse">
<stop stop-color="#35D286"/>
<stop offset="0.0001" stop-color="#35D286"/>
<stop offset="1" stop-color="#37D88A"/>
</linearGradient>
<linearGradient id="paint2_linear_856_6603" x1="317.148" y1="177.292" x2="373.805" y2="143.991" gradientUnits="userSpaceOnUse">
<stop stop-color="#26B16E"/>
<stop offset="0.0001" stop-color="#27B36F"/>
<stop offset="1" stop-color="#38D98B"/>
</linearGradient>
</defs>
</svg>
