<svg width="454" height="469" viewBox="0 0 454 469" fill="none" xmlns="http://www.w3.org/2000/svg">
<path opacity="0.2" d="M127.194 180.713L144.133 177.527V162.34L127.194 159.42C125.893 153.18 123.424 147.339 120.025 142.162L129.743 127.904L118.99 117.151L104.945 127.081C99.7672 123.683 93.9526 121.24 87.6867 119.939L84.5006 103H69.3137L66.3932 119.939C60.1539 121.24 54.3128 123.709 49.1354 127.108L34.9043 117.39L24.1514 128.143L34.0813 142.189C30.6828 147.366 28.2402 153.207 26.9392 159.446L10 162.632V177.819L26.9392 180.74C28.2402 187.006 30.7094 192.82 34.1078 197.998L24.3904 212.229L35.1433 222.982L49.2151 213.052C54.3924 216.45 60.2335 218.919 66.4729 220.194L69.6589 237.133H84.8458L87.7663 220.194C94.0323 218.893 99.8468 216.424 105.024 213.025L119.255 222.743L130.008 211.99L120.078 197.945C123.45 192.794 125.893 186.979 127.194 180.713ZM77.0665 201.529C59.7025 201.529 45.6307 187.431 45.6307 170.093C45.6307 152.756 59.7025 138.657 77.0665 138.657C94.4305 138.657 108.502 152.729 108.502 170.093C108.502 187.457 94.4305 201.529 77.0665 201.529Z" fill="#84B5FF"/>
<path opacity="0.06" d="M179.05 80.0558C101.773 133.666 31.9719 219.256 34.5 290.997C37.0281 362.739 147 404.997 227 388.497C239.208 384.489 250.396 386.707 263 385.997C290.563 384.489 292 361.997 314.053 341.458C337.03 333.394 293.156 354.798 314.053 341.458C323.128 335.592 343.826 331.565 357.394 319.938C387.401 294.224 425.396 198.701 408.108 167.098C390.82 135.495 284.868 6.64511 179.05 80.0558Z" fill="#276ED8"/>
<path d="M421.227 54.6684V191.085C421.227 194.593 418.386 197.434 414.878 197.434H206.852C203.344 197.434 200.503 194.593 200.503 191.085V54.6684C200.503 46.5752 207.068 40 215.171 40H406.559C414.662 40 421.227 46.5752 421.227 54.6684Z" fill="white" stroke="#84B5FF" stroke-miterlimit="10"/>
<path d="M302.72 72.6316H277.962V74.7122H302.72V72.6316Z" fill="#84B5FF"/>
<path d="M331.761 72.6315H307.003V74.7121H331.761V72.6315Z" fill="#06B25F"/>
<path d="M324.003 83.8597H285.611V85.9404H324.003V83.8597Z" fill="#276ED8"/>
<path d="M349.854 83.8597H330.345V85.9404H349.854V83.8597Z" fill="#84B5FF"/>
<path d="M315.781 95.0736H298.923V97.1542H315.781V95.0736Z" fill="#06B25F"/>
<path d="M381.457 95.0736H325.526V97.1542H381.457V95.0736Z" fill="#06B25F"/>
<path d="M375.939 106.296H312.019V108.377H375.939V106.296Z" fill="#276ED8"/>
<path d="M315.709 117.511H296.038V119.591H315.709V117.511Z" fill="#84B5FF"/>
<path d="M343.799 117.511H324.128V119.591H343.799V117.511Z" fill="#276ED8"/>
<path d="M306.572 175.732H277.962V177.813H306.572V175.732Z" fill="#84B5FF"/>
<path d="M345.197 175.732H316.587V177.813H345.197V175.732Z" fill="#06B25F"/>
<path d="M382.801 175.732H354.19V177.813H382.801V175.732Z" fill="#84B5FF"/>
<path d="M341.543 164.5H285.612V166.581H341.543V164.5Z" fill="#276ED8"/>
<path d="M406.179 164.5H350.248V166.581H406.179V164.5Z" fill="#84B5FF"/>
<path d="M354.423 153.289H298.923V155.37H354.423V153.289Z" fill="#84B5FF"/>
<path d="M374.702 153.289H359.26V155.37H374.702V153.289Z" fill="#06B25F"/>
<path d="M316.193 142.063H295.304V144.143H316.193V142.063Z" fill="#06B25F"/>
<path d="M348.17 142.063H327.281V144.143H348.17V142.063Z" fill="#276ED8"/>
<path d="M382.514 142.063H361.625V144.143H382.514V142.063Z" fill="#84B5FF"/>
<path d="M348.815 130.854H319.524V132.934H348.815V130.854Z" fill="#06B25F"/>
<path d="M308.471 130.854H279.18V132.934H308.471V130.854Z" fill="#276ED8"/>
<path d="M271.064 70.642H268.395V73.3145H271.064V70.642Z" fill="#84B5FF"/>
<path d="M271.064 168.467H268.395V163.032H271.064V168.467ZM271.064 154.871H268.395V149.437H271.064V154.871ZM271.064 141.276H268.395V135.841H271.064V141.276ZM271.064 127.68H268.395V122.245H271.064V127.68ZM271.064 114.084H268.395V108.649H271.064V114.084ZM271.064 100.488H268.395V95.0534H271.064V100.488ZM271.064 86.8924H268.395V81.4576H271.064V86.8924Z" fill="#84B5FF"/>
<path d="M271.065 176.626H268.396V179.299H271.065V176.626Z" fill="#84B5FF"/>
<path opacity="0.7" d="M200 56.7605C200 53.4468 202.686 50.7605 206 50.7605H257.443V197.445H206C202.686 197.445 200 194.759 200 191.445V56.7605Z" fill="#84B5FF"/>
<path d="M229.351 74.6848H204.593V76.7654H229.351V74.6848Z" fill="#06B25F"/>
<path d="M248.302 87.3987H209.91V89.4793H248.302V87.3987Z" fill="#84B5FF"/>
<path d="M248.302 100.114H209.91V102.195H248.302V100.114Z" fill="#84B5FF"/>
<path d="M248.302 112.829H209.91V114.91H248.302V112.829Z" fill="#84B5FF"/>
<path d="M248.302 125.541H209.91V127.622H248.302V125.541Z" fill="#84B5FF"/>
<path d="M250.296 150.969H211.904V153.05H250.296V150.969Z" fill="#84B5FF"/>
<path d="M250.296 163.686H211.904V165.767H250.296V163.686Z" fill="#84B5FF"/>
<path d="M250.296 176.397H211.904V178.478H250.296V176.397Z" fill="#84B5FF"/>
<path d="M229.351 138.255H204.593V140.336H229.351V138.255Z" fill="#06B25F"/>
<path d="M421.227 54.6684V55.2839H200.503V54.6684C200.503 46.5752 207.068 40 215.171 40H406.559C414.662 40 421.227 46.5752 421.227 54.6684Z" fill="#84B5FF"/>
<path opacity="0.3" d="M387.705 48.3504C387.705 49.407 386.854 50.2584 385.798 50.2584C384.741 50.2584 383.89 49.407 383.89 48.3504C383.89 47.2939 384.741 46.4425 385.798 46.4425C386.844 46.4425 387.705 47.2939 387.705 48.3504Z" fill="white"/>
<path opacity="0.3" d="M398.147 48.3498C398.147 49.4064 397.296 50.2577 396.239 50.2577C395.182 50.2577 394.331 49.4064 394.331 48.3498C394.331 47.2933 395.182 46.4419 396.239 46.4419C397.285 46.4419 398.147 47.2933 398.147 48.3498Z" fill="white"/>
<path opacity="0.3" d="M408.129 48.3498C408.129 49.4064 407.278 50.2577 406.221 50.2577C405.165 50.2577 404.313 49.4064 404.313 48.3498C404.313 47.2933 405.165 46.4419 406.221 46.4419C407.278 46.4419 408.129 47.2933 408.129 48.3498Z" fill="white"/>
<path d="M421.227 54.6684V191.085C421.227 194.593 418.386 197.434 414.878 197.434H206.852C203.344 197.434 200.503 194.593 200.503 191.085V54.6684C200.503 46.5752 207.068 40 215.171 40H406.559C414.662 40 421.227 46.5752 421.227 54.6684Z" stroke="#84B5FF" stroke-miterlimit="10"/>
<g filter="url(#filter0_d_620_6468)">
<rect x="11" y="271" width="65.6797" height="64.5473" rx="6" fill="#06B25F"/>
</g>
<path d="M33.3579 313.947L18.3232 305.816C17.3515 305.254 16.8657 304.384 16.8657 303.208C16.8657 301.981 17.3771 301.112 18.3999 300.6L33.3579 292.392V295.384C33.3579 295.589 33.2812 295.87 33.1278 296.228C32.9744 296.535 32.7443 296.765 32.4374 296.918L21.775 302.748C21.3659 303.055 21.3659 303.362 21.775 303.668L33.3579 309.882V313.947Z" fill="white"/>
<path d="M46.1643 289.938H49.1559L41.7152 315.405C41.5107 316.07 41.0504 316.402 40.3345 316.402H38.4168L46.1643 289.938Z" fill="white"/>
<path d="M53.9846 292.392L68.9426 300.6C70.0166 301.163 70.5535 302.032 70.5535 303.208C70.5535 304.384 70.0166 305.228 68.9426 305.74L53.9846 313.947V310.956C53.9846 310.802 54.0357 310.547 54.138 310.189C54.2914 309.831 54.5216 309.575 54.8284 309.422L65.5675 303.668C65.9766 303.362 65.9766 303.055 65.5675 302.748L53.9846 296.458V292.392Z" fill="white"/>
<mask id="mask0_620_6468" style="mask-type:alpha" maskUnits="userSpaceOnUse" x="1" y="11" width="377" height="381">
<path d="M378 201.997C378 306.931 293.606 391.997 189.5 391.997C85.3948 391.997 1.00049 306.931 1.00049 201.997C1.00049 97.0627 85.3948 11.9968 189.5 11.9968C293.606 11.9968 378 97.0627 378 201.997Z" fill="#C4C4C4"/>
</mask>
<g mask="url(#mask0_620_6468)">
<path d="M122.811 201.432C122.811 201.432 125.533 200.611 126.624 202.793C127.714 204.975 131.127 231.166 130.177 238.532C129.216 245.899 126.494 243.177 126.494 243.177C126.494 243.177 126.764 247.54 128.535 248.772L128.546 248.761C128.568 248.75 128.611 248.718 128.665 248.674C128.708 248.653 128.762 248.61 128.827 248.566H128.838C129.885 247.875 133.514 245.477 136.863 243.177C140.816 240.444 143.138 238.122 143.138 238.122C143.138 238.122 142.587 233.759 142.587 232.538C142.587 231.307 151.325 202.242 159.911 193.245C167.926 184.853 160.052 137.578 158.95 131.195L158.821 130.482C158.821 130.482 151.865 132.534 148.862 134.727C145.871 136.93 135.081 163.5 134.541 177.141C133.99 190.782 129.086 198.526 129.086 198.526C129.086 198.526 127.444 197.533 124.712 198.526L122.811 201.432Z" fill="url(#paint0_linear_620_6468)"/>
<path opacity="0.83" d="M128.838 248.566C129.885 247.875 133.514 245.477 136.863 243.177C140.816 240.444 143.138 238.122 143.138 238.122C143.138 238.122 142.587 233.759 142.587 232.538C142.587 231.307 151.325 202.242 159.911 193.245C167.926 184.853 160.052 137.578 158.95 131.195L158.821 130.482C158.821 130.482 153.161 137.578 150.709 151.694C148.247 165.822 151.725 193.655 151.725 193.655C151.725 193.655 146.821 216.164 134.746 216.575C134.746 216.575 144.877 231.404 140.881 238.846C140.114 240.261 130.685 247.259 128.838 248.566Z" fill="#436CF6"/>
<path d="M151.93 378.855C152.157 381.34 152.589 383.349 153.108 385.098V385.109C153.983 388.123 155.084 390.38 155.689 392.972C156.64 397.066 157.73 412.997 157.73 412.997H186.385C185.294 407.099 183.933 402.531 182.291 387.788C180.725 373.693 189.15 325.111 189.873 320.953C189.906 320.769 189.927 320.672 189.927 320.672C197.294 351.497 215.374 387.248 217.221 389.289C219.057 391.341 222.74 393.177 222.74 393.177C224.792 397.066 229.091 412.997 229.091 412.997H262.033C260.197 404.572 251.805 391.957 249.137 387.248C246.48 382.539 236.457 350.406 233.789 329.129C232.677 320.261 231.824 310.897 231.197 302.98V302.959C230.322 291.899 229.901 283.69 229.901 283.69C221.52 275.104 155.948 266.636 155.948 266.636L153.875 273.365C153.875 273.365 151.531 273.872 151.218 275.514C150.915 277.145 153.108 278.646 153.108 278.646C145.752 320.391 151.326 372.105 151.93 378.855Z" fill="url(#paint1_linear_620_6468)"/>
<path opacity="0.62" d="M230.084 286.952C230.084 286.952 210.254 284.511 197.768 290.441C185.283 296.37 186.406 306.609 186.406 306.609L189.927 320.661L177.798 307.97L153.096 278.636C153.096 278.636 157.719 281.433 163.724 282.664C163.724 282.664 155.3 277.447 153.874 273.354L155.948 266.625L230.084 282.459V286.952Z" fill="#301E72"/>
<path d="M132.186 231.102C132.186 231.102 133.007 240.315 127.477 244.613C127.477 244.613 116.115 238.684 110.531 228.996C104.925 219.296 132.186 231.102 132.186 231.102Z" fill="url(#paint2_linear_620_6468)"/>
<path d="M88.4215 202.091C88.4215 202.091 85.2569 204.661 85.2353 206.865C85.2137 209.068 90.4629 208.042 90.4629 208.042L88.4215 202.091Z" fill="url(#paint3_linear_620_6468)"/>
<path d="M244.234 192.013L246.48 179.733C246.48 179.733 252.215 179.733 260.597 187.51C260.597 187.51 260.802 191.722 263.675 196.982C263.675 196.982 273.331 201.637 277.813 207.977C282.296 214.317 283.991 214.954 288.668 211.358C289.91 210.407 290.753 207.178 291.195 202.782C291.854 196.139 291.606 186.829 290.461 178.631C289.51 171.87 287.944 165.876 285.773 162.754C285.773 162.754 285.979 158.585 283.926 155.313C283.829 155.377 283.721 155.442 283.624 155.518C282.954 155.939 281.226 156.868 279.433 156.544C277.111 156.133 275.167 152.58 275.167 152.58C275.167 152.58 273.839 152.72 273.158 153.682C273.158 153.682 263.88 148.054 258.005 138.582C252.14 129.121 251.189 127.954 251.189 127.954C251.189 127.954 249.688 127.339 247.658 126.961C246.059 126.658 244.126 126.518 242.322 126.939C242.322 126.939 213.808 171.006 244.234 192.013Z" fill="url(#paint4_linear_620_6468)"/>
<path d="M183.512 130.481C183.512 130.481 187.066 125.178 187.066 112.822L214.737 99.3213C214.737 99.3213 213.344 108.848 218.031 117.11C219.273 119.292 225.052 122.748 225.052 122.748C225.052 122.748 199.767 153.93 187.627 150.938C175.487 147.946 177.917 134.726 177.917 134.726C177.917 134.726 179.969 135.525 183.512 130.481Z" fill="#FF9B8B"/>
<path d="M221.65 120.491C221.65 120.491 207.944 134.154 196.149 134.921C183.512 135.742 185.597 125.233 185.597 125.233C185.597 125.233 179.883 133.247 181.514 139.555C183.156 145.862 195.631 146.175 205.254 141.974C214.878 137.783 224.08 121.485 224.08 121.485L221.65 120.491Z" fill="url(#paint5_linear_620_6468)"/>
<path d="M222.887 120C222.887 120 209.114 133.73 197.261 134.5C184.562 135.325 186.657 124.765 186.657 124.765C186.657 124.765 180.916 132.818 182.554 139.157C184.204 145.495 196.74 145.81 206.411 141.588C216.082 137.377 225.329 120.998 225.329 120.998L222.887 120Z" fill="#CEC5FF"/>
<path d="M164.15 203.118C164.15 203.118 168.253 224.575 162.913 247.813C162.913 247.813 159.624 250.071 159.211 252.947C159.211 252.947 159.211 252.969 159.201 253.001C158.81 255.867 158.347 258.014 158.347 258.014C158.347 258.014 157.974 259.948 156.737 261.999C156.509 262.39 156.379 262.846 156.335 263.345C156.14 265.472 157.355 268.164 157.355 268.164C157.355 268.164 159.83 274.546 185.532 276.804C211.233 279.072 231.183 284 231.183 284C231.183 284 235.299 279.386 232.466 275.479C232.466 275.479 234.276 271.051 234.07 269.608C233.864 268.164 224.399 251.721 226.863 240.205C229.338 228.689 238.585 219.344 243.73 196.866C243.73 196.866 243.523 193.65 243.73 192C243.936 190.361 243.729 190.918 243.729 190.918C243.729 190.918 233.516 184.199 236.675 155.817C239.822 127.434 241.188 129.5 242.688 127C242.688 127 249.547 128.617 242.264 126.501C242.264 126.501 238.075 125.893 233.755 124.384C229.435 122.876 225.225 120.851 225.225 120.851C225.225 120.851 200.499 142.054 189.07 140.698C176.024 139.156 185.228 124.884 185.228 124.884C185.228 124.884 177.033 126.479 172.648 127.499C168.253 128.531 166.614 127.499 166.614 127.499C166.614 127.499 160.785 128.055 157.355 130.649C153.926 133.232 152.905 143.064 154.273 166.095C155.641 189.127 164.15 203.118 164.15 203.118Z" fill="url(#paint6_linear_620_6468)"/>
<path d="M203.376 167.84L194.85 153.075L191.78 158.569L196.896 167.84L192.462 175.738L195.873 181.232L203.376 167.84Z" fill="#135BC6"/>
<path d="M191.098 159.943L194.167 165.437L193.144 166.81H187.005L191.098 159.943Z" fill="#135BC6"/>
<path d="M192.803 173.334L195.873 167.84H180.184L171.657 182.605H177.796L183.253 173.334H192.803Z" fill="#135BC6"/>
<path d="M184.277 174.364H190.075L195.191 182.605H205.423L208.492 187.756L191.78 188.099L184.277 174.364Z" fill="#135BC6"/>
<path d="M182.23 177.111H184.618L187.687 182.605H179.161L182.23 177.111Z" fill="#135BC6"/>
<path d="M197.578 179.858L200.648 174.708L205.082 181.232H198.601L197.578 179.858Z" fill="#135BC6"/>
<path d="M70.6865 161.318C79.1434 183.967 102.343 232.128 102.343 232.128C132.899 237.992 161.553 233.078 161.553 233.078L163.195 230.432C152.556 198.246 129.626 156.274 129.626 156.274C101.523 154.773 71.7774 159.266 71.7774 159.266L70.6865 161.318Z" fill="#06B25F"/>
<path opacity="0.3" d="M97.7642 195.394C97.7642 195.394 99.0603 210.602 95.5177 217.752L81.5631 187.304L88.2056 188.871L87.3307 191.949C87.3307 191.938 92.8499 191.679 97.7642 195.394Z" fill="#008444"/>
<path d="M82.5568 187.304C82.5568 187.304 80.3319 189.065 79.8998 190.512C79.4246 192.078 78.809 196.031 83.3777 197.263L85.419 197.814C85.419 197.814 83.9177 198.494 83.6477 199.52C83.3777 200.546 85.0842 202.793 87.806 203.344C90.5386 203.894 95.1073 202.793 96.4682 201.572C97.8291 200.341 96.9434 198.634 94.9021 198.159C94.9021 198.159 97.9047 197.49 97.7643 195.405C97.6239 193.32 90.733 191.074 83.4425 191.754L82.5568 187.304Z" fill="url(#paint7_linear_620_6468)"/>
<path d="M77.0278 176.925C77.0278 176.925 73.3448 180.338 73.3448 182.692C73.3448 185.047 78.7668 188.017 88.077 189.173C88.077 189.173 88.9519 187.369 88.077 185.425C87.2021 183.481 82.547 180.748 78.7127 180.143L77.0278 176.925Z" fill="url(#paint8_linear_620_6468)"/>
<path d="M87.7633 204.694C87.7633 204.694 94.0925 204.078 93.5417 209.856C93.5417 209.856 89.9991 210.353 87.4069 209.608C84.8147 208.863 85.1603 206.875 85.3655 206.195C85.5599 205.514 85.7976 204.974 87.7633 204.694Z" fill="url(#paint9_linear_620_6468)"/>
<path d="M218.322 106.323C218.322 106.323 206.443 126.923 185.773 125.092C185.773 125.092 187.618 117.862 187.413 112.712C187.413 112.712 197.049 112.486 204.176 109.847C212.22 106.873 218.31 99.245 218.31 99.245L218.322 106.323Z" fill="url(#paint10_linear_620_6468)"/>
<path d="M285.773 162.744C285.773 162.744 282.134 167.053 279.703 183.956C277.273 200.859 283.948 210.947 283.948 210.947C283.948 210.947 277.187 209.673 275.167 189.886C273.147 170.099 281.475 161.307 281.475 161.307L285.773 162.744Z" fill="url(#paint11_linear_620_6468)"/>
<path opacity="0.5" d="M246.479 179.733C246.479 179.733 238.195 176.309 235.009 170.11C235.009 170.11 235.495 185.468 243.887 191.063C243.887 191.063 245.972 184.842 246.479 179.733Z" fill="#3739BE"/>
<path opacity="0.62" d="M189.927 320.661L185.563 304.698C185.563 304.698 177.981 293.713 165.668 288.702L177.798 307.29L189.927 320.661Z" fill="#281C6F"/>
<path opacity="0.62" d="M217.221 389.289C219.057 391.341 222.74 393.177 222.74 393.177C224.792 397.066 229.091 412.997 229.091 412.997H262.033C260.197 404.572 251.805 391.957 249.137 387.248C246.48 382.539 236.457 350.407 233.789 329.129C232.677 320.262 231.824 310.897 231.197 302.98C231.165 303.585 230.074 309.774 233.26 339.822C236.533 370.658 238.768 383.975 238.498 386.697C238.228 389.43 224.857 395.975 217.221 389.289Z" fill="#281C6F"/>
<path opacity="0.62" d="M153.107 385.109C153.982 388.122 155.084 390.38 155.689 392.972C156.639 397.065 157.73 412.997 157.73 412.997H186.384C185.294 407.099 183.933 402.531 182.291 387.788C180.725 373.693 189.149 325.111 189.873 320.953C188.923 325.424 178.338 375.81 175.951 380.087C170.756 389.354 156.682 392.497 153.107 385.109Z" fill="#281C6F"/>
<path opacity="0.62" d="M238.143 387.464C238.143 387.464 235.874 397.39 224.912 398.869L222.741 393.177C222.741 393.177 218.582 390.65 217.902 389.97C217.902 389.97 220.959 392.292 228.022 391.201C235.086 390.11 238.143 387.464 238.143 387.464Z" fill="url(#paint12_linear_620_6468)"/>
<path opacity="0.62" d="M170.54 386.567C170.54 386.567 165.571 392.151 155.678 392.972C155.678 392.972 153.831 388.144 153.096 385.109C153.096 385.109 157.233 389.041 161.813 389.041C166.662 389.041 170.54 386.567 170.54 386.567Z" fill="url(#paint13_linear_620_6468)"/>
<path d="M70.6865 161.318C112.032 155.993 128.838 158.456 128.838 158.456C143.624 183.784 161.553 233.078 161.553 233.078L163.195 230.432C152.556 198.246 129.626 156.274 129.626 156.274C101.523 154.773 71.7774 159.266 71.7774 159.266L70.6865 161.318Z" fill="#008444"/>
<path d="M85.4188 197.803C85.4188 197.803 90.8084 198.419 94.9019 198.149C94.9019 198.149 89.2747 199.175 84.7167 198.213L85.4188 197.803Z" fill="url(#paint14_linear_620_6468)"/>
<path opacity="0.83" d="M225.139 130.114C225.117 130.201 225.085 130.276 225.052 130.362C225.096 130.244 225.128 130.158 225.139 130.114Z" fill="url(#paint15_linear_620_6468)"/>
<path opacity="0.5" d="M144.79 191.106L100.259 227.764L102.343 232.128C102.343 232.128 130.447 237.917 161.553 233.078L163.195 230.432C163.195 230.432 153.15 203.57 146.41 189.627L144.79 191.106Z" fill="#66D6A0"/>
<path opacity="0.62" d="M230.085 314.116C230.085 314.116 232.882 336.182 228.022 359.955L230.085 314.116Z" fill="#281C6F"/>
<path opacity="0.62" d="M184.267 319.301C184.267 319.301 176.685 349.316 170.551 362.071C170.551 362.071 182.637 345.492 187.022 334.303L189.873 320.953L186.406 306.62L184.267 319.301Z" fill="#281C6F"/>
<path d="M184.16 125.341L185.586 125.222C185.586 125.222 182.637 129.942 182.021 133.83C181.406 137.718 183.987 140.224 187.983 141.077C187.983 141.077 181.546 140.699 180.725 136.271C179.904 131.843 184.16 125.341 184.16 125.341Z" fill="url(#paint16_linear_620_6468)"/>
<path d="M173.43 92.1133C177.593 106.183 185.621 110.346 190.416 114.126C197.225 117.947 203.162 116.689 203.162 116.689C226.061 106.778 228.3 96.7968 229.808 85.6549C230.562 80.158 231.245 69.9281 228.936 57.2826C228.63 55.5571 228.111 54.0041 227.452 52.5744C223.258 43.4292 213.363 39.8796 213.363 39.8796C207.45 37.7104 200.712 37.242 194.563 38.4253C185.705 40.1261 178.731 44.9329 176.493 54.4232C175.763 57.4798 175.362 60.635 175.009 63.7656C174.231 70.1993 173.831 76.7069 173.619 83.1899C173.524 86.1479 173.454 89.1306 173.43 92.1133Z" fill="#FFADA0"/>
<path d="M195.222 57.7285C195.222 57.7285 182.925 55.2455 179.07 64.3026C179.07 64.3026 192.81 60.1642 195.435 62.2216L195.222 57.7285Z" fill="#38368E"/>
<path d="M208.297 59.0659C208.297 59.0659 220.405 55.8261 224.827 64.6231C224.827 64.6231 210.851 61.3597 208.368 63.5589L208.297 59.0659Z" fill="#38368E"/>
<path d="M221.918 73.6099C221.664 77.3899 218.062 80.2565 213.876 79.9775C209.69 79.6984 206.493 76.4005 206.747 72.5952C207.001 68.8153 210.603 65.974 214.789 66.253C218.975 66.5321 222.171 69.83 221.918 73.6099Z" fill="white"/>
<path d="M209.258 72.516C209.03 75.8646 210.984 78.7313 213.596 78.9088C216.209 79.0864 218.518 76.4988 218.746 73.1502C218.975 69.8015 217.047 66.9349 214.408 66.7573C211.795 66.5797 209.487 69.1673 209.258 72.516Z" fill="#7F9EC9"/>
<path d="M210.63 72.6168C210.478 75.0014 211.848 77.0309 213.7 77.1578C215.552 77.2846 217.2 75.4581 217.353 73.0734C217.505 70.6888 216.135 68.6593 214.283 68.5324C212.431 68.3802 210.782 70.2321 210.63 72.6168Z" fill="#38368E"/>
<path d="M210.679 68.5087C210.629 69.1429 211.364 69.7264 212.328 69.8025C213.292 69.8786 214.104 69.3966 214.155 68.737C214.206 68.0775 213.444 67.5193 212.48 67.4432C211.542 67.3925 210.73 67.8745 210.679 68.5087Z" fill="white" fill-opacity="0.8"/>
<path d="M194.826 73.0176C194.579 76.7445 191.075 79.5581 187.002 79.2866C182.93 79.0151 179.82 75.7572 180.067 72.0304C180.314 68.2789 183.818 65.4899 187.891 65.7614C191.963 66.0329 195.073 69.2908 194.826 73.0176Z" fill="white"/>
<path d="M183.547 72.0276C183.324 75.2855 185.225 78.0745 187.767 78.2472C190.309 78.42 192.555 75.9025 192.777 72.6446C192.999 69.3867 191.099 66.5978 188.557 66.425C186.015 66.2522 183.769 68.7697 183.547 72.0276Z" fill="#7F9EC9"/>
<path d="M184.879 72.1289C184.731 74.449 186.064 76.4235 187.866 76.5469C189.668 76.6703 191.272 74.8685 191.42 72.5485C191.568 70.2285 190.235 68.254 188.434 68.1306C186.632 68.0072 185.052 69.8089 184.879 72.1289Z" fill="#38368E"/>
<path d="M184.929 68.1284C184.88 68.7454 185.62 69.313 186.534 69.3871C187.471 69.4611 188.261 68.9922 188.311 68.3505C188.36 67.7088 187.644 67.1658 186.706 67.0918C185.768 67.0424 184.979 67.4867 184.929 68.1284Z" fill="white" fill-opacity="0.8"/>
<path d="M174.247 70.1132C174.247 70.1132 169.732 55.8533 166.008 67.0754C163.04 76.0129 167.987 84.7747 171.98 84.1471C175.974 83.5446 174.247 70.1132 174.247 70.1132Z" fill="#FFADA0"/>
<path d="M174.144 72.6607C174.144 72.6607 170.583 63.0296 168.726 66.4958C166.868 69.9619 166.887 74.6981 166.887 74.6981C166.887 74.6981 168.209 69.6709 170.794 72.9782C170.794 72.9782 167.328 80.8366 173.11 79.1961C173.129 79.1961 175.638 77 174.144 72.6607Z" fill="#E398AF"/>
<path d="M228.561 70.1309C228.561 70.1309 233.64 54.681 237.829 66.8396C241.169 76.523 235.603 85.9888 231.111 85.336C226.618 84.6832 228.561 70.1309 228.561 70.1309Z" fill="#FFADA0"/>
<path d="M228.644 72.366C228.644 72.366 232.484 62.3162 234.487 65.933C236.489 69.5499 236.469 74.492 236.469 74.492C236.469 74.492 235.044 69.2462 232.257 72.6974C232.257 72.6974 235.994 80.8974 229.758 79.1856C229.758 79.1856 227.054 76.894 228.644 72.366Z" fill="#E398AF"/>
<path d="M211.236 94.414C211.149 94.6773 209.416 98.867 206.608 102.004C203.23 105.777 198.294 108.014 192.832 99.9418C191.67 98.2308 190.507 96.0811 189.301 93.3831C189.301 93.3831 191.187 94.1069 193.951 94.8966C198.294 96.125 204.743 97.507 209.218 95.5108C209.964 95.4889 210.622 94.8966 211.236 94.414Z" fill="#712311"/>
<path d="M206.607 102.049C203.229 105.822 198.294 108.038 192.832 99.9654C195.749 99.1757 202.659 97.9473 206.607 102.049Z" fill="#D5503B"/>
<path d="M209.218 95.6223C202.089 103.585 196.912 99.3952 193.951 94.9642C198.294 96.1926 204.743 97.443 209.218 95.6223Z" fill="white"/>
<path d="M195.461 84.6513C195.461 84.6513 202.427 94.5507 208.88 83.8174L195.461 84.6513Z" fill="#D8826C"/>
<path d="M228.843 77.6369C228.087 75.3962 227.633 70.6827 227.633 70.6827C227.633 70.6827 227.496 62.5536 227.482 61.4879C227.454 58.9057 226.162 47.2031 220.553 46.8888C219.247 46.8205 215.796 50.9056 211.218 52.7773C210.394 53.1189 203.41 48.6513 199.781 47.3807C188.975 43.6099 179.008 53.884 179.008 53.884C175.86 57.3542 175.626 62.8738 175.613 64.4996C175.599 65.579 175.709 65.4413 175.613 69.6083C175.558 71.9856 174.788 75.3826 174.018 77.6369C173.482 75.1093 172.121 71.3308 170.815 66.508C168.643 58.5019 167.859 51.6297 168.258 49.8399L174.018 39.3745C181.84 25.1793 200.262 20.7527 213.748 29.8245L218.807 33.2265C225.873 30.7536 227.55 34.2238 229.516 36.8333C233.159 41.6971 234.576 46.2134 234.713 53.0446C234.768 55.5858 234.012 57.8264 232.074 65.1358C230.85 69.7537 229.338 75.3279 228.843 77.6369Z" fill="#293AA1"/>
<path d="M156.146 38.8693C160.793 47.7499 169.041 40.4951 172.093 33.9509C179.599 17.8156 188.645 20.3295 188.645 20.3295C207.163 6.06594 212.03 20.4934 212.03 20.4934C226.519 19.0862 227.055 27.1333 224.87 34.2787C222.684 41.3968 217.666 47.3127 211.246 51.1245C210.957 51.2884 210.669 51.466 210.394 51.63C205.623 43.8561 196.742 43.173 192.824 43.6785C187.559 44.3479 185.497 47.135 182.101 49.9358C176.864 54.2531 174.526 56.2205 164.601 55.3051C148.681 53.8296 156.146 38.8693 156.146 38.8693Z" fill="#5A65BA"/>
<path d="M156.146 38.8693C160.793 47.7499 169.041 40.4951 172.093 33.9509C179.599 17.8156 188.645 20.3295 188.645 20.3295C207.163 6.06594 212.03 20.4934 212.03 20.4934C226.519 19.0862 227.055 27.1333 224.87 34.2788C222.684 41.3969 217.666 47.3127 211.246 51.1245C210.957 51.2884 210.669 51.466 210.394 51.63C206.847 42.2712 197.54 41.4242 193.608 41.1236C191.243 40.946 186.982 41.3559 183.696 43.8971C174.76 50.8102 174.54 56.2069 164.601 55.2915C148.681 53.8296 156.146 38.8693 156.146 38.8693Z" fill="#293AA1"/>
<path d="M156.146 38.8693C160.793 47.7499 169.041 40.4951 172.093 33.9509C179.599 17.8156 188.645 20.3295 188.645 20.3295C207.163 6.06594 212.03 20.4934 212.03 20.4934C226.519 19.0862 227.055 27.1333 224.87 34.2788C222.684 41.3969 217.666 47.3127 211.246 51.1245C210.957 51.2884 210.669 51.466 210.394 51.63C206.847 42.2712 198.172 34.9892 194.227 34.6886C191.862 34.511 187.6 34.9209 184.315 37.4757C175.379 44.3889 174.526 56.2069 164.601 55.2915C148.681 53.8296 156.146 38.8693 156.146 38.8693Z" fill="#5A65BA"/>
<path d="M211.219 51.138C211.219 51.138 221.901 12.6921 201.569 14.031C201.569 14.031 194.571 14.7005 188.646 20.3294C188.646 20.3294 201.899 15.6568 206.394 22.3924C212.044 30.863 212.457 41.752 211.219 51.138Z" fill="#293AA1"/>
<path d="M177.4 29.6743C177.4 29.6743 181.497 24.6192 190.116 24.264C198.42 23.9088 209.844 27.6523 211.219 51.1379C211.219 51.1379 205.252 29.7973 189.374 26.8052C186.954 26.3544 183.573 26.5183 177.4 29.6743Z" fill="#293AA1"/>
<path d="M175.142 69.8348C175.129 70.63 174.483 71.277 173.675 71.277L172.127 71.2635C171.333 71.25 170.687 70.6031 170.687 69.7944L170.781 59.7263C170.795 58.9311 171.441 58.2842 172.248 58.2842L173.783 58.2977C174.577 58.3111 175.223 58.9581 175.223 59.7668L175.142 69.8348Z" fill="#002E73"/>
<path d="M236.038 70.4407C236.024 71.2359 235.378 71.8828 234.571 71.8828L233.036 71.8693C232.228 71.8559 231.596 71.2089 231.596 70.4002L231.69 60.3322C231.703 59.537 232.349 58.89 233.157 58.89L234.692 58.9035C235.499 58.917 236.132 59.5639 236.132 60.3726L236.038 70.4407Z" fill="#002E73"/>
<path d="M198.657 47.0166L199.519 32.9995L208.308 33.0939L209.345 47.1245L198.657 47.0166Z" fill="#058145"/>
<path d="M231.634 53.203C231.567 59.4972 219.102 64.4706 203.757 64.3088C188.426 64.1606 176.055 58.9311 176.109 52.6504C176.176 46.3561 188.654 41.3827 203.973 41.5445C219.318 41.6927 231.701 46.9087 231.634 53.203Z" fill="#002E73"/>
<path d="M191.471 48.9445C201.984 48.7692 213.142 48.338 223.628 49.7127C226.98 50.2249 230.776 51.7209 233.791 53.8505V53.6618C233.831 49.5779 230.56 46.2354 226.482 46.195L180.823 45.7367C176.745 45.6963 173.407 48.9714 173.366 53.0553V53.4461C177.687 48.7153 185.252 49.0523 191.471 48.9445Z" fill="white"/>
<path d="M210.664 79.3504C209.305 78.7978 208.322 77.8813 206.882 77.4095C205.347 76.9378 203.624 76.9243 202.09 77.0052C201.188 77.0861 200.178 77.1669 199.452 77.5173C198.092 77.9621 197.082 79.2156 195.535 79.4717C194.175 79.7277 186.839 79.6603 184.847 79.3638C182.68 79.0673 180.149 78.4069 178.157 77.6656C176.851 77.1534 174.496 75.6035 173.217 73.9457C173.351 77.8813 176.542 81.0486 180.512 81.089C184.564 81.1295 194.363 81.5473 195.171 81.4394C196.154 81.3047 196.45 80.6173 197.15 79.9973C198.819 78.5282 201.175 77.8678 203.369 77.8813C205.522 77.9082 207.797 78.5821 209.439 80.0243C210.085 80.5903 210.409 81.3721 211.297 81.5203C212.697 81.7764 224.327 81.5203 226.157 81.5338C230.196 81.5742 233.507 78.353 233.601 74.3365C232.026 75.8461 230.088 77.423 228.069 78.2452C224.152 79.9434 212.105 80.0916 210.664 79.3504Z" fill="white"/>
<path d="M233.803 53.8636C230.787 51.7341 226.992 50.2246 223.64 49.7259C213.141 48.3511 201.995 48.7824 191.482 48.9577C185.25 49.052 177.685 48.715 173.391 53.4593L173.189 73.6359C173.189 73.7437 173.203 73.8515 173.203 73.9593C174.482 75.6171 176.851 77.1671 178.143 77.6793C180.135 78.4206 182.666 79.081 184.833 79.3775C186.825 79.674 194.161 79.7414 195.521 79.4853C197.069 79.2292 198.078 77.9623 199.438 77.531C200.165 77.1806 201.161 77.0997 202.076 77.0189C203.61 76.938 205.333 76.9649 206.868 77.4232C208.308 77.8949 209.304 78.8114 210.65 79.364C212.091 80.1053 224.151 79.9571 228.055 78.2723C230.061 77.4636 231.999 75.8732 233.587 74.3637C233.587 74.3232 233.587 74.2828 233.587 74.2424L233.803 53.8636Z" fill="#1B9D5E"/>
<mask id="mask1_620_6468" style="mask-type:alpha" maskUnits="userSpaceOnUse" x="173" y="48" width="61" height="32">
<path d="M233.803 53.8636C230.787 51.7341 226.992 50.2246 223.64 49.7259C213.141 48.3511 201.995 48.7824 191.482 48.9577C185.25 49.052 177.685 48.715 173.391 53.4593L173.189 73.6359C173.189 73.7437 173.203 73.8515 173.203 73.9593C174.482 75.6171 176.851 77.1671 178.143 77.6793C180.135 78.4206 182.666 79.081 184.833 79.3775C186.825 79.674 194.161 79.7414 195.521 79.4853C197.069 79.2292 198.078 77.9623 199.438 77.531C200.165 77.1806 201.161 77.0997 202.076 77.0189C203.61 76.938 205.333 76.9649 206.868 77.4232C208.308 77.8949 209.304 78.8114 210.65 79.364C212.091 80.1053 224.151 79.9571 228.055 78.2723C230.061 77.4636 231.999 75.8732 233.587 74.3637C233.587 74.3232 233.587 74.2828 233.587 74.2424L233.803 53.8636Z" fill="#06B25F"/>
</mask>
<g mask="url(#mask1_620_6468)">
<g opacity="0.2">
<path opacity="0.2" d="M236.456 27.1897L152.542 78.824L152.582 75.6701L236.496 24.0359L236.456 27.1897Z" fill="white"/>
<path opacity="0.2" d="M236.241 49.3337L152.328 100.968L152.53 80.7239L236.443 29.0897L236.241 49.3337Z" fill="white"/>
<path opacity="0.2" d="M236.146 58.5799L152.232 110.214L152.286 104.917L236.2 53.2831L236.146 58.5799Z" fill="white"/>
<path opacity="0.2" d="M236.106 63.0681L152.192 114.702L152.219 112.438L236.133 60.8038L236.106 63.0681Z" fill="white"/>
</g>
</g>
<path fill-rule="evenodd" clip-rule="evenodd" d="M334.204 108.574C332.146 109.512 330.395 110.277 329.211 110.745C333.792 112.369 337.555 113.95 336.166 114.464C334.175 115.193 325.998 113.245 324.553 111.788C324.493 111.838 324.433 111.887 324.374 111.935C323.864 112.555 323.43 113.084 323.093 113.496C323.237 113.507 323.355 113.525 323.443 113.552C324.052 113.424 324.212 113.461 323.513 113.849C323.452 113.905 323.359 113.968 323.234 114.038C324.025 114.365 324.862 114.683 325.637 114.978C327.52 115.695 329.04 116.273 328.666 116.5C328.188 116.795 328.253 117.051 328.336 117.382C328.484 117.972 328.691 118.798 326 120.5C321.809 123.157 322.301 127.965 322.301 127.965C322.301 127.965 315.583 165.692 312.31 180.694C309.038 195.696 296.487 211.249 285.568 211.941C285.568 211.941 275.75 208.117 275.199 187.931C274.648 167.722 281.474 161.318 281.474 161.318L285.773 162.754C285.773 162.754 305.419 151.1 311.759 122.748C311.759 122.748 315.871 123.567 315.666 120.5C315.55 118.765 315.581 118.585 315.802 117.302C315.971 116.316 316.253 114.678 316.666 111.181C316.753 110.444 316.823 109.836 316.878 109.34C316.776 109.368 316.706 109.425 316.678 109.511C316.654 109.659 316.647 109.701 316.666 109.56C316.668 109.543 316.672 109.527 316.678 109.511C316.686 109.459 316.696 109.395 316.708 109.32C316.867 108.305 317.307 105.501 316.878 109.34C317.352 109.21 318.535 109.695 319.714 110.712C319.621 109.648 319.522 108.555 319.422 107.475C317.839 106.955 316.775 106.589 316.666 106.482C316.528 106.344 317.65 106.244 319.3 106.18C318.863 101.534 318.445 97.4636 318.445 97.4636C318.445 97.4636 318.686 97.0995 319.091 96.4977L318.682 98.8572L328.489 104.997C328.104 105.391 327.731 105.768 327.37 106.129C328.056 106.144 328.66 106.166 329.132 106.193C329.277 106.02 329.422 105.847 329.568 105.672L331.105 106.634C331.048 106.678 330.992 106.722 330.935 106.765C331.064 106.771 331.199 106.776 331.34 106.781L334.204 108.574ZM326.865 109.932C328.116 108.944 329.506 107.866 330.935 106.765C329.407 106.701 328.737 106.607 329.666 106.482C330.622 106.354 330.236 106.258 329.132 106.193C328.094 107.437 327.101 108.633 326.21 109.71C326.429 109.784 326.647 109.857 326.865 109.932ZM326.251 110.419C326.451 110.259 326.656 110.097 326.865 109.932C327.293 110.077 327.72 110.223 328.142 110.37C327.464 110.381 326.834 110.397 326.251 110.419ZM325.602 110.446C325.799 110.208 326.002 109.962 326.21 109.71C325.565 109.493 324.922 109.278 324.292 109.07C323.605 109.694 322.979 110.238 322.409 110.711C323.238 110.597 324.291 110.507 325.602 110.446ZM325.391 110.701C325.461 110.617 325.531 110.532 325.602 110.446C325.812 110.436 326.028 110.427 326.251 110.419C326.185 110.471 326.119 110.524 326.054 110.576C326.613 110.491 327.324 110.428 328.205 110.392C328.543 110.509 328.879 110.627 329.211 110.745C328.122 111.174 327.512 111.352 327.583 111.181C327.772 110.722 326.42 111.102 324.606 111.744C325.053 111.379 325.538 110.987 326.054 110.576C325.803 110.613 325.583 110.655 325.391 110.701ZM324.522 111.756C324.793 111.427 325.084 111.074 325.391 110.701C324.317 110.958 324.133 111.335 324.522 111.756ZM324.522 111.756C324.515 111.765 324.508 111.773 324.501 111.782C324.512 111.778 324.524 111.774 324.535 111.77C324.531 111.765 324.527 111.76 324.522 111.756ZM321.553 112.878C321.556 112.877 321.56 112.876 321.563 112.874C322.563 112.496 323.587 112.108 324.501 111.782C324.458 111.834 324.416 111.885 324.374 111.935C323.646 112.536 323.033 113.062 322.575 113.484C322.403 113.486 322.214 113.494 322.013 113.506C322.131 113.561 322.252 113.616 322.375 113.671C322.306 113.737 322.242 113.8 322.182 113.86C322.318 113.824 322.449 113.791 322.575 113.759C322.649 113.791 322.723 113.823 322.798 113.855C322.847 113.796 322.9 113.732 322.955 113.664C323.138 113.619 323.302 113.581 323.443 113.552C323.632 113.609 323.674 113.705 323.513 113.849C323.421 113.9 323.315 113.957 323.192 114.021C323.206 114.027 323.22 114.032 323.234 114.038C323.023 114.157 322.717 114.298 322.301 114.464C322.239 114.286 322.172 114.112 322.1 113.943C322.126 113.916 322.153 113.888 322.182 113.86C322.147 113.869 322.111 113.878 322.076 113.887C322.02 113.76 321.962 113.635 321.902 113.513C321.939 113.51 321.976 113.508 322.013 113.506C321.962 113.482 321.912 113.459 321.863 113.435C321.765 113.243 321.661 113.058 321.553 112.878ZM320.88 111.919C321.338 111.577 321.846 111.178 322.409 110.711C321.375 110.853 320.687 111.033 320.278 111.241C320.483 111.451 320.685 111.677 320.88 111.919ZM320.176 112.427C320.397 112.274 320.631 112.105 320.88 111.919C321.118 112.216 321.345 112.536 321.553 112.878C321.402 112.935 321.253 112.992 321.104 113.048C320.723 112.837 320.404 112.629 320.176 112.427ZM319.879 112.63C319.904 112.919 319.927 113.203 319.95 113.482C319.572 113.623 319.211 113.756 318.874 113.875C319.225 113.818 319.596 113.763 319.968 113.714C319.987 113.947 320.006 114.177 320.023 114.402C318.259 114.816 316.587 115.087 316.666 114.464C316.603 114.44 316.613 114.407 316.684 114.369C316.736 114.18 316.868 114.135 317.182 114.028C317.624 113.877 318.429 113.603 319.879 112.63ZM316.684 114.369C316.918 114.241 317.807 114.048 318.874 113.875C317.73 114.283 316.876 114.541 316.666 114.464C316.67 114.428 316.676 114.397 316.684 114.369ZM320.166 119.5C320.258 119.685 320.294 119.412 320.286 118.802C320.095 118.998 320.022 119.212 320.166 119.5ZM319.824 111.975C319.816 111.888 319.809 111.8 319.801 111.712C319.782 111.797 319.79 111.885 319.824 111.975ZM322.301 114.464C322.301 114.464 322.478 114.247 322.798 113.855C322.928 113.911 323.059 113.966 323.192 114.021C322.956 114.143 322.661 114.29 322.301 114.464ZM324.292 109.07C323.231 108.719 322.207 108.385 321.272 108.08C320.603 107.862 319.98 107.659 319.422 107.475C319.381 107.041 319.341 106.608 319.3 106.18C321.623 106.091 324.992 106.074 327.37 106.129C326.227 107.269 325.205 108.241 324.292 109.07Z" fill="url(#paint17_linear_620_6468)"/>
<path d="M343.567 103.397C343.567 103.397 340.548 112.181 334.172 116.073C334.172 116.073 339.396 114.608 342.905 106.55L343.567 103.397Z" fill="#E28183"/>
</g>
<path d="M119.448 59.5319H94.7669C93.7952 59.5319 93.001 58.7461 93.001 57.7659C93.001 56.7942 93.7868 56 94.7669 56H119.448C120.42 56 121.214 56.7858 121.214 57.7659C121.214 58.7376 120.42 59.5319 119.448 59.5319Z" fill="#66D6A0"/>
<path d="M119.447 68.3449H94.7659C93.7942 68.3449 93 67.5591 93 66.5789C93 65.6072 93.7858 64.813 94.7659 64.813H119.447C120.419 64.813 121.213 65.5988 121.213 66.5789C121.213 67.5506 120.419 68.3449 119.447 68.3449Z" fill="#66D6A0"/>
<path d="M305.668 268C295.909 268 288 275.909 288 285.668C288 295.427 295.909 303.336 305.668 303.336C315.427 303.336 323.336 295.427 323.336 285.668C323.336 275.909 315.427 268 305.668 268ZM305.668 298.934C298.334 298.934 292.394 292.994 292.394 285.659C292.394 278.325 298.334 272.385 305.668 272.385C313.002 272.385 318.942 278.325 318.942 285.659C318.942 292.994 313.002 298.934 305.668 298.934Z" fill="#66D6A0"/>
<g filter="url(#filter1_d_620_6468)">
<path d="M313.249 137.002C312.888 136.844 312.529 136.684 312.171 136.525C308.478 134.871 305.646 131.375 305.782 127.429C305.979 121.737 306.701 115.718 307.66 110.166C308.458 105.551 310.292 101.112 310.25 96.3512C310.2 90.7918 310.938 85.358 312.212 80.1402C312.749 77.9378 313.296 75.6286 313.997 73.4998C314.351 72.4303 314.637 71.3227 315.024 70.2722C315.252 69.6508 315.686 68.3843 316.556 68.4831C316.621 68.4906 316.692 68.5036 316.743 68.4726C316.79 68.4473 316.81 68.3961 316.83 68.3448C317.241 67.3214 317.631 66.2539 318.215 65.3403C318.704 64.5773 319.707 64.9838 320.481 65.3012C320.921 65.4817 322.963 66.2807 323.324 67.5229C324.299 65.4226 325.054 63.1743 326.087 61.0917C326.089 61.0872 326.091 61.0826 326.094 61.0814C328.275 61.4709 330.42 62.521 332.142 64.1862C330.801 67.7499 329.457 71.3147 328.114 74.875C327.4 76.7667 326.678 78.7799 327.053 80.9185C327.837 77.6588 329.243 74.6427 331.176 72.072C332.803 69.91 334.809 68.0185 336.056 65.5938C336.158 65.6192 336.26 65.6524 336.364 65.6811C336.518 65.7503 336.671 65.824 336.819 65.9034C337.65 66.3464 338.394 66.8854 339.155 67.5014C339.623 67.878 340.075 68.2762 340.514 68.6916C340.913 69.3161 341.255 70.0058 341.557 70.7263C339.202 74.2094 336.911 77.7441 335.143 81.6266C332.925 86.4953 331.545 91.9636 332.109 97.6916C332.224 98.8516 332.59 100.017 333.241 101.043C336.732 106.571 344.274 99.4991 347.086 97.2144C347.216 97.3008 347.342 97.3963 347.467 97.5042C348.846 98.6909 349.631 100.683 350.178 102.38C350.456 103.249 350.682 104.129 350.89 105.008C350.791 105.069 350.689 105.131 350.582 105.198C348.813 106.37 345.578 108.767 343.959 110.136C340.83 112.782 338.803 116.515 335.105 118.532C330.036 121.297 325.392 122.2 324.342 128.883C324.208 129.735 324.075 130.582 323.941 131.435C323.15 136.495 318.134 139.138 313.249 137.002Z" fill="#84B5FF"/>
<path d="M329.701 94.7056C328.907 87.3979 331.275 79.346 335.302 74.0831C336.368 72.6912 337.506 71.359 338.491 69.9029C339.395 68.566 340.26 69.4065 340.061 69.3323C341.786 69.7995 340.921 73.6831 339.547 75.8024C337.573 78.8452 336.222 80.5963 334.647 83.5632C333.546 85.6373 332.72 89.2449 332.036 91.5571C331.351 93.8615 331.708 94.4163 331.887 96.956C332.207 101.492 332.886 100.115 334.511 102.453C334.511 102.453 339.096 101.256 339.612 101.123C341.59 100.603 343.831 96.1599 345.914 97.0189C346.154 97.1187 346.353 97.2525 346.59 97.4199C347.023 98.7769 347.05 98.3701 346.914 98.8166C347.231 98.4952 346.778 99.2631 346.914 98.8166C345.575 100.175 344.027 101.197 342.393 102.176C339.825 103.713 334.802 105.054 331.738 102.355C329.48 100.368 330.002 97.4699 329.701 94.7056Z" fill="#0D6EB7"/>
<path d="M329.916 65.1326C329.868 65.2365 329.817 65.3378 329.769 65.4417C328.398 68.4318 328.281 70.6433 327.363 74.0044C326.908 75.672 326.493 77.3858 326.227 79.1745C326.07 80.2299 325.944 81.2991 325.933 82.4148C325.852 82.8634 325.773 83.3078 325.695 83.7556C325.012 84.4347 324.197 83.5988 323.698 82.526C323.492 82.0796 323.34 81.5971 323.273 81.1625C323.116 80.1176 323.29 79.1736 323.473 78.2697C324.395 73.7368 325.265 68.5273 327.305 64.8897C327.87 63.8807 328.167 63.0455 329.644 64.7217C329.756 64.8468 329.841 64.9844 329.916 65.1326Z" fill="#276ED8"/>
<path d="M317.756 81.6543C317.552 81.6668 317.308 81.5474 317.003 81.2296C316.694 80.9037 316.543 80.4608 316.487 80.0364C316.34 78.9066 316.768 77.8614 317.188 76.8768C318.1 74.7425 318.686 72.4426 319.605 70.3668C319.861 69.79 320.658 68.028 321.445 69.7435C321.833 70.5877 321.358 71.9209 321.107 72.6083C320.543 74.1532 320.007 75.7133 319.504 77.2865C319.25 78.0836 318.967 78.8822 318.745 79.6898C318.591 80.2475 318.394 81.6126 317.756 81.6543Z" fill="#276ED8"/>
<path d="M306.973 111.794C307.384 109.584 307.822 107.493 308.503 105.068C308.537 105.125 308.683 105.328 308.719 105.389C312.892 113.185 320.431 119.307 328.862 121.206C328.91 121.216 328.954 121.232 328.999 121.243C327.834 122.963 326.299 124.297 325.616 126.197C318.174 123.755 311.768 118.231 306.973 111.794Z" fill="#276ED8"/>
<path d="M304.761 128.605C305.16 125.818 305.472 124.043 305.934 121.277C306.001 121.39 306.066 121.507 306.123 121.632C309.432 128.746 316.444 132.864 323.508 131.616C323.726 131.579 323.937 131.564 324.14 131.572C324.162 133.689 323.604 135.892 323.392 137.957C316.377 138.664 309.823 136.458 304.761 128.605Z" fill="#276ED8"/>
<path opacity="0.33" d="M307.77 114.174C307.889 113.557 308.012 112.947 308.139 112.338C308.601 110.927 309.113 109.537 309.679 108.178C311.895 112.123 315.007 115.627 318.679 118.343C318.165 119.568 317.733 120.837 317.321 122.114C317.142 122.48 316.967 122.852 316.798 123.221C313.387 120.67 310.344 117.55 307.77 114.174Z" fill="white"/>
<path opacity="0.33" d="M320.129 124.144C319.844 123.963 319.561 123.782 319.278 123.592C320.11 121.965 320.972 120.335 321.661 118.622C321.826 118.724 321.995 118.821 322.161 118.918C321.47 120.652 320.794 122.392 320.129 124.144Z" fill="white"/>
<path opacity="0.33" d="M317.14 134.79C316.761 135.944 316.4 137.122 316.155 138.341C315.808 138.205 315.465 138.063 315.121 137.902C315.809 135.957 316.427 133.978 317.059 132.006C317.355 132.134 317.653 132.249 317.956 132.353C317.684 133.167 317.41 133.977 317.14 134.79Z" fill="white"/>
<path opacity="0.33" d="M314.57 132.126C313.937 133.955 313.317 135.789 312.655 137.605C310.431 136.144 308.357 134.094 306.489 131.324C306.897 128.655 307.216 126.955 307.688 124.306C307.755 124.415 307.821 124.529 307.879 124.649C309.429 127.823 311.78 130.388 314.57 132.126Z" fill="white"/>
<path d="M307.828 132.061C307.476 130.09 307.347 127.815 307.515 125.429C307.877 120.296 308.158 115.432 310.11 114.031C310.702 113.607 312.646 114.172 313.277 114.298C315.988 114.838 317.803 120.697 317.332 127.383C317.043 131.483 316.068 134.802 314.782 136.906C314.578 137.241 314.091 137.748 313.634 137.723C313.367 137.709 311.534 137.389 311.186 136.942C310.041 135.466 308.926 133.561 307.828 132.061Z" fill="#194484"/>
<path d="M307.127 131.388C306.256 130.145 305.814 128.709 305.908 127.291C305.947 126.736 305.998 126.168 306.067 125.594C306.921 118.535 308.765 112.755 311.686 114.016C315.173 114.323 317.05 120.121 316.193 127.182C315.622 131.905 314.937 135.258 313.158 137.234C312.99 137.418 312.616 137.688 311.663 137.103C310.091 135.003 308.628 133.535 307.127 131.388Z" fill="#06B25F"/>
<path opacity="0.33" d="M328.102 101.109C328.152 105.436 324.981 108.568 321.018 108.106C317.054 107.644 313.8 103.762 313.749 99.4353C313.698 95.1091 316.87 91.9767 320.833 92.439C324.797 92.9013 328.051 96.7832 328.102 101.109Z" fill="white"/>
<path d="M321.006 105.546C323.346 105.852 325.203 103.741 325.157 100.832C325.111 97.9232 323.178 95.3165 320.84 95.0141C318.5 94.7085 316.643 96.8189 316.689 99.728C316.737 102.633 318.67 105.24 321.006 105.546Z" fill="#276ED8"/>
<path opacity="0.33" d="M320.969 103.123C322.231 103.289 323.238 102.147 323.211 100.577C323.187 99.005 322.142 97.5973 320.879 97.4315C319.617 97.2658 318.61 98.4077 318.637 99.9782C318.662 101.553 319.707 102.957 320.969 103.123Z" fill="white"/>
<path opacity="0.33" d="M329.869 77.0197C330.71 77.1359 331.395 76.2393 331.392 75.0141C331.391 73.7923 330.708 72.7056 329.864 72.5905C329.024 72.4743 328.338 73.3709 328.341 74.596C328.343 75.8178 329.025 76.9045 329.869 77.0197Z" fill="white"/>
<path opacity="0.33" d="M341.422 104.453C342.13 105.416 343.423 105.652 344.311 104.981C345.198 104.31 345.345 102.983 344.636 102.019C343.927 101.056 342.634 100.82 341.747 101.491C340.859 102.162 340.713 103.49 341.422 104.453Z" fill="white"/>
<path opacity="0.33" d="M324.616 71.2291C324.611 72.3761 323.988 73.2294 323.224 73.1349C322.46 73.0405 321.845 72.0341 321.849 70.8871C321.854 69.74 322.477 68.8868 323.241 68.9812C324.005 69.0757 324.62 70.0821 324.616 71.2291Z" fill="white"/>
<path opacity="0.33" d="M316.413 75.8039C317.193 75.9409 317.792 75.0881 317.745 73.8947C317.699 72.7013 317.03 71.6221 316.25 71.4851C315.471 71.3481 314.871 72.2009 314.918 73.3943C314.962 74.5887 315.632 75.6636 316.413 75.8039Z" fill="white"/>
<path d="M307.28 131.385C307.276 131.033 307.284 130.668 307.312 130.298C307.505 127.505 308.492 125.414 309.515 125.622C310.54 125.835 311.212 128.267 311.019 131.059C310.893 132.89 310.421 134.409 309.825 135.187C308.967 133.926 308.123 132.655 307.28 131.385Z" fill="#194484"/>
<path d="M309.874 121.423L310.051 119.945L308.313 118.397L307.887 118.431L309.448 121.457L309.874 121.423Z" fill="#194484"/>
<path d="M309.478 121.55L309.661 120.057L307.926 118.496L307.743 119.989L309.478 121.55Z" fill="#194484"/>
<path d="M312.316 123.273L312.494 121.796L310.756 120.247L310.33 120.282L311.888 123.305L312.316 123.273Z" fill="#194484"/>
<path d="M311.915 123.402L312.1 121.912L310.366 120.35L310.183 121.843L311.915 123.402Z" fill="#194484"/>
<path d="M314.783 125.15L314.96 123.672L313.223 122.124L312.796 122.159L314.357 125.184L314.783 125.15Z" fill="#194484"/>
<path d="M314.386 125.282L314.569 123.789L312.835 122.227L312.651 123.72L314.386 125.282Z" fill="#194484"/>
<path d="M56.8487 91.0687C56.8406 91.0595 56.8313 91.0536 56.8267 91.0452C56.7932 91.0117 56.8799 91.0981 56.8487 91.0687Z" fill="#194484"/>
<path opacity="0.43" d="M62.2141 98.939C60.3625 97.2222 57.6206 94.1779 55.9763 92.2222C56.0583 92.0573 56.1403 91.8924 56.2294 91.7283C57.9917 93.7873 61.2997 97.4702 63.0155 99.3686C62.8977 99.3082 62.3346 99.0492 62.2141 98.939Z" fill="#276ED8"/>
</g>
<defs>
<filter id="filter0_d_620_6468" x="5" y="265" width="87.6797" height="86.5474" filterUnits="userSpaceOnUse" color-interpolation-filters="sRGB">
<feFlood flood-opacity="0" result="BackgroundImageFix"/>
<feColorMatrix in="SourceAlpha" type="matrix" values="0 0 0 0 0 0 0 0 0 0 0 0 0 0 0 0 0 0 127 0" result="hardAlpha"/>
<feMorphology radius="3" operator="dilate" in="SourceAlpha" result="effect1_dropShadow_620_6468"/>
<feOffset dx="5" dy="5"/>
<feGaussianBlur stdDeviation="4"/>
<feColorMatrix type="matrix" values="0 0 0 0 0 0 0 0 0 0 0 0 0 0 0 0 0 0 0.2 0"/>
<feBlend mode="normal" in2="BackgroundImageFix" result="effect1_dropShadow_620_6468"/>
<feBlend mode="normal" in="SourceGraphic" in2="effect1_dropShadow_620_6468" result="shape"/>
</filter>
<filter id="filter1_d_620_6468" x="47.9761" y="57.0814" width="310.914" height="93.2594" filterUnits="userSpaceOnUse" color-interpolation-filters="sRGB">
<feFlood flood-opacity="0" result="BackgroundImageFix"/>
<feColorMatrix in="SourceAlpha" type="matrix" values="0 0 0 0 0 0 0 0 0 0 0 0 0 0 0 0 0 0 127 0" result="hardAlpha"/>
<feOffset dy="4"/>
<feGaussianBlur stdDeviation="4"/>
<feColorMatrix type="matrix" values="0 0 0 0 0.0771528 0 0 0 0 0.152763 0 0 0 0 0.420833 0 0 0 0.25 0"/>
<feBlend mode="normal" in2="BackgroundImageFix" result="effect1_dropShadow_620_6468"/>
<feBlend mode="normal" in="SourceGraphic" in2="effect1_dropShadow_620_6468" result="shape"/>
</filter>
<linearGradient id="paint0_linear_620_6468" x1="143.135" y1="248.768" x2="143.135" y2="130.478" gradientUnits="userSpaceOnUse">
<stop stop-color="#4485E4"/>
<stop offset="1" stop-color="#4384E4"/>
</linearGradient>
<linearGradient id="paint1_linear_620_6468" x1="205.682" y1="412.993" x2="205.682" y2="266.632" gradientUnits="userSpaceOnUse">
<stop stop-color="#1C257B"/>
<stop offset="1" stop-color="#482C83"/>
</linearGradient>
<linearGradient id="paint2_linear_620_6468" x1="120.995" y1="244.604" x2="120.995" y2="225.165" gradientUnits="userSpaceOnUse">
<stop offset="0.016" stop-color="#FFC2A9"/>
<stop offset="1" stop-color="#FF9595"/>
</linearGradient>
<linearGradient id="paint3_linear_620_6468" x1="87.8513" y1="208.277" x2="87.8513" y2="202.089" gradientUnits="userSpaceOnUse">
<stop offset="0.016" stop-color="#FFA58B"/>
<stop offset="1" stop-color="#FF898E"/>
</linearGradient>
<linearGradient id="paint4_linear_620_6468" x1="260.871" y1="213.543" x2="260.871" y2="126.671" gradientUnits="userSpaceOnUse">
<stop stop-color="#3378DD"/>
<stop offset="1" stop-color="#5491EB"/>
</linearGradient>
<linearGradient id="paint5_linear_620_6468" x1="202.646" y1="144.769" x2="202.646" y2="120.487" gradientUnits="userSpaceOnUse">
<stop stop-color="#D1C8F8"/>
<stop offset="1" stop-color="#EEE5F9"/>
</linearGradient>
<linearGradient id="paint6_linear_620_6468" x1="201.513" y1="283.996" x2="201.513" y2="119.995" gradientUnits="userSpaceOnUse">
<stop stop-color="#67A1F8"/>
<stop offset="1" stop-color="#1B67D9"/>
</linearGradient>
<linearGradient id="paint7_linear_620_6468" x1="88.6697" y1="203.478" x2="88.6697" y2="187.303" gradientUnits="userSpaceOnUse">
<stop offset="0.016" stop-color="#FFC2A9"/>
<stop offset="1" stop-color="#FF9595"/>
</linearGradient>
<linearGradient id="paint8_linear_620_6468" x1="80.9072" y1="189.178" x2="80.9072" y2="176.926" gradientUnits="userSpaceOnUse">
<stop offset="0.016" stop-color="#FFC2A9"/>
<stop offset="1" stop-color="#FF9595"/>
</linearGradient>
<linearGradient id="paint9_linear_620_6468" x1="89.3966" y1="210.024" x2="89.3966" y2="204.679" gradientUnits="userSpaceOnUse">
<stop offset="0.016" stop-color="#FFC2A9"/>
<stop offset="1" stop-color="#FF9595"/>
</linearGradient>
<linearGradient id="paint10_linear_620_6468" x1="218.325" y1="112.22" x2="185.779" y2="112.22" gradientUnits="userSpaceOnUse">
<stop stop-color="#CF6074"/>
<stop offset="1" stop-color="#FF817F"/>
</linearGradient>
<linearGradient id="paint11_linear_620_6468" x1="280.309" y1="210.956" x2="280.309" y2="161.313" gradientUnits="userSpaceOnUse">
<stop stop-color="#CF6074"/>
<stop offset="1" stop-color="#FF817F"/>
</linearGradient>
<linearGradient id="paint12_linear_620_6468" x1="228.023" y1="398.864" x2="228.023" y2="387.462" gradientUnits="userSpaceOnUse">
<stop stop-color="#8B8BE0"/>
<stop offset="1" stop-color="#A177B7"/>
</linearGradient>
<linearGradient id="paint13_linear_620_6468" x1="161.823" y1="392.968" x2="161.823" y2="385.105" gradientUnits="userSpaceOnUse">
<stop stop-color="#8B8BE0"/>
<stop offset="1" stop-color="#A177B7"/>
</linearGradient>
<linearGradient id="paint14_linear_620_6468" x1="94.9015" y1="198.217" x2="84.7191" y2="198.217" gradientUnits="userSpaceOnUse">
<stop stop-color="#CF6074"/>
<stop offset="1" stop-color="#FF817F"/>
</linearGradient>
<linearGradient id="paint15_linear_620_6468" x1="225.091" y1="130.358" x2="225.091" y2="130.11" gradientUnits="userSpaceOnUse">
<stop stop-color="#9D68C2"/>
<stop offset="1" stop-color="#CCEDFF"/>
</linearGradient>
<linearGradient id="paint16_linear_620_6468" x1="184.305" y1="141.085" x2="184.305" y2="125.227" gradientUnits="userSpaceOnUse">
<stop stop-color="#3D2CB0"/>
<stop offset="1" stop-color="#0355C7"/>
</linearGradient>
<linearGradient id="paint17_linear_620_6468" x1="321.475" y1="211.93" x2="321.475" y2="87.2128" gradientUnits="userSpaceOnUse">
<stop offset="0.016" stop-color="#FFC2A9"/>
<stop offset="1" stop-color="#FF9595"/>
</linearGradient>
</defs>
</svg>
