<svg width="86" height="86" viewBox="0 0 86 86" fill="none" xmlns="http://www.w3.org/2000/svg">
<g clip-path="url(#clip0_23413_1961)">
<circle cx="43" cy="61" r="18" fill="#DFECFC"/>
<path d="M42.9998 48.4084C36.1498 48.4084 30.5767 53.9816 30.5767 60.8316C30.5767 67.6816 36.1498 73.2547 42.9998 73.2547C49.8498 73.2547 55.4229 67.6816 55.4229 60.8316C55.4229 53.9816 49.8498 48.4084 42.9998 48.4084ZM38.3806 68.6776V52.9856L51.3385 60.8316L38.3806 68.6776Z" fill="#06B25F"/>
<path d="M85.9999 19.0369C85.996 16.1722 84.5361 11.9579 77.6127 8.13072C72.8203 5.48128 66.2118 3.46172 58.5016 2.29053L55.6035 1.84961V32.5256C62.6221 31.7448 69.039 30.3105 74.3268 28.3021C81.2233 25.6821 85.5079 22.2617 85.9999 19.0369Z" fill="#276ED8"/>
<path d="M42.9999 38.2469C30.5302 38.2469 18.7692 36.388 9.88389 33.0129C5.77851 31.4533 2.46113 29.6194 0 27.5854V66.0935C0 71.3215 4.78776 76.0194 13.4814 79.3217C21.4061 82.332 31.8891 83.9894 42.9999 83.9894C54.1108 83.9894 64.5944 82.332 72.5184 79.3217C81.2121 76.0194 85.9998 71.3215 85.9998 66.0935V27.5854C83.5387 29.6194 80.2213 31.4533 76.1159 33.0129C67.2307 36.388 55.4696 38.2469 42.9999 38.2469ZM42.9999 78.2942C33.3713 78.2942 25.5378 70.46 25.5378 60.8314C25.5378 51.2021 33.3713 43.3686 42.9999 43.3686C52.6292 43.3686 60.4627 51.2021 60.4627 60.8314C60.4627 70.46 52.6292 78.2942 42.9999 78.2942Z" fill="#276ED8"/>
<path d="M11.6732 28.3021C16.9583 30.3092 23.3713 31.7435 30.3866 32.5243V1.84766L27.4885 2.28792C19.779 3.45845 13.1724 5.47867 8.38138 8.12943C1.46317 11.9573 0.00393677 16.1716 0 19.0369C0.492752 22.2618 4.77661 25.6822 11.6732 28.3021Z" fill="#276ED8"/>
</g>
<defs>
<clipPath id="clip0_23413_1961">
<rect width="86" height="86" fill="white"/>
</clipPath>
</defs>
</svg>
