<svg width="112" height="106" viewBox="0 0 112 106" fill="none" xmlns="http://www.w3.org/2000/svg">
<path d="M96.9933 42.6243C95.4104 41.7399 93.4108 42.2912 92.52 43.8611C91.626 45.4377 92.1803 47.4403 93.7569 48.3344C101.149 52.5226 105.438 57.675 105.438 62.8436C105.438 71.8255 93.0905 80.3136 75.0371 83.9698C73.2587 84.3319 72.1115 86.0622 72.4705 87.8375C72.8356 89.6302 74.5895 90.7642 76.3382 90.4041C97.868 86.0431 112 75.2253 112 62.8436C112 55.2077 106.529 48.0268 96.9933 42.6243Z" fill="#06B25F"/>
<path d="M39.5938 91.0876V102.219C39.5938 103.43 40.2603 104.542 41.3273 105.112C42.3795 105.677 43.6778 105.627 44.6952 104.949L64.3827 91.8239C65.296 91.2151 65.844 90.1896 65.844 89.0939C65.844 87.9982 65.296 86.9727 64.3827 86.3639L44.6952 73.2389C43.6859 72.5723 42.3881 72.5019 41.3273 73.0755C40.2603 73.6455 39.5938 74.7574 39.5938 75.9687V84.3728C20.4089 81.0861 6.5625 72.3567 6.5625 62.8437C6.5625 57.675 10.8509 52.5224 18.2431 48.3344C19.8196 47.4404 20.3739 45.4377 19.4799 43.8612C18.5892 42.291 16.5928 41.74 15.0067 42.6244C5.47072 48.0268 0 55.2078 0 62.8437C0 76.211 15.9324 87.3581 39.5938 91.0876Z" fill="#06B25F"/>
<path d="M82.2496 13.2373L57.4672 0.846008C56.5443 0.384664 55.4549 0.384664 54.532 0.846008L29.7485 13.238L55.9996 26.3623L82.2496 13.2373Z" fill="#276ED8"/>
<path d="M85.5312 49.7188V18.9348L59.2812 32.0598C59.2812 32.7336 59.2812 65.5461 59.2812 64.8723L83.7176 52.6542C84.8295 52.0964 85.5312 50.9622 85.5312 49.7188Z" fill="#276ED8"/>
<path d="M26.4688 49.7187C26.4688 50.9621 27.1705 52.0963 28.2824 52.6539L52.7188 64.8722C52.7188 62.5688 52.7188 31.3855 52.7188 32.0597L26.4688 18.9358V49.7187Z" fill="#276ED8"/>
</svg>
