<svg width="107" height="108" viewBox="0 0 107 108" fill="none" xmlns="http://www.w3.org/2000/svg">
<path d="M77.2334 37.6177C67.7084 37.6177 63.9481 44.185 61.952 48.9423C60.4157 45.83 57.2094 43.6855 53.5118 43.6855C49.8143 43.6855 46.6079 45.83 45.0717 48.9423C43.0755 44.185 39.3174 37.6177 29.7903 37.6177C7.82242 37.6177 0.0239258 81.9756 0.0239258 90.9446C0.0239258 102.817 6.68536 107.029 12.3895 107.029C22.4245 107.029 33.2161 89.8765 38.4228 81.3089H68.6009C73.8034 89.8703 84.6347 107.029 94.6342 107.029C100.338 107.029 107 102.817 107 90.9446C107 87.1739 101.122 37.6177 77.2334 37.6177Z" fill="#276ED8"/>
<path d="M31.5411 64.5411H34.6764C36.4071 64.5411 37.8117 63.1365 37.8117 61.4058C37.8117 59.6752 36.4071 58.2706 34.6764 58.2706H31.5411V55.1353C31.5411 53.4046 30.1365 52 28.4058 52C26.6752 52 25.2706 53.4046 25.2706 55.1353V58.2706H22.1353C20.4046 58.2706 19 59.6752 19 61.4058C19 63.1365 20.4046 64.5411 22.1353 64.5411H25.2706V67.6764C25.2706 69.4071 26.6752 70.8117 28.4058 70.8117C30.1365 70.8117 31.5411 69.4071 31.5411 67.6764V64.5411Z" fill="#66D6A0"/>
<path d="M47.2175 70.8117H59.7587C61.4893 70.8117 62.894 69.4071 62.894 67.6764C62.894 65.9457 61.4893 64.5411 59.7587 64.5411H47.2175C45.4869 64.5411 44.0823 65.9457 44.0823 67.6764C44.0823 69.4071 45.4869 70.8117 47.2175 70.8117Z" fill="#66D6A0"/>
<path d="M81.7056 55.1353C81.7056 53.4046 80.301 52 78.5704 52C76.8397 52 75.4351 53.4046 75.4351 55.1353C75.4351 56.866 76.8397 58.2706 78.5704 58.2706C80.301 58.2706 81.7056 56.866 81.7056 55.1353Z" fill="#66D6A0"/>
<path d="M69.1645 61.4058C69.1645 63.1365 70.5691 64.5411 72.2998 64.5411C74.0305 64.5411 75.4351 63.1365 75.4351 61.4058C75.4351 59.6752 74.0305 58.2706 72.2998 58.2706C70.5691 58.2706 69.1645 59.6752 69.1645 61.4058Z" fill="#66D6A0"/>
<path d="M75.4351 67.6764C75.4351 69.4071 76.8397 70.8117 78.5704 70.8117C80.301 70.8117 81.7056 69.4071 81.7056 67.6764C81.7056 65.9457 80.301 64.5411 78.5704 64.5411C76.8397 64.5411 75.4351 65.9457 75.4351 67.6764Z" fill="#66D6A0"/>
<path d="M81.7056 61.4058C81.7056 63.1365 83.1103 64.5411 84.8409 64.5411C86.5716 64.5411 87.9762 63.1365 87.9762 61.4058C87.9762 59.6752 86.5716 58.2706 84.8409 58.2706C83.1103 58.2706 81.7056 59.6752 81.7056 61.4058Z" fill="#66D6A0"/>
<path d="M56.9026 37.7807C55.8052 37.5404 54.6703 37.415 53.5123 37.415C52.5195 37.415 51.5454 37.5069 50.5986 37.6825C50.3164 33.6526 49.4302 29.4367 47.2752 27.2817C41.7335 21.7398 27.9756 25.6177 20.0003 25.4967C6.60053 25.2942 -0.176272 17.7298 0.00348437 8.16967C0.0394356 6.25569 0.149589 4.26165 0.766403 2.23082C1.26596 0.571209 3.01544 -0.365195 4.67296 0.13436C6.3263 0.633915 7.2648 2.37504 6.7736 4.02838C3.7932 14.2099 10.3825 21.8387 27.8699 18.6534C35.1013 17.2852 46.3072 17.4451 51.7085 22.8463C54.7601 25.898 56.5075 30.9228 56.9026 37.7807Z" fill="#276ED8"/>
</svg>
