<svg width="115" height="115" viewBox="0 0 115 115" fill="none" xmlns="http://www.w3.org/2000/svg">
<path d="M84.8769 0H32.1253C28.1963 0 25 3.24398 25 7.23V12H92V7.23C92.0002 3.24398 88.8041 0 84.8769 0ZM68.3537 9.22992H48.649C47.5614 9.22992 46.6786 8.33391 46.6786 7.23C46.6786 6.12609 47.5614 5.23008 48.649 5.23008H68.3537C69.4413 5.23008 70.3241 6.12609 70.3241 7.23C70.3241 8.33391 69.4413 9.22992 68.3537 9.22992Z" fill="#276ED8"/>
<path d="M59.8798 101.583H55.1208C54.3196 101.583 53.666 102.235 53.666 103.038V103.964C53.666 104.765 54.3176 105.417 55.1208 105.417H59.8798C60.681 105.417 61.3326 104.765 61.3326 103.964V103.038C61.3346 102.235 60.681 101.583 59.8798 101.583Z" fill="#276ED8"/>
<path d="M92 15H25V92H92V15Z" fill="#276ED8"/>
<path d="M73.0748 56.5956L78 55.6692V51.2536L73.0748 50.4044C72.6966 48.5903 71.9786 46.8919 70.9905 45.3866L73.8159 41.2411L70.6894 38.1146L66.6057 41.0018C65.1003 40.0137 63.4097 39.3034 61.5879 38.9252L60.6615 34H56.2458L55.3967 38.9252C53.5825 39.3034 51.8842 40.0214 50.3789 41.0095L46.2411 38.1841L43.1146 41.3106L46.0018 45.3943C45.0137 46.8996 44.3034 48.598 43.9252 50.4121L39 51.3385V55.7542L43.9252 56.6033C44.3034 58.4252 45.0214 60.1158 46.0095 61.6211L43.1841 65.7589L46.3106 68.8854L50.402 65.9982C51.9074 66.9863 53.6057 67.7043 55.4198 68.0748L56.3462 73H60.7619L61.611 68.0748C63.4329 67.6966 65.1235 66.9786 66.6289 65.9905L70.7666 68.8159L73.8931 65.6894L71.0059 61.6057C71.9863 60.1081 72.6966 58.4175 73.0748 56.5956ZM58.5 62.6479C53.4513 62.6479 49.3599 58.5487 49.3599 53.5077C49.3599 48.4667 53.4513 44.3676 58.5 44.3676C63.5487 44.3676 67.6401 48.459 67.6401 53.5077C67.6401 58.5564 63.5487 62.6479 58.5 62.6479Z" fill="#66D6A0"/>
<path d="M25 96V108.131C25 111.918 28.1962 115 32.1235 115H84.8765C88.8038 115 92 111.918 92 108.131V96H25Z" fill="#276ED8"/>
</svg>
