<svg width="94" height="94" viewBox="0 0 94 94" fill="none" xmlns="http://www.w3.org/2000/svg">
<g clip-path="url(#clip0_23413_1971)">
<path d="M52.0072 45.0598C53.0902 44.506 54.2966 44.2132 55.5482 44.2132C57.6223 44.2132 59.5724 45.0184 61.0423 46.4807L64.2068 43.3166C72.0378 46.0616 81.095 44.3043 87.3553 38.0443C92.6227 32.7768 94.7001 25.5295 93.5912 18.6981C93.469 17.9458 92.9363 17.3253 92.2113 17.0912C91.4862 16.8568 90.6903 17.0473 90.1516 17.5863L85.453 22.2849C81.6267 26.1112 75.4225 26.1112 71.5962 22.2849C67.7695 18.4586 67.7695 12.2544 71.5962 8.42808L76.2948 3.72951C76.8338 3.19045 77.0259 2.39452 76.7912 1.66915C76.5568 0.943457 75.9353 0.412093 75.1826 0.289915C68.3516 -0.81899 61.1039 1.25836 55.8368 6.52582C49.4835 12.8791 47.7737 22.1121 50.6957 30.0216L43.8325 36.8847L52.0072 45.0598Z" fill="#276ED8"/>
<path d="M39.501 57.4964L31.3606 49.356L2.89558 77.8206C-0.805687 81.5219 -0.805687 87.5227 2.89558 91.224C6.59684 94.9253 12.5977 94.9253 16.299 91.224L40.8375 66.6857C38.3626 64.1976 37.9165 60.4412 39.501 57.4964Z" fill="#276ED8"/>
<path d="M57.6564 49.8964C57.0744 49.3144 56.3112 49.0232 55.5483 49.0232C54.7854 49.0232 54.0222 49.3144 53.4402 49.8964L51.7409 51.5957L21.4715 21.3263L22.8863 19.9115C24.1754 18.6226 24.0154 16.4847 22.5461 15.4027L10.1961 6.30733C9.00928 5.43348 7.36228 5.55758 6.32008 6.59979L1.07635 11.8438C0.0341473 12.886 -0.089955 14.5334 0.783892 15.7199L9.87896 28.0698C10.9609 29.5388 13.0976 29.7005 14.3877 28.4101L15.8025 26.9949L46.072 57.2643L44.2531 59.0832C43.0887 60.2476 43.0887 62.1351 44.2531 63.2995L72.1774 91.2238C75.8786 94.9251 81.8795 94.9251 85.5807 91.2238C89.282 87.5225 89.282 81.5217 85.5807 77.8204L57.6564 49.8964Z" fill="#06B25F"/>
</g>
<defs>
<clipPath id="clip0_23413_1971">
<rect width="94" height="94" fill="white"/>
</clipPath>
</defs>
</svg>
