<svg width="112" height="112" viewBox="0 0 112 112" fill="none" xmlns="http://www.w3.org/2000/svg">
<g clip-path="url(#clip0_23413_1953)">
<path d="M41.9998 0C29.1338 0 18.6665 10.4673 18.6665 23.3333C18.6665 36.1993 29.1338 46.6667 41.9998 46.6667C54.8658 46.6667 65.3332 36.1993 65.3332 23.3333C65.3332 10.4673 54.8658 0 41.9998 0Z" fill="#276ED8"/>
<path d="M77.3825 111.907C75.4971 111.473 74.3258 109.597 74.7551 107.711L81.7551 77.378C82.1938 75.4974 84.0745 74.3074 85.9505 74.7554C87.8358 75.1894 89.0071 77.0654 88.5778 78.9507L81.5778 109.284C81.1345 111.216 79.1978 112.35 77.3825 111.907Z" fill="#06B25F"/>
<path d="M96.8335 107.333C95.8769 107.333 94.9249 106.941 94.2295 106.176C92.9369 104.734 93.0535 102.527 94.4909 101.229L103.269 93.3334L94.4909 85.4374C93.0535 84.1447 92.9369 81.9327 94.2295 80.4907C95.5269 79.0534 97.7389 78.9414 99.1762 80.2294L110.843 90.7294C111.58 91.3967 112 92.3394 112 93.3334C112 94.3274 111.58 95.27 110.843 95.9374L99.1762 106.437C98.5042 107.039 97.6689 107.333 96.8335 107.333Z" fill="#06B25F"/>
<path d="M66.5002 107.333C65.6648 107.333 64.8295 107.039 64.1575 106.437L52.4908 95.9372C51.7535 95.2699 51.3335 94.3272 51.3335 93.3332C51.3335 92.3392 51.7535 91.3966 52.4908 90.7292L64.1575 80.2292C65.5948 78.9412 67.8068 79.0579 69.1042 80.4906C70.3968 81.9326 70.2802 84.1399 68.8428 85.4372L60.0648 93.3332L68.8428 101.229C70.2802 102.522 70.3968 104.734 69.1042 106.176C68.4088 106.941 67.4568 107.333 66.5002 107.333Z" fill="#06B25F"/>
<path d="M43.1667 93.3333C43.1667 89.712 44.7113 86.2353 47.3993 83.8087L59.08 73.2947C61.4507 71.1667 64.4933 70.0047 67.662 70.0047C70.2893 70.0047 72.828 70.8353 74.9607 72.3053C76.5473 69.202 79.31 66.906 82.6093 65.9027C78.6287 59.9387 71.8527 56 64.1667 56H22.1667C9.94467 56 0 65.9447 0 78.1667V96.8333C0 98.7653 1.568 100.333 3.5 100.333H45.304C43.9507 98.2613 43.1667 95.844 43.1667 93.3333Z" fill="#276ED8"/>
</g>
<defs>
<clipPath id="clip0_23413_1953">
<rect width="112" height="112" fill="white"/>
</clipPath>
</defs>
</svg>
