<svg width="113" height="67" viewBox="0 0 113 67" fill="none" xmlns="http://www.w3.org/2000/svg">
<path d="M85.9299 12.7285H70.4794V28.0925H41.9472V12.7285H26.4897C20.5647 12.7285 15.6175 16.987 14.542 22.6032V56.3536C15.6175 61.9698 20.5647 66.2274 26.4897 66.2274H34.5135L37.7033 48.0442H74.7233L77.913 66.2274H85.9299C91.8549 66.2274 96.8021 61.9698 97.8777 56.3536V22.6032C96.803 16.987 91.8549 12.7285 85.9299 12.7285Z" fill="#276ED8"/>
<path d="M48.5322 0H63.8962V21.5076H48.5322V0Z" fill="#06B25F"/>
<path d="M0 23.1169H7.95858V55.839H0V23.1169Z" fill="#276ED8"/>
<path d="M104.464 23.1169H112.421V55.839H104.464V23.1169Z" fill="#276ED8"/>
<path d="M43.2355 54.6274L41.2002 66.227H71.2308L69.1955 54.6274H43.2355Z" fill="#06B25F"/>
</svg>
