<svg width="24" height="24" viewBox="0 0 24 24" fill="none" xmlns="http://www.w3.org/2000/svg">
<path d="M23.2858 14.533C25.0221 6.73175 18.1869 -0.355273 10.1599 1.0052C5.80223 -1.69876 0 1.3568 0 6.54097C0 7.74661 0.332669 8.87534 0.911094 9.84825C-0.702302 17.6675 6.18885 24.6526 14.2089 23.1992C19.8782 26.1969 26.143 20.2186 23.2858 14.533ZM15.6554 19.2377C13.5495 20.1037 10.084 20.1087 7.98706 19.0109C4.99703 17.4167 4.46556 13.8278 7.04499 13.8278C8.98906 13.8278 8.37367 16.0942 10.3367 17.0182C11.2378 17.4347 13.1749 17.4777 14.3008 16.7185C15.4127 15.9744 15.3108 14.8037 14.7064 14.2443C13.105 12.766 8.52253 13.3533 6.42761 10.7652C5.51751 9.64248 5.34568 7.66171 6.46457 6.22532C8.41463 3.71615 14.1369 3.56332 16.5975 5.45819C18.8692 7.21621 18.2558 9.54958 16.4227 9.54958C14.2179 9.54958 15.3767 6.66483 11.8173 6.66483C9.23682 6.66483 8.22182 8.49977 10.039 9.39276C12.5026 10.6164 18.7803 10.2078 18.7803 14.9895C18.7753 16.9792 17.5555 18.4626 15.6554 19.2377Z" fill="#0D6EB7"/>
</svg>
