<svg width="320" height="400" viewBox="0 0 320 400" fill="none" xmlns="http://www.w3.org/2000/svg">
<g opacity="0.2">
<path d="M108.107 130.253L93.2958 121.361C93.1463 121.271 92.9652 121.257 92.8106 121.324C92.656 121.391 92.5528 121.529 92.5341 121.691L91.4052 130.988L77.4544 122.612C77.3049 122.522 77.1238 122.508 76.9692 122.575C76.8167 122.643 76.7114 122.781 76.6927 122.942L74.0108 145.053C73.9883 145.231 73.9959 145.263 74.1497 145.374C74.3035 145.486 74.4293 145.361 74.5954 145.287L90.3075 138.466L98.3705 134.966L107.927 130.816C108.096 130.743 108.279 130.734 108.284 130.554C108.292 130.375 108.27 130.351 108.107 130.253Z" fill="#84B5FF"/>
<path d="M95.4053 109.683C96.7031 112.217 95.6729 115.177 93.1022 116.292C90.5315 117.407 87.3941 116.257 86.0962 113.723C84.7984 111.189 85.8286 108.23 88.3993 107.115C90.9702 105.998 94.1075 107.149 95.4053 109.683Z" fill="#84B5FF"/>
<path d="M172.17 70.0788L180 71.5515V78.5713L172.17 79.9212C171.569 82.8052 170.427 85.5051 168.857 87.8983L173.348 94.4885L168.378 99.4588L161.886 94.869C159.493 96.4398 156.805 97.5689 153.909 98.1702L152.436 106H145.416L144.066 98.1702C141.182 97.5689 138.482 96.4276 136.089 94.8567L129.511 99.3484L124.541 94.3781L129.131 87.886C127.56 85.4929 126.431 82.793 125.83 79.9089L118 78.4363V71.4165L125.83 70.0665C126.431 67.1702 127.572 64.4826 129.143 62.0895L124.651 55.5115L129.622 50.5412L136.126 55.131C138.519 53.5602 141.219 52.4188 144.103 51.8298L145.576 44H152.596L153.946 51.8298C156.842 52.4311 159.53 53.5724 161.923 55.1433L168.501 50.6516L173.471 55.6219L168.881 62.114C170.44 64.4949 171.569 67.1825 172.17 70.0788ZM149 60.4572C140.974 60.4572 134.469 66.9739 134.469 74.9877C134.469 83.0016 140.974 89.5182 149 89.5182C157.026 89.5182 163.53 83.0139 163.53 74.9877C163.53 66.9616 157.026 60.4572 149 60.4572Z" fill="#84B5FF"/>
<path d="M218.145 202.754L198.869 192C197.623 191.256 197 190.106 197 188.551C197 186.928 197.656 185.778 198.967 185.101L218.145 174.246V178.203C218.145 178.473 218.047 178.845 217.85 179.319C217.653 179.725 217.358 180.029 216.965 180.232L203.294 187.942C202.77 188.348 202.77 188.754 203.294 189.159L218.145 197.377V202.754Z" fill="#84B5FF"/>
<path d="M234.564 171H238.4L228.86 204.681C228.598 205.56 228.008 206 227.09 206H224.631L234.564 171Z" fill="#84B5FF"/>
<path d="M244.591 174.246L263.768 185.101C265.145 185.845 265.834 186.995 265.834 188.551C265.834 190.106 265.145 191.222 263.768 191.899L244.591 202.754V198.797C244.591 198.594 244.656 198.256 244.787 197.783C244.984 197.309 245.279 196.971 245.672 196.768L259.441 189.159C259.966 188.754 259.966 188.348 259.441 187.942L244.591 179.623V174.246Z" fill="#84B5FF"/>
</g>
<path d="M181.876 63.0766L118.911 89.2032C116.859 90.0549 115.786 92.0847 116.518 93.7344L137.692 141.407C138.425 143.057 140.659 143.642 142.678 142.715L204.617 114.279C206.46 113.433 207.385 111.475 206.687 109.904L186.527 64.5151C185.83 62.9446 183.749 62.2997 181.876 63.0766Z" fill="#276ED8"/>
<g opacity="0.5" filter="url(#filter0_d_52_124)">
<path d="M185.44 64.9693L205.614 110.392C206.09 111.463 205.463 112.794 204.207 113.371L175.755 126.409L142.226 141.775C140.853 142.405 139.306 142.018 138.807 140.895L117.652 93.2624C117.153 92.1407 117.91 90.7467 119.307 90.1666L182.265 63.9925C183.324 63.5527 184.482 63.7775 185.117 64.4783C185.246 64.6231 185.359 64.7868 185.44 64.9693Z" fill="white"/>
</g>
<path d="M182.194 74.9263L182.844 76.3874L186.44 74.8599L185.792 73.4026L182.194 74.9263Z" fill="white"/>
<path d="M131.528 99.4399L124.697 102.362L124 100.793L130.835 97.8784L131.528 99.4399Z" fill="white"/>
<path d="M168.741 83.5215L135.912 97.5654L135.22 96.0077L168.066 82L168.741 83.5215Z" fill="white"/>
<path d="M144.596 99.9473L137.875 102.837L137.184 101.28L143.908 98.3972L144.596 99.9473Z" fill="white"/>
<path d="M181.216 84.2023L148.909 98.093L148.223 96.5474L180.546 82.6914L181.216 84.2023Z" fill="white"/>
<path d="M138.084 112.444L131.269 115.405L130.572 113.835L137.39 110.883L138.084 112.444Z" fill="white"/>
<path d="M175.205 96.3201L142.456 110.546L141.764 108.988L174.529 94.7979L175.205 96.3201Z" fill="white"/>
<path d="M151.124 111.891L144.42 114.818L143.729 113.261L150.436 110.341L151.124 111.891Z" fill="white"/>
<path d="M187.653 95.9423L155.425 110.013L154.739 108.467L186.983 94.4314L187.653 95.9423Z" fill="white"/>
<path d="M194.197 97.1311L167.892 108.791L167.211 107.257L193.528 95.6262L194.197 97.1311Z" fill="white"/>
<path d="M144.565 128.791L137.795 131.852L137.098 130.282L143.871 127.229L144.565 128.791Z" fill="white"/>
<path d="M181.441 112.117L148.908 126.827L148.216 125.27L180.765 110.594L181.441 112.117Z" fill="white"/>
<path d="M157.531 128.073L150.871 131.099L150.18 129.542L156.843 126.523L157.531 128.073Z" fill="white"/>
<path d="M193.82 111.583L161.804 126.131L161.118 124.586L193.149 110.073L193.82 111.583Z" fill="white"/>
<path d="M185.439 64.9692L205.614 110.392C206.089 111.463 205.462 112.794 204.207 113.371L175.756 126.409L154.326 78.1585L185.127 64.4729C185.258 64.6177 185.358 64.7867 185.439 64.9692Z" fill="white"/>
<path d="M181.876 63.076L118.911 89.2026C116.859 90.0542 115.786 92.0841 116.518 93.7337L117.47 95.8768L187.434 66.5557L186.527 64.5152C185.83 62.944 183.749 62.2983 181.876 63.076Z" fill="#276ED8"/>
<path d="M122.747 90.7992C122.986 91.3371 122.697 91.9729 122.1 92.2203C121.504 92.4678 120.825 92.2324 120.586 91.6938C120.346 91.1553 120.638 90.5186 121.235 90.272C121.832 90.0253 122.509 90.2622 122.747 90.7992Z" fill="white"/>
<path d="M126.525 89.2363C126.763 89.7719 126.476 90.4055 125.883 90.6514C125.289 90.8974 124.615 90.662 124.377 90.1249C124.138 89.5878 124.426 88.9542 125.021 88.709C125.613 88.4646 126.286 88.7007 126.525 89.2363Z" fill="white"/>
<path d="M130.279 87.6832C130.516 88.2173 130.231 88.8487 129.642 89.0931C129.052 89.3375 128.381 89.1021 128.143 88.5673C127.906 88.0325 128.191 87.4003 128.781 87.1567C129.372 86.913 130.042 87.1484 130.279 87.6832Z" fill="white"/>
<path opacity="0.35" d="M161.741 90.6907L188.145 79.465C188.235 79.4265 188.306 79.3541 188.341 79.2628C188.377 79.1715 188.374 79.0697 188.335 78.9799L184.635 70.65C184.554 70.4667 184.342 70.3822 184.157 70.4584L157.658 81.4707C157.57 81.5077 157.499 81.5793 157.464 81.6698C157.429 81.7604 157.431 81.8614 157.471 81.9512L161.268 90.5006C161.349 90.6832 161.56 90.7677 161.741 90.6907Z" fill="#84B5FF"/>
<path opacity="0.35" d="M189.961 83.1649L163.321 94.5988C163.233 94.6365 163.164 94.7082 163.13 94.7972C163.096 94.887 163.099 94.9865 163.138 95.0748L174.999 121.781C175.039 121.871 175.114 121.942 175.205 121.978C175.297 122.013 175.399 122.011 175.488 121.97L201.843 109.895C202.023 109.813 202.103 109.602 202.022 109.42L190.445 83.3549C190.363 83.1709 190.147 83.0857 189.961 83.1649Z" fill="#84B5FF"/>
<path d="M108.307 141L99 162L113 160.988L108.307 141Z" fill="#195BBE"/>
<path d="M218.885 139.919V210.442L158.222 213.997L158.091 213.999L154.152 173.89L158.082 132.208L158.223 132.216L218.885 139.919Z" fill="#276ED8"/>
<path d="M157.994 132.208V213.999L108.338 208.404V140.882L118.451 139.108L136.277 135.997L157.994 132.208Z" fill="#3E85EE"/>
<path d="M157.961 132.209L185.122 157.551L237.998 160.522L218.62 139.919L157.961 132.209Z" fill="#195BBE"/>
<path d="M234.057 126.763C233.528 127.012 232.967 127.094 232.433 127L181.037 117.945C180.326 117.82 179.732 117.42 179.366 116.817C178.98 116.181 178.89 115.369 179.12 114.59L187.821 85.159L243.986 96.6519L235.793 124.723C235.531 125.61 234.882 126.373 234.057 126.763Z" fill="#2DA531"/>
<path d="M188.658 86.5409L180.299 114.82C180.021 115.759 180.505 116.645 181.378 116.799L232.766 125.853C233.553 125.992 234.404 125.384 234.667 124.494L242.585 97.7057L188.658 86.5409Z" fill="white"/>
<path d="M244.103 93.0926L191.039 81.9346C190.143 81.7456 189.19 82.3516 188.915 83.2882L188.061 86.1789L244.282 97.7463L245.091 95.0076C245.352 94.1192 244.91 93.2625 244.103 93.0926Z" fill="#06B25F"/>
<path opacity="0.2" d="M194.156 114.096L190.269 113.439L196.475 92.9479L200.339 93.6841L194.156 114.096Z" fill="#A7CFFF"/>
<path d="M194.116 113.873L190.238 113.217L192.824 104.36L196.697 105.036L194.116 113.873Z" fill="#84B5FF"/>
<path opacity="0.2" d="M204.651 116.29L200.845 115.648L206.985 95.3743L210.767 96.0948L204.651 116.29Z" fill="#A7CFFF"/>
<path d="M204.532 116.29L200.73 115.648L204.574 102.583L208.357 103.287L204.532 116.29Z" fill="#84B5FF"/>
<path opacity="0.2" d="M214.92 118.438L211.194 117.809L217.27 97.7499L220.972 98.4555L214.92 118.438Z" fill="#A7CFFF"/>
<path d="M214.966 118.108L211.242 117.479L216.432 100.34L220.136 101.035L214.966 118.108Z" fill="#84B5FF"/>
<path opacity="0.2" d="M224.978 120.542L221.33 119.925L227.342 100.076L230.968 100.767L224.978 120.542Z" fill="#A7CFFF"/>
<path d="M224.74 120.201L221.106 119.585L223.186 112.706L226.813 113.348L224.74 120.201Z" fill="#84B5FF"/>
<defs>
<filter id="filter0_d_52_124" x="105.498" y="55.7668" width="112.275" height="102.31" filterUnits="userSpaceOnUse" color-interpolation-filters="sRGB">
<feFlood flood-opacity="0" result="BackgroundImageFix"/>
<feColorMatrix in="SourceAlpha" type="matrix" values="0 0 0 0 0 0 0 0 0 0 0 0 0 0 0 0 0 0 127 0" result="hardAlpha"/>
<feOffset dy="4"/>
<feGaussianBlur stdDeviation="6"/>
<feColorMatrix type="matrix" values="0 0 0 0 0.160784 0 0 0 0 0.0941176 0 0 0 0 0.435294 0 0 0 0.15 0"/>
<feBlend mode="normal" in2="BackgroundImageFix" result="effect1_dropShadow_52_124"/>
<feBlend mode="normal" in="SourceGraphic" in2="effect1_dropShadow_52_124" result="shape"/>
</filter>
</defs>
</svg>
