<svg width="322" height="383" viewBox="0 0 322 383" fill="none" xmlns="http://www.w3.org/2000/svg">
<mask id="mask0_52_51" style="mask-type:alpha" maskUnits="userSpaceOnUse" x="0" y="0" width="322" height="383">
<rect width="322" height="383" rx="16" fill="#3D27C7"/>
</mask>
<g mask="url(#mask0_52_51)">
<path d="M253.067 131.909C255.533 134.745 260.076 134.99 263.228 132.455L272.266 125.169C275.418 122.634 275.97 118.269 273.504 115.433C271.039 112.597 266.495 112.353 263.344 114.887L253.813 125.165C250.67 127.705 250.601 129.073 253.067 131.909Z" fill="#DEC29B"/>
<path d="M261.175 147.426C264.087 149.618 268.475 149.017 270.961 146.093L278.121 137.692C280.615 134.767 280.271 130.622 277.359 128.43C274.447 126.238 270.059 126.839 267.574 129.763L260.547 141.028C258.044 143.955 258.255 145.236 261.175 147.426Z" fill="#DEC29B"/>
<path d="M267.084 157.834C269.775 159.526 273.542 158.726 275.507 156.051L281.131 148.349C283.094 145.666 282.501 142.119 279.809 140.427C277.118 138.735 273.35 139.535 271.386 142.21L266.081 152.371C264.117 155.046 264.392 156.142 267.084 157.834Z" fill="#DEC29B"/>
<path d="M302.676 124.728C302.676 124.728 277.135 129.442 274.772 129.977C272.4 130.513 258.956 117.137 265.021 112.091C275.441 103.39 302.676 124.728 302.676 124.728Z" fill="#D3AF85"/>
<path d="M303.451 125.617C303.451 125.617 277.669 130.411 275.284 130.955C272.89 131.5 302.898 161.814 305.552 148.99C308.214 136.164 303.451 125.617 303.451 125.617Z" fill="#DEC29B"/>
<path d="M247.473 120.061C249.833 122.973 254.357 123.353 257.58 120.907L266.832 113.885C270.055 111.439 270.75 107.093 268.39 104.182C266.031 101.27 261.507 100.89 258.284 103.336L248.45 113.338C245.225 115.775 245.113 117.15 247.473 120.061Z" fill="#EAD7B7"/>
<path d="M255.37 109.463C255.556 113.176 258.908 115.843 262.851 115.427L284.851 112.744C288.795 112.329 291.844 108.977 291.657 105.265C291.471 101.552 288.12 98.8845 284.176 99.3001C284.176 99.3001 273.007 101.149 262.176 101.983C258.226 102.286 255.184 105.75 255.37 109.463Z" fill="#EAD7B7"/>
<path d="M276.966 104.015C274.011 108.044 274.02 111.451 277.438 114.732C281.262 118.408 284.888 121.861 289.809 122.476C292.506 131.649 301.879 133.823 301.879 133.823C305.928 136.382 312.987 132.471 315.942 128.442C318.897 124.413 318.016 119.066 313.966 116.508C313.966 116.508 302.258 110.325 289.648 101.354C285.765 98.582 279.929 99.9853 276.966 104.015Z" fill="#EAD7B7"/>
<path d="M258.429 105.022L258.503 104.984C260.948 103.732 263.695 103.441 266.236 104.151C268.777 104.861 270.813 106.493 271.959 108.732L274.692 113.972L265.285 115.146L257.466 121.083C256.929 121.495 256.346 121.823 255.745 122.08L253.667 118.087C251.315 113.477 253.444 107.617 258.429 105.022Z" fill="#DEC29B"/>
<path d="M310.271 117.91C304.04 118.586 300.369 128.795 296.111 131.358C282.435 139.59 289.561 166.36 289.561 166.36C287.799 175.825 293.316 187.663 303.435 192.236C315.398 197.643 326.153 190.062 325.435 176.59L322.435 126.084C322.165 120.645 319.061 118.932 315.043 117.109L310.271 117.91Z" fill="#EAD7B7"/>
<g filter="url(#filter0_d_52_51)">
<path d="M169.844 173.456C169.387 173.538 168.966 173.298 168.825 172.888C168.827 172.832 168.82 172.777 168.812 172.714L164.495 140.034C164.438 138.691 165.038 138.584 165.561 138.481C166.256 138.356 167.581 138.351 169.939 139.023L173.014 139.882L172.968 139.528C174.058 139.593 175.17 139.524 176.275 139.326C183.798 137.961 189.13 131.066 188.193 123.939C187.25 116.831 180.401 112.134 172.914 113.473C171.781 113.676 170.694 114.009 169.66 114.454L169.61 114.074L166.898 116.005C165.383 117.092 164.056 117.755 163.074 117.931C162.341 118.062 162.056 117.891 161.887 117.717C161.675 117.514 161.513 117.163 161.417 116.726L157.132 84.2905C157.125 84.2361 157.117 84.1727 157.1 84.1201C157.131 83.679 157.472 83.3028 157.928 83.212L192.258 77.0048C194.029 76.5304 195.258 75.5598 195.789 74.2504C196.432 72.6709 196.043 70.7291 194.646 68.4577L194.713 68.4458L193.789 67.1837C192.831 65.8906 192.231 64.4222 192.022 62.8188C191.283 57.2785 195.447 51.8988 201.285 50.8451C207.143 49.797 212.482 53.4577 213.213 58.9997C213.42 60.594 213.23 62.2038 212.655 63.7805L212.093 65.3084L212.16 65.2965C211.336 68.1042 211.439 70.0971 212.461 71.3603C213.041 72.0722 214.208 72.8829 216.487 72.642L250.98 66.4058C251.504 66.3121 251.985 66.643 252.059 67.1395L256.369 99.7652C256.956 102.33 258.819 103.544 261.363 103.089C262.477 102.89 263.744 102.366 265.144 101.514L265.152 101.577L266.527 100.608C267.937 99.6049 269.507 98.9348 271.193 98.6331C277.051 97.585 282.391 101.246 283.121 106.788C283.48 109.476 282.705 112.21 280.961 114.469C279.209 116.738 276.688 118.264 273.859 118.771C272.164 119.074 270.506 118.991 268.907 118.535L267.348 118.091L267.356 118.154C265.682 117.796 264.299 117.728 263.137 117.936C260.65 118.381 259.291 120.144 259.418 122.773L263.748 155.552C263.812 156.05 263.437 156.535 262.913 156.628L228.449 162.86C227.044 163 226.97 162.429 226.896 161.932C226.81 161.271 226.889 160.006 227.737 157.685L228.827 154.672L228.446 154.74C228.581 153.678 228.579 152.612 228.441 151.553C227.498 144.445 220.649 139.747 213.162 141.087C205.638 142.442 200.307 149.347 201.244 156.474C201.382 157.534 201.66 158.55 202.058 159.517L201.668 159.587L203.502 162.077C204.532 163.477 205.15 164.702 205.271 165.635C205.36 166.323 205.165 166.618 204.973 166.791C204.746 166.998 204.371 167.186 203.9 167.307L169.844 173.456Z" fill="#06B25F"/>
</g>
<path d="M202.35 109.576L209.136 93.5371L213.081 98.2701L209.067 108.294L214.759 115.093L211.988 121.108L202.35 109.576Z" fill="white"/>
<path d="M213.979 99.4702L211.561 105.418L212.812 106.55L219.175 105.336L213.979 99.4702Z" fill="white"/>
<path d="M214.072 112.824L210.127 108.091L226.388 104.988L237.276 117.653L230.913 118.867L223.969 110.935L214.072 112.824Z" fill="white"/>
<path d="M223.052 112.139L217.043 113.286L212.885 122.308L202.281 124.332L199.815 129.946L217.184 126.974L223.052 112.139Z" fill="white"/>
<path d="M225.555 114.404L223.08 114.877L220.662 120.824L229.499 119.137L225.555 114.404Z" fill="white"/>
<path d="M210.029 120.11L206.132 115.711L202.443 122.93L209.16 121.648L210.029 120.11Z" fill="white"/>
<path d="M271.638 158.265L263.343 134.217L254.923 118.172C252.808 114.064 254.727 108.892 259.215 106.617C263.703 104.342 269.061 105.823 271.176 109.931L278.249 123.403L294.787 146.519C297.626 150.989 294.562 157.672 287.733 161.132C280.913 164.598 273.642 163.17 271.638 158.265Z" fill="#EAD7B7"/>
<path d="M273.633 172.434C277.782 195.036 302.848 200.037 316.029 193.18C329.21 186.323 325.061 171.027 324.361 151.11C323.974 140.077 306.542 159.668 288.718 138.976C279.292 139.732 273.04 143.372 267.623 146.193C267.632 146.191 270.198 153.759 273.633 172.434Z" fill="#EAD7B7"/>
<path d="M325.898 183.962C323.471 199.72 326.793 204.258 328.97 208.418L299.27 223.879C299.27 223.879 300.476 207.982 284.528 190.32C309.493 181.021 325.898 183.962 325.898 183.962Z" fill="#EAD7B7"/>
<path d="M367.839 326.713L327.206 196.914L295.308 214.327L325.763 364.749L367.839 326.713Z" fill="#276ED8"/>
<path d="M59.1425 138.467L55.6665 128.512C54.6476 126.446 52.7019 124.952 50.8013 124.578C46.0708 122.86 39.5699 120.434 35.2834 118.836C34.242 117.932 32.738 117.513 31.339 117.356C30.999 117.232 30.8141 117.155 30.8141 117.155C29.5438 116.806 28.312 117.026 27.3217 117.658C18.0962 121.577 7.71068 127.111 7.71068 127.111C5.21379 128.685 6.43386 134.111 8.52437 136.704C10.6149 139.296 17.6388 148.345 20.1272 146.768C20.1272 146.768 22.8768 137.869 26.6548 134.716C28.5847 134.511 32.132 131.987 35.1174 129.53C38.6515 130.835 43.3575 132.304 48.0876 132.943L50.9921 138.813C52.3727 141.602 55.4271 143.353 57.8135 142.718C60.1998 142.083 60.523 141.256 59.1425 138.467Z" fill="#DEC29B"/>
<path d="M59.9657 141.01C59.9928 140.406 59.7113 139.597 59.1527 138.471L55.6766 128.516C54.6577 126.449 52.7119 124.956 50.8113 124.582C46.0806 122.863 39.5794 120.437 35.2928 118.84C34.2513 117.935 32.7473 117.516 31.3483 117.36C31.0083 117.235 30.8233 117.159 30.8233 117.159C29.553 116.809 28.3211 117.029 27.3308 117.662C18.1049 121.58 7.71901 127.114 7.71901 127.114C5.22202 128.688 6.44212 134.115 8.5327 136.707C10.6233 139.3 17.6474 148.349 20.1359 146.772C20.1359 146.772 21.1844 143.398 22.8675 140.065C23.7957 137.833 24.9598 135.663 26.3289 134.306C28.4109 133.925 32.0514 130.829 35.0855 127.859C39.0564 129.041 44.3155 130.307 49.5389 130.654L53.2348 136.981C54.7419 139.583 57.5773 141.213 59.9657 141.01Z" fill="#D3AF85"/>
<path d="M67.5067 134.374L63.0382 121.582C61.724 118.925 59.2291 117.014 56.7805 116.523C50.7069 114.312 42.3528 111.206 36.8464 109.144C35.5111 107.982 33.5822 107.441 31.7735 107.242C31.34 107.083 31.1041 106.988 31.1041 106.988C29.4769 106.541 27.8825 106.819 26.6172 107.633C14.7611 112.661 1.41816 119.774 1.41816 119.774C-1.78339 121.794 -0.22355 128.765 2.45788 132.097C5.14991 135.424 14.1645 147.054 17.3661 145.034C17.3661 145.034 20.9026 133.601 25.7547 129.547C28.2339 129.287 32.7881 126.036 36.6213 122.887C41.1564 124.567 47.2095 126.447 53.2835 127.273L57.0164 134.816C58.7865 138.394 62.713 140.648 65.7776 139.83C68.8421 139.013 69.2768 137.952 67.5067 134.374Z" fill="#DEC29B"/>
<path d="M68.5519 137.637C68.5889 136.862 68.2301 135.826 67.5088 134.375L63.0403 121.582C61.726 118.926 59.231 117.015 56.7824 116.523C50.7086 114.312 42.3543 111.206 36.8477 109.145C35.5123 107.983 33.5833 107.441 31.7747 107.242C31.3411 107.083 31.1052 106.988 31.1052 106.988C29.4779 106.541 27.8835 106.819 26.6182 107.633C14.7617 112.661 1.41837 119.774 1.41837 119.774C-1.78328 121.795 -0.22342 128.765 2.45808 132.097C5.15018 135.425 14.165 147.055 17.3667 145.034C17.3667 145.034 18.7102 140.698 20.873 136.412C22.0617 133.546 23.5562 130.758 25.3161 129.005C27.9982 128.52 32.6703 124.541 36.5666 120.726C41.6613 122.246 48.4306 123.874 55.1248 124.322L59.8767 132.446C61.8411 135.797 65.4827 137.897 68.5519 137.637Z" fill="#D3AF85"/>
<path d="M73.226 127.92L67.1941 113.974C65.5186 111.115 62.6239 109.162 59.9062 108.802C53.0698 106.803 43.6583 103.966 37.4564 102.085C35.8922 100.887 33.7355 100.434 31.74 100.349C31.2544 100.203 30.9775 100.118 30.9775 100.118C29.1573 99.7395 27.449 100.175 26.1366 101.179C13.6338 107.705 -0.305158 116.66 -0.305158 116.66C-3.62127 119.162 -1.29154 126.831 1.94156 130.337C5.18318 133.846 16.079 146.143 19.4037 143.643C19.4037 143.643 22.2391 130.606 27.1701 125.707C29.8588 125.225 34.5427 121.249 38.4488 117.435C43.556 118.964 50.3419 120.603 57.0526 121.06L61.8155 129.199C64.0759 133.062 68.5606 135.276 71.8464 134.133C75.1194 133.003 75.4864 131.783 73.226 127.92Z" fill="#DEC29B"/>
<path d="M27.3476 138.205C27.3476 138.205 23.0442 149.321 35.5705 158.862C23.1934 152.783 16.8552 136.844 19.2533 128.579C21.6601 120.318 27.3476 138.205 27.3476 138.205Z" fill="#D3AF85"/>
<path d="M79.3763 91.7669C78.7521 95.2305 74.461 97.0935 69.7999 95.9241L56.4023 92.564C51.7328 91.3914 48.4584 87.6343 49.0826 84.1707C49.7067 80.7071 53.9979 78.8441 58.6589 80.0135L74.4145 85.9123C79.0755 87.0817 80.0005 88.3033 79.3763 91.7669Z" fill="#EAD7B7"/>
<path d="M61.3936 85.3188C63.5481 89.4804 62.0464 93.2657 58.7881 94.9877C46.8632 101.279 31.5763 102.771 31.5763 102.771C27.9879 103.944 23.3299 101.523 21.1776 97.3541C19.0232 93.1925 20.1926 88.866 23.7831 87.6853C23.7831 87.6853 43.3027 83.574 54.4592 81.0617C58.2052 80.2064 59.2414 81.1497 61.3936 85.3188Z" fill="#EAD7B7"/>
<path d="M27.4114 87.8598C30.9973 90.2785 36.0269 90.2292 34.6006 94.5001C33.0027 99.285 27.4125 113.512 23.9527 116.003C21.0563 122.995 21.9571 137.669 21.9571 137.669C19.8096 141.551 7.61577 132.902 4.02987 130.483C0.44398 128.064 -3.42785 120.966 -1.2825 117.091C-1.2825 117.091 8.31448 102.122 17.2083 90.4825C17.9724 89.4799 23.8255 85.4411 27.4114 87.8598Z" fill="#EAD7B7"/>
<path d="M11.9351 118.982C17.9964 121.42 23.5341 122.18 23.238 126.61C22.2665 141.458 30.203 153.842 36.7365 155.769C46.8212 158.749 11.6002 187.395 0.351699 188.606C-12.9503 190.034 -21.8208 180.011 -17.7668 167.951L-5.45289 119.743C-3.83712 114.871 2.88431 117.344 7.36143 116.855L11.9351 118.982Z" fill="#EAD7B7"/>
<path d="M17.792 196.047C28.1478 194.706 36.9157 190.825 44.4672 187.542C47.3574 186.284 57.8248 180.741 65.7122 177.808L78.384 166.185C80.1111 164.213 87.1277 161.854 85.437 157.346C83.7462 152.838 76.2952 150.65 71.8048 151.594C64.3854 153.156 59.3965 160.51 55.4689 161.509C32.2535 156.712 27.3034 156.153 27.3034 156.153C21.9946 156.756 -18.9682 170.585 -16.3975 177.44C-13.8349 184.289 12.5054 196.727 17.792 196.047Z" fill="#EAD7B7"/>
<path d="M34.4712 179.833C24.8542 199.11 -1.2748 196.308 -12.714 186.224C-24.1533 176.139 -16.3146 163.494 -10.7791 145.637C-7.71574 135.748 1.10753 158.717 23.8547 145.169C29.5053 155.051 31.5845 157.223 45.0359 160.493C47.2032 159.607 42.4172 163.892 34.4712 179.833Z" fill="#EAD7B7"/>
<path d="M-16.5356 160.364C-19.7647 181.48 -24.6735 186.536 -28.3009 191.383L2.23883 226.841C2.23883 226.841 7.93579 211.059 26.5797 184.378C5.20491 165.901 -16.5356 160.364 -16.5356 160.364Z" fill="#EAD7B7"/>
<path d="M-5.32775 237.998L13.3033 210.172L-23.6827 188.801L-52.5414 220.651L-5.32775 237.998Z" fill="#84B5FF"/>
<g filter="url(#filter1_d_52_51)">
<path d="M43.3315 129.797C42.8839 129.636 42.5901 129.205 42.6285 128.77C42.6534 128.722 42.6717 128.661 42.6873 128.61L52.062 97.5064C52.5633 96.2917 53.1414 96.4996 53.6636 96.6874C54.3444 96.9322 55.5475 97.6038 57.4103 99.4108L59.8468 101.749L59.9509 101.404C60.9224 102.021 61.9583 102.527 63.0494 102.92C66.6115 104.201 70.3377 104.117 73.5584 102.696C76.779 101.274 79.0912 98.6851 80.0831 95.4013C82.1294 88.627 77.8184 80.9613 70.4797 78.322C69.3793 77.9262 68.2705 77.6612 67.1532 77.5269L67.26 77.1736L64.0217 77.49C62.2006 77.6663 60.7287 77.5765 59.7683 77.2311C59.0596 76.9762 58.8609 76.6755 58.7783 76.4355C58.6689 76.1477 58.6637 75.7541 58.754 75.3184L68.0703 44.4427C68.0859 44.391 68.1041 44.3307 68.1104 44.2756C68.3167 43.9007 68.7782 43.7418 69.2258 43.9028L102.847 55.9755C104.645 56.4594 106.152 56.2275 107.162 55.3485C108.384 54.2785 108.828 52.3646 108.485 49.6328L108.55 49.6562L108.224 48.0674C107.882 46.4253 107.94 44.8313 108.401 43.3057C109.174 40.746 110.973 38.727 113.49 37.6161C116.007 36.5052 118.908 36.4497 121.677 37.4457C127.403 39.5049 130.757 45.4791 129.161 50.7624C128.703 52.2793 127.878 53.607 126.708 54.7057L125.571 55.768L125.636 55.7915C123.751 57.8559 123.03 59.6606 123.445 61.3002C123.682 62.2264 124.412 63.54 126.566 64.4866L160.353 76.6283C160.865 76.8127 161.168 77.3515 161.025 77.8255L151.663 108.886C151.153 111.464 152.35 113.49 154.849 114.389C155.94 114.781 157.301 114.965 158.904 114.929L158.885 114.99L160.525 114.834C162.218 114.669 163.91 114.886 165.551 115.476C171.277 117.535 174.631 123.509 173.035 128.793C172.262 131.353 170.463 133.371 167.946 134.482C165.441 135.588 162.528 135.649 159.759 134.653C158.108 134.059 156.63 133.136 155.367 131.908L154.137 130.71L154.119 130.771C152.746 129.599 151.513 128.821 150.375 128.412C147.942 127.536 146.004 128.407 145.054 130.798L135.639 162.001C135.496 162.475 134.959 162.712 134.446 162.527L100.694 150.408C99.3666 149.806 99.528 149.272 99.6738 148.789C99.8639 148.16 100.448 147.08 102.167 145.463L104.385 143.356L104.012 143.221C104.565 142.35 104.995 141.406 105.3 140.397C107.346 133.623 103.035 125.957 95.6963 123.318C92.1342 122.037 88.408 122.121 85.1873 123.542C81.9666 124.964 79.6545 127.553 78.6626 130.837C78.358 131.845 78.1891 132.883 78.1586 133.942L77.7763 133.805L78.4302 136.945C78.7963 138.71 78.8503 140.106 78.5796 141.002C78.3817 141.657 78.085 141.818 77.8408 141.873C77.5489 141.95 77.1353 141.916 76.668 141.786L43.3315 129.797Z" fill="#276ED8"/>
</g>
</g>
<defs>
<filter id="filter0_d_52_51" x="145.1" y="42.666" width="150.107" height="146.806" filterUnits="userSpaceOnUse" color-interpolation-filters="sRGB">
<feFlood flood-opacity="0" result="BackgroundImageFix"/>
<feColorMatrix in="SourceAlpha" type="matrix" values="0 0 0 0 0 0 0 0 0 0 0 0 0 0 0 0 0 0 127 0" result="hardAlpha"/>
<feOffset dy="4"/>
<feGaussianBlur stdDeviation="6"/>
<feColorMatrix type="matrix" values="0 0 0 0 0.160784 0 0 0 0 0.0941176 0 0 0 0 0.435294 0 0 0 0.25 0"/>
<feBlend mode="normal" in2="BackgroundImageFix" result="effect1_dropShadow_52_51"/>
<feBlend mode="normal" in="SourceGraphic" in2="effect1_dropShadow_52_51" result="shape"/>
</filter>
<filter id="filter1_d_52_51" x="30.6251" y="28.7385" width="154.807" height="149.852" filterUnits="userSpaceOnUse" color-interpolation-filters="sRGB">
<feFlood flood-opacity="0" result="BackgroundImageFix"/>
<feColorMatrix in="SourceAlpha" type="matrix" values="0 0 0 0 0 0 0 0 0 0 0 0 0 0 0 0 0 0 127 0" result="hardAlpha"/>
<feOffset dy="4"/>
<feGaussianBlur stdDeviation="6"/>
<feColorMatrix type="matrix" values="0 0 0 0 0.160784 0 0 0 0 0.0941176 0 0 0 0 0.435294 0 0 0 0.25 0"/>
<feBlend mode="normal" in2="BackgroundImageFix" result="effect1_dropShadow_52_51"/>
<feBlend mode="normal" in="SourceGraphic" in2="effect1_dropShadow_52_51" result="shape"/>
</filter>
</defs>
</svg>
