<svg width="320" height="382" viewBox="0 0 320 382" fill="none" xmlns="http://www.w3.org/2000/svg">
<mask id="mask0_52_16" style="mask-type:alpha" maskUnits="userSpaceOnUse" x="0" y="0" width="320" height="382">
<rect width="320" height="382" rx="16" fill="#3D27C7"/>
</mask>
<g mask="url(#mask0_52_16)">
<path opacity="0.1" d="M189.973 189.801L178.157 185.172L177.756 185.015L165.94 180.386C165.94 180.386 165.284 221.449 83.4471 357.058L102.069 365.041L109.551 368.343L128.408 376.845C160.459 221.729 189.973 189.801 189.973 189.801Z" fill="#84B5FF"/>
<path opacity="0.5" d="M183.103 180.745L178.385 179.825L178.758 178.873L175.189 176.007C175.189 176.007 104.107 377.293 75.2266 401.06L73.4316 407.958L85.1637 414.455L87.7343 414.523L99.5535 419.46L102.63 419.607C97.5808 382.548 183.103 180.745 183.103 180.745Z" fill="white"/>
<g filter="url(#filter0_d_52_16)">
<path d="M201.975 176.997C197.508 188.946 169.372 206.418 169.372 206.418C169.372 206.418 160.143 173.314 164.61 161.365C169.077 149.415 178.669 149.633 188.987 153.95C199.304 158.266 206.442 165.047 201.975 176.997Z" fill="#06B25F"/>
<path opacity="0.5" d="M197.349 172.105C194.255 180.364 173.698 195.293 173.698 195.293C173.698 195.293 168.374 169.564 171.469 161.303C174.564 153.044 181.208 153.194 188.354 156.177C195.5 159.16 200.444 163.846 197.349 172.105Z" fill="#66D6A0"/>
<path d="M193.753 165.737C191.947 170.534 178.486 183.089 178.486 183.089C178.486 183.089 176.841 164.263 178.648 159.466C180.454 154.669 184.332 154.756 188.503 156.487C192.674 158.219 195.56 160.94 193.753 165.737Z" fill="#66D6A0"/>
<path d="M188.832 119.02C188.832 119.02 157.984 120.187 148.411 146.592C148.411 146.592 149.01 150.181 152.917 147.803C156.821 145.423 162.607 136.812 179.454 143.836L188.832 119.02Z" fill="#A6CAFF"/>
<path d="M213.504 130.982C213.504 130.982 235.515 154.189 225.941 180.594C225.941 180.594 223.238 182.806 221.856 178.223C220.476 173.64 221.634 163.099 204.787 156.075L213.504 130.982Z" fill="#84B5FF"/>
<path d="M241.763 109.073C245.827 98.1452 247.473 86.9786 247.575 76.6721L222.261 66.4332L218.866 75.5617C228.232 79.35 233.431 88.8546 230.479 96.7904C227.528 104.726 217.543 108.092 208.176 104.303L191 150.488L207.567 157.189C220.314 149.275 233.352 131.687 241.763 109.073Z" fill="#276ED8"/>
<path d="M198.3 84.0713C201.251 76.1355 211.236 72.7721 220.6 76.5594L223.995 67.431L198.683 57.193C192.092 64.8753 186.09 74.2801 182.026 85.2075C173.616 107.822 171.873 129.979 176.169 144.786L192.734 151.486L209.911 105.299C200.548 101.512 195.349 92.0071 198.3 84.0713Z" fill="#3E85EE"/>
<path d="M175.66 147.734C175.28 147.573 174.877 147.722 174.76 148.064L173.763 150.966C173.645 151.31 173.857 151.717 174.237 151.878L188.73 158.018L190.155 153.871L175.661 147.732L175.66 147.734Z" fill="#3E85EE"/>
<path d="M204.053 159.708L189.572 153.574L188.148 157.721L202.629 163.855C203.009 164.016 203.411 163.868 203.53 163.525L204.526 160.623C204.646 160.28 204.433 159.87 204.053 159.708Z" fill="#276ED8"/>
<path d="M225.061 94.9347C227.023 89.3726 223.593 82.6873 217.4 80L211.193 101.501C217.383 104.187 223.1 100.495 225.061 94.9347Z" fill="#84B5FF"/>
<path d="M203.556 86.0842C201.592 91.6544 205.025 98.3494 211.225 101.041L218.336 80.8721C212.138 78.1819 205.519 80.5141 203.556 86.0842Z" fill="#A6CAFF"/>
<path d="M225.052 94.0756C223.027 99.6443 216.626 100.054 211.22 100.526L209.536 105.158C216.275 106.596 227.785 106.584 230.761 96.247C233.715 88.1216 228.753 79.4743 219.703 75.7114L216.715 79.4433C222.913 82.0226 227.077 88.5069 225.052 94.0756Z" fill="#06B25F"/>
<path d="M198.309 83.8562C195.326 92.0617 200.268 101.47 210.249 105.635L211.949 100.958C205.736 98.3739 201.431 91.6308 203.475 86.0071C205.519 80.3835 212.211 77.9199 218.423 80.5037L220.123 75.8266C211.06 72.0525 201.292 75.6486 198.309 83.8562Z" fill="#66D6A0"/>
<path d="M237.082 32L225 65.2804L248.987 75.3462C249.32 52.6575 242.323 34.199 237.082 32Z" fill="#84B5FF"/>
<path d="M237.067 32.0649C231.829 29.8668 215.049 38.3475 201 55.2803L224.985 65.3452L237.067 32.0649Z" fill="#A6CAFF"/>
</g>
<path opacity="0.07" d="M138.752 348.539C132.383 338.841 123.649 330.379 112.883 324.189C78.856 304.627 37.4197 315.091 20.3286 347.561C20.2541 347.702 20.1796 347.844 20.1051 347.985C24.2458 356.894 27.2009 366.204 28.9512 375.605L207.641 478.334L279.303 387.271C271.851 379.001 248.108 354.896 237.95 349.056C204.975 330.091 167.054 331.147 138.752 348.539Z" fill="#276ED8"/>
<path d="M90.5723 401.063C88.3783 385.054 83.7464 370.818 76.4907 359.364C55.5951 326.344 18.4541 325.022 -18.7876 350.66C-19.3589 334.602 -22.9121 320.349 -29.7324 309.558C-33.234 304.017 -37.3928 299.747 -42.0413 296.67C-42.6377 314.515 -47.7069 334.862 -57.316 354.867L40.1449 411.02L91.3626 440.529C92.4865 426.631 92.2444 413.328 90.5723 401.063Z" fill="white" fill-opacity="0.3"/>
<path opacity="0.07" d="M67.4946 377.153C67.2801 363.653 62.3467 352.385 52.9853 347.048L52.8672 346.981C53.3278 346.174 53.7805 345.363 54.2204 344.538C70.9301 313.18 68.2234 278.497 48.1744 267.067C41.8273 263.449 34.5064 262.601 26.9311 264.118C31.5693 234.223 23.6984 207.643 4.26723 196.565C-1.48183 193.288 -7.79551 191.618 -14.4068 191.413L-86.5281 326.755L21.441 388.307L59.7011 410.119C65.0971 398.934 67.6565 387.401 67.4946 377.153Z" fill="#276ED8"/>
<path opacity="0.6" d="M136.012 363.063C125.701 349.347 111.267 340.437 95.8222 339.97L95.6275 339.964C95.5916 338.892 95.5426 337.819 95.4673 336.738C92.6038 295.687 63.4699 261.6 30.3922 260.599C19.9204 260.282 10.3176 263.324 2.16314 268.923C-14.4052 235.819 -43.8365 212.791 -75.8949 211.82C-85.38 211.533 -94.3599 213.196 -102.615 216.516L-90.2559 393.698L87.8766 399.089L151 401C149.287 386.659 143.839 373.476 136.012 363.063Z" fill="white"/>
<path opacity="0.07" d="M65.6432 389.127C61.5055 372.807 50.6413 361.211 34.5538 358.732L34.3538 358.699C34.8397 357.521 35.3198 356.34 35.777 355.146C52.9799 309.87 38.9969 268.843 4.53248 263.524C-6.37964 261.842 -18.0281 263.945 -29.4037 269.035C-29.9564 251.266 -34.4956 235.516 -42.5377 223.212L-96.089 323.595L66.5622 417.018C68.1061 406.885 67.7425 397.391 65.6432 389.127Z" fill="#276ED8"/>
<path opacity="0.6" d="M289.615 347.06C281.996 340.022 272.521 334.388 261.68 330.968C227.421 320.166 192.522 335.517 183.741 365.242C183.505 366.023 183.306 366.813 183.116 367.601L182.917 367.539C166.925 362.497 150.765 364.128 138.179 370.795C128.625 375.859 121.131 383.822 117.323 393.963L182.713 414.578L317.431 457.04L383.808 333.487C381.983 332.799 380.131 332.16 378.247 331.567C345.041 321.096 311.408 328.06 289.615 347.06Z" fill="white"/>
<path opacity="0.2" d="M119.665 165.761L128 167.329V174.802L119.665 176.239C119.025 179.309 117.81 182.183 116.138 184.73L120.919 191.746L115.628 197.037L108.717 192.151C106.17 193.823 103.309 195.025 100.226 195.665L98.6579 204H91.1852L89.7482 195.665C86.6782 195.025 83.804 193.81 81.2565 192.138L74.2541 196.919L68.9632 191.628L73.8492 184.717C72.1769 182.17 70.975 179.296 70.3349 176.226L62 174.658V167.185L70.3349 165.748C70.975 162.665 72.19 159.804 73.8622 157.257L69.0808 150.254L74.3717 144.963L81.2957 149.849C83.8432 148.177 86.7173 146.962 89.7874 146.335L91.3551 138H98.8278L100.265 146.335C103.348 146.975 106.209 148.19 108.757 149.862L115.759 145.081L121.05 150.372L116.164 157.283C117.823 159.817 119.025 162.678 119.665 165.761ZM95 155.519C86.456 155.519 79.5321 162.456 79.5321 170.987C79.5321 179.518 86.456 186.455 95 186.455C103.544 186.455 110.468 179.531 110.468 170.987C110.468 162.443 103.544 155.519 95 155.519Z" fill="#84B5FF"/>
</g>
<g opacity="0.2" clip-path="url(#clip0_52_16)">
<path d="M103.949 36.1585C102.826 36.8066 101.389 36.4215 100.741 35.299L97.6774 29.9928C97.0293 28.8702 97.4144 27.4332 98.5369 26.7851C99.6594 26.137 101.096 26.5221 101.745 27.6446L104.808 32.9508C105.456 34.0734 105.071 35.5104 103.949 36.1585Z" fill="#84B5FF"/>
<path d="M126.027 33.2522C125.506 33.5528 124.871 33.6554 124.245 33.4854C122.992 33.1496 122.249 31.8617 122.584 30.6086L124.171 24.6895C124.506 23.4363 125.794 22.6928 127.047 23.0285C128.3 23.3643 129.044 24.6522 128.708 25.9053L127.122 31.8245C126.952 32.4505 126.547 32.9517 126.027 33.2522Z" fill="#84B5FF"/>
<path d="M148.999 43.7446L143.693 46.8082C142.57 47.4563 141.133 47.0712 140.485 45.9487C139.837 44.8262 140.222 43.3892 141.345 42.7411L146.651 39.6775C147.774 39.0294 149.211 39.4145 149.859 40.537C150.507 41.6595 150.122 43.0966 148.999 43.7446Z" fill="#84B5FF"/>
<path d="M152.519 70.4717C151.998 70.7722 151.364 70.8749 150.738 70.7048L144.818 69.1188C143.565 68.783 142.822 67.4951 143.157 66.242C143.493 64.9889 144.781 64.2453 146.034 64.5811L151.953 66.1671C153.207 66.5029 153.95 67.7908 153.614 69.0439C153.446 69.6726 153.04 70.1711 152.519 70.4717Z" fill="#84B5FF"/>
<path d="M109.38 95.378C108.859 95.6786 108.224 95.7812 107.598 95.6112C106.345 95.2754 105.602 93.9875 105.938 92.7344L107.524 86.8152C107.859 85.5621 109.147 84.8185 110.4 85.1543C111.653 85.4901 112.397 86.778 112.061 88.0311L110.475 93.9503C110.307 94.579 109.9 95.0774 109.38 95.378Z" fill="#84B5FF"/>
<path d="M93.299 75.9031L87.9928 78.9667C86.8703 79.6148 85.4333 79.2297 84.7852 78.1072C84.1371 76.9847 84.5221 75.5477 85.6447 74.8996L90.9509 71.836C92.0734 71.1879 93.5104 71.573 94.1585 72.6955C94.8066 73.818 94.4216 75.255 93.299 75.9031Z" fill="#84B5FF"/>
<path d="M90.393 53.8255C89.8724 54.1261 89.2375 54.2287 88.6115 54.0587L82.6924 52.4726C81.4393 52.1369 80.6957 50.849 81.0314 49.5958C81.3672 48.3427 82.6551 47.5991 83.9083 47.9349L89.8274 49.5209C91.0805 49.8567 91.8241 51.1446 91.4883 52.3977C91.3156 53.0253 90.9135 53.5249 90.393 53.8255Z" fill="#84B5FF"/>
<path d="M139.545 79.0284L141.502 82.4177C143.005 85.0206 142.099 88.3993 139.496 89.9022L132.718 93.8157C130.44 95.1307 126.971 94.8199 124.78 91.024L123.277 88.421L139.545 79.0284Z" fill="#84B5FF"/>
<path d="M120.764 37.6684C114.235 36.6295 107.564 38.6009 102.548 43.1241C96.2234 48.7638 93.7752 57.9861 96.4323 66.0323C99.1719 74.284 106.164 80.008 114.658 81.0692C116.947 81.3386 119.123 82.5406 120.739 84.4634L120.755 84.4905C120.793 84.4321 120.875 84.3852 120.929 84.3538L137.197 74.9613C137.251 74.9299 137.279 74.9143 137.348 74.9101L137.333 74.883C136.523 72.6032 136.647 70.0007 137.673 67.4564C140.157 61.1775 139.683 54.2206 136.302 48.364C132.983 42.6158 127.335 38.7187 120.764 37.6684ZM128.273 54.8073C127.161 55.4491 125.707 55.0595 125.065 53.9478C122.686 49.8265 117.425 48.4169 113.304 50.7964C112.192 51.4382 110.738 51.0486 110.096 49.9369C109.454 48.8252 109.844 47.3711 110.956 46.7293C117.3 43.0662 125.469 45.255 129.132 51.5997C129.774 52.7114 129.384 54.1655 128.273 54.8073Z" fill="#84B5FF"/>
<path d="M120.739 84.4634L120.929 84.3538C120.874 84.3851 120.793 84.4321 120.755 84.4905L120.739 84.4634Z" fill="#84B5FF"/>
<path d="M137.333 74.883L137.348 74.9101C137.278 74.9143 137.251 74.93 137.197 74.9613L137.333 74.883Z" fill="#84B5FF"/>
</g>
<defs>
<filter id="filter0_d_52_16" x="136.411" y="23.7231" width="124.587" height="198.695" filterUnits="userSpaceOnUse" color-interpolation-filters="sRGB">
<feFlood flood-opacity="0" result="BackgroundImageFix"/>
<feColorMatrix in="SourceAlpha" type="matrix" values="0 0 0 0 0 0 0 0 0 0 0 0 0 0 0 0 0 0 127 0" result="hardAlpha"/>
<feOffset dy="4"/>
<feGaussianBlur stdDeviation="6"/>
<feColorMatrix type="matrix" values="0 0 0 0 0.160784 0 0 0 0 0.0941176 0 0 0 0 0.435294 0 0 0 0.2 0"/>
<feBlend mode="normal" in2="BackgroundImageFix" result="effect1_dropShadow_52_16"/>
<feBlend mode="normal" in="SourceGraphic" in2="effect1_dropShadow_52_16" result="shape"/>
</filter>
<clipPath id="clip0_52_16">
<rect width="75.1407" height="75.1407" fill="white" transform="translate(66 45.5703) rotate(-30)"/>
</clipPath>
</defs>
</svg>
