<svg width="33" height="40" viewBox="0 0 33 40" fill="none" xmlns="http://www.w3.org/2000/svg">
<path d="M6.56 13.3333L6.56164 29.0733C6.56164 30.5083 7.70308 31.6667 9.11512 31.6667H9.84V37.57C9.84 38.91 10.9995 40 12.3164 40C13.6382 40 14.76 38.91 14.76 37.5683V31.6667H18.04V37.57C18.04 38.91 19.1995 40 20.518 40C21.8399 40 22.96 38.91 22.96 37.5683V31.6667L23.6882 31.665C25.0953 31.665 26.24 30.505 26.24 29.07V13.3333H6.56ZM32.8 15.785C32.8 14.4433 31.6602 13.3333 30.34 13.3333C29.0198 13.3317 27.88 14.445 27.88 15.7867V25.9633C27.88 27.3067 29.0182 28.3333 30.34 28.3333C31.6602 28.3333 32.8 27.3083 32.8 25.9633V15.785ZM4.92 15.785C4.92 14.4433 3.7802 13.3333 2.46 13.3333C1.1398 13.3317 0 14.445 0 15.7867V25.9633C0 27.3067 1.13816 28.3333 2.46 28.3333C3.7802 28.3333 4.92 27.3083 4.92 25.9633V15.785ZM21.2396 3.59833L22.7812 0.5C22.8928 0.28 22.7501 0 22.5139 0C22.4057 0 22.3007 0.0633333 22.245 0.175L20.6886 3.305C18.1778 2.07667 14.8764 1.95167 12.113 3.305L10.555 0.175C10.5009 0.0633333 10.396 0 10.2861 0C10.0499 0 9.90724 0.28 10.0188 0.5L11.5604 3.59833C8.53456 5.32167 6.56 7.905 6.56 11.665H26.24C26.24 7.905 24.2654 5.32167 21.2396 3.59833ZM12.3016 8.33333C11.849 8.33333 11.48 7.96 11.48 7.5C11.48 7.04333 11.849 6.66667 12.3016 6.66667C12.7543 6.66667 13.12 7.04333 13.12 7.5C13.12 7.96 12.7543 8.33333 12.3016 8.33333ZM20.4984 8.33333C20.0457 8.33333 19.68 7.96 19.68 7.5C19.68 7.04333 20.0457 6.66667 20.4984 6.66667C20.951 6.66667 21.32 7.04333 21.32 7.5C21.32 7.96 20.951 8.33333 20.4984 8.33333Z" fill="white"/>
</svg>
