<svg width="32" height="38" viewBox="0 0 32 38" fill="none" xmlns="http://www.w3.org/2000/svg">
<path d="M31.16 27.8787C29.9354 31.4888 26.2694 37.8809 22.4928 37.9506C19.9876 37.9996 19.1821 36.4416 16.3185 36.4416C13.4564 36.4416 12.5606 37.9031 10.1924 37.9981C6.18526 38.1548 0 28.7717 0 20.5887C0 13.0724 5.15386 9.34672 9.65648 9.27863C12.0714 9.2343 14.3523 10.9333 15.8246 10.9333C17.3031 10.9333 20.0733 8.8907 22.9852 9.18996C24.2035 9.24222 27.6265 9.68873 29.8232 12.9537C23.9948 16.8203 24.9031 24.9066 31.16 27.8787ZM23.0241 0C18.6212 0.180506 15.0285 4.87524 15.5301 8.7577C19.5996 9.07913 23.504 4.44298 23.0241 0Z" fill="white"/>
</svg>
