<svg width="1601" height="707" viewBox="0 0 1601 707" fill="none" xmlns="http://www.w3.org/2000/svg">
<mask id="mask0_23388_9493" style="mask-type:alpha" maskUnits="userSpaceOnUse" x="0" y="0" width="1601" height="707">
<rect width="1601" height="707" fill="#C4C4C4"/>
</mask>
<g mask="url(#mask0_23388_9493)">
<path d="M16.5699 244.762C-185.578 276.625 -439.391 344.811 -439.391 344.811L-378.135 1095.85C-378.135 1095.85 -185.053 1186.11 -23.3853 1179.46C244.246 1168.47 430.344 1008.63 698.084 992.258C995.407 974.077 1141.76 1063.4 1439.09 1045.7C1617.94 1035.06 1892.24 983.436 1892.24 983.436L1810.48 51.0001C1810.48 51.0001 1727.19 92.8834 1664.51 110.355C1521.96 150.09 1424.45 108.094 1271.16 123.458C995.021 151.133 870.323 257.256 593.419 276.798C363.496 293.024 242.793 209.105 16.5699 244.762Z" fill="#194484" fill-opacity="0.07"/>
<path d="M291.359 196.702C124.295 209.243 -92 305.069 -92 305.069L-92.0001 861.729C-92.0001 861.729 59.54 948.189 191.895 953.527C411.001 962.364 573.486 844.371 793.038 848.828C1036.85 853.778 1150.32 936.369 1394.11 941.714C1540.75 944.93 1768 921.073 1768 921.073L1768 98C1768 98 1697.25 186.621 1644.95 196.702C1525.99 219.629 1449.21 178.888 1323.11 181.221C1095.96 185.425 987.149 263.688 759.908 261.207C571.222 259.146 478.319 182.668 291.359 196.702Z" fill="#194484"/>
</g>
</svg>
