<svg width="40" height="39" viewBox="0 0 40 39" fill="none" xmlns="http://www.w3.org/2000/svg">
<path d="M20 0C8.95 0 0 8.81517 0 19.6872C0 28.3872 5.73 35.7649 13.675 38.366C14.675 38.5514 15.0417 37.942 15.0417 37.4194C15.0417 36.9519 15.025 35.7131 15.0167 34.072C9.45333 35.259 8.28 31.4308 8.28 31.4308C7.37 29.1585 6.055 28.5508 6.055 28.5508C4.24333 27.3304 6.195 27.3554 6.195 27.3554C8.20333 27.4923 9.25833 29.3839 9.25833 29.3839C11.0417 32.3941 13.94 31.5243 15.0833 31.0217C15.2633 29.7479 15.7783 28.8814 16.35 28.3889C11.9083 27.8964 7.24 26.2034 7.24 18.6605C7.24 16.5118 8.015 14.7554 9.29833 13.378C9.07333 12.8805 8.39833 10.8787 9.47333 8.16739C9.47333 8.16739 11.1483 7.63982 14.9733 10.1859C16.5733 9.74845 18.2733 9.53141 19.9733 9.52139C21.6733 9.53141 23.3733 9.74845 24.9733 10.1859C28.7733 7.63982 30.4483 8.16739 30.4483 8.16739C31.5233 10.8787 30.8483 12.8805 30.6483 13.378C31.9233 14.7554 32.6983 16.5118 32.6983 18.6605C32.6983 26.2235 28.0233 27.888 23.5733 28.3722C24.2733 28.9632 24.9233 30.1703 24.9233 32.0151C24.9233 34.6496 24.8983 36.7666 24.8983 37.4061C24.8983 37.9219 25.2483 38.538 26.2733 38.341C34.275 35.7565 40 28.3738 40 19.6872C40 8.81517 31.045 0 20 0Z" fill="white"/>
</svg>
