<svg width="18" height="18" viewBox="0 0 18 18" fill="none" xmlns="http://www.w3.org/2000/svg">
<g clip-path="url(#clip0_2764_100)">
<path d="M7.14386 3.62759C7.93046 1.6666 8.32377 0.686096 9.00009 0.686096C9.67642 0.686096 10.0697 1.6666 10.8563 3.6276L10.893 3.71891C11.3373 4.82678 11.5595 5.38071 12.0124 5.7174C12.4652 6.05409 13.0597 6.10733 14.2486 6.2138L14.4636 6.23305C16.4094 6.40732 17.3823 6.49445 17.5905 7.11343C17.7986 7.73242 17.0761 8.38976 15.6311 9.70445L15.1488 10.1432C14.4173 10.8087 14.0515 11.1415 13.8811 11.5776C13.8493 11.659 13.8228 11.7423 13.8019 11.8271C13.6899 12.2818 13.797 12.7645 14.0112 13.73L14.0778 14.0305C14.4715 15.8049 14.6684 16.692 14.3247 17.0747C14.1963 17.2177 14.0293 17.3206 13.8439 17.3712C13.3477 17.5066 12.6433 16.9326 11.2343 15.7845C10.3091 15.0306 9.84654 14.6537 9.31544 14.5689C9.10653 14.5355 8.89366 14.5355 8.68475 14.5689C8.15365 14.6537 7.69106 15.0306 6.76589 15.7845C5.35694 16.9326 4.65246 17.5066 4.15626 17.3712C3.97084 17.3206 3.80393 17.2177 3.67551 17.0747C3.33183 16.692 3.52866 15.8049 3.92234 14.0305L3.98902 13.73C4.20322 12.7645 4.31033 12.2818 4.19827 11.8271C4.17737 11.7423 4.15093 11.659 4.11913 11.5776C3.94866 11.1415 3.58291 10.8087 2.8514 10.1432L2.36912 9.70445C0.924076 8.38976 0.201554 7.73242 0.409732 7.11343C0.617911 6.49445 1.59082 6.40732 3.53663 6.23305L3.75157 6.2138C4.94049 6.10733 5.53494 6.05409 5.98779 5.7174C6.44064 5.38071 6.66284 4.82678 7.10723 3.71891L7.14386 3.62759Z" stroke="white"/>
<path d="M-15.9999 -16H34.0001V34H-15.9999L3.5 17H5L7.5 15.5L8.5 14.5L10 15L12.5 17H14.5001L14.0001 12L15.5001 10L18.0001 6.5L12.0001 5.5L9.5001 0.5L8.0001 1L6.0001 5.5L3.5001 6L0.500099 7L1.5 9.5L4 11.5L3.5 14.5V17L-15.9999 34V-16Z" fill="white"/>
</g>
<defs>
<clipPath id="clip0_2764_100">
<rect width="18" height="18" fill="white"/>
</clipPath>
</defs>
</svg>
