<svg width="24" height="24" viewBox="0 0 24 24" fill="none" xmlns="http://www.w3.org/2000/svg">
<g clip-path="url(#clip0_179_0)">
<path d="M22.2343 20.0001C22.2343 18.2051 20.7793 16.7499 18.9843 16.7499C17.1893 16.7499 15.7344 18.2051 15.7344 20.0001C15.7344 21.7949 17.1893 23.25 18.9843 23.25C20.7793 23.25 22.2343 21.7949 22.2343 20.0001Z" fill="#B1B1B1"/>
<path d="M18.9843 15.9999C16.7783 15.9999 14.9844 17.794 14.9844 20.0001C14.9844 22.2059 16.7783 24 18.9843 24C21.1904 24 22.9843 22.2059 22.9843 20.0001C22.9843 17.794 21.1904 15.9999 18.9843 15.9999ZM18.9843 22.5C17.6053 22.5 16.4844 21.3779 16.4844 20.0001C16.4844 18.622 17.6053 17.4999 18.9843 17.4999C20.3633 17.4999 21.4843 18.622 21.4843 20.0001C21.4843 21.3779 20.3633 22.5 18.9843 22.5Z" fill="#B1B1B1"/>
<path d="M22.2343 3.99988C22.2343 2.20508 20.7793 0.749939 18.9843 0.749939C17.1893 0.749939 15.7344 2.20508 15.7344 3.99988C15.7344 5.79486 17.1893 7.25 18.9843 7.25C20.7793 7.25 22.2343 5.79486 22.2343 3.99988Z" fill="#B1B1B1"/>
<path d="M18.9843 -6.10352e-05C16.7783 -6.10352e-05 14.9844 1.79401 14.9844 3.99988C14.9844 6.20593 16.7783 8 18.9843 8C21.1904 8 22.9843 6.20593 22.9843 3.99988C22.9843 1.79401 21.1904 -6.10352e-05 18.9843 -6.10352e-05ZM18.9843 6.5C17.6053 6.5 16.4844 5.37793 16.4844 3.99988C16.4844 2.62201 17.6053 1.49994 18.9843 1.49994C20.3633 1.49994 21.4843 2.62201 21.4843 3.99988C21.4843 5.37793 20.3633 6.5 18.9843 6.5Z" fill="#B1B1B1"/>
<path d="M8.23444 12.0001C8.23444 10.2051 6.7793 8.75012 4.98431 8.75012C3.18951 8.75012 1.73438 10.2051 1.73438 12.0001C1.73438 13.795 3.18951 15.25 4.98431 15.25C6.7793 15.25 8.23444 13.795 8.23444 12.0001Z" fill="#B1B1B1"/>
<path d="M4.98431 8.00012C2.77844 8.00012 0.984375 9.79401 0.984375 12.0001C0.984375 14.2061 2.77844 16 4.98431 16C7.19037 16 8.98444 14.2061 8.98444 12.0001C8.98444 9.79401 7.19037 8.00012 4.98431 8.00012ZM4.98431 14.5C3.60535 14.5 2.48438 13.3781 2.48438 12.0001C2.48438 10.622 3.60535 9.50012 4.98431 9.50012C6.36346 9.50012 7.48444 10.622 7.48444 12.0001C7.48444 13.3781 6.36346 14.5 4.98431 14.5Z" fill="#B1B1B1"/>
<path d="M7.34475 12.4797C6.99666 12.4797 6.65865 12.6608 6.47463 12.9847C6.20162 13.4637 6.36971 14.0748 6.84871 14.3489L16.1276 19.6388C16.6066 19.9138 17.2176 19.7457 17.4917 19.2649C17.7647 18.7859 17.5966 18.1749 17.1176 17.9007L7.83858 12.6108C7.68258 12.5218 7.51266 12.4797 7.34475 12.4797Z" fill="#B1B1B1"/>
<path d="M16.6236 4.22992C16.4555 4.22992 16.2856 4.27203 16.1296 4.36102L6.85053 9.65094C6.37153 9.92395 6.20362 10.535 6.47663 11.0151C6.74854 11.495 7.36048 11.664 7.84058 11.389L17.1196 6.09906C17.5986 5.82605 17.7665 5.21503 17.4935 4.73492C17.3086 4.41101 16.9706 4.22992 16.6236 4.22992Z" fill="#B1B1B1"/>
</g>
<defs>
<clipPath id="clip0_179_0">
<rect width="24" height="24" fill="white" transform="matrix(1 0 0 -1 0 24)"/>
</clipPath>
</defs>
</svg>
