<svg width="24" height="24" viewBox="0 0 24 24" fill="none" xmlns="http://www.w3.org/2000/svg">
<path d="M21.4049 14.1108C22.8518 7.6098 17.1558 1.70394 10.4666 2.83766C6.83519 0.584365 2 3.13067 2 7.45081C2 8.45551 2.27722 9.39612 2.75925 10.2069C1.41475 16.7229 7.15737 22.5438 13.8407 21.3327C18.5652 23.8307 23.7858 18.8488 21.4049 14.1108ZM15.0462 18.0314C13.2913 18.7531 10.4033 18.7573 8.65588 17.8425C6.16419 16.5139 5.7213 13.5231 7.87083 13.5231C9.49088 13.5231 8.97806 15.4119 10.6139 16.1818C11.3649 16.5289 12.9791 16.5647 13.9173 15.9321C14.8439 15.312 14.759 14.3364 14.2553 13.8703C12.9208 12.6383 9.1021 13.1278 7.35634 10.971C6.59793 10.0354 6.45474 8.38476 7.38714 7.18777C9.01219 5.09679 13.7808 4.96943 15.8312 6.54849C17.7244 8.01351 17.2132 9.95799 15.6856 9.95799C13.8482 9.95799 14.8139 7.55402 11.8477 7.55402C9.69735 7.55402 8.85152 9.08314 10.3658 9.8273C12.4188 10.847 17.6503 10.5065 17.6503 14.4912C17.6461 16.1494 16.6296 17.3855 15.0462 18.0314Z" fill="#276ED8"/>
</svg>
